<?xml version="1.0" encoding="UTF-8" standalone="no"?>
<svg
   contentStyleType="text/css"
   height="586.29852"
   preserveAspectRatio="none"
   version="1.1"
   viewBox="0 0 606.90082 586.29852"
   width="606.90082"
   zoomAndPan="magnify"
   id="svg129"
   sodipodi:docname="deployment.svg"
   inkscape:version="1.1.2 (0a00cf5339, 2022-02-04, custom)"
   xmlns:inkscape="http://www.inkscape.org/namespaces/inkscape"
   xmlns:sodipodi="http://sodipodi.sourceforge.net/DTD/sodipodi-0.dtd"
   xmlns:xlink="http://www.w3.org/1999/xlink"
   xmlns="http://www.w3.org/2000/svg"
   xmlns:svg="http://www.w3.org/2000/svg">
  <sodipodi:namedview
     id="namedview131"
     pagecolor="#ffffff"
     bordercolor="#666666"
     borderopacity="1.0"
     inkscape:pageshadow="2"
     inkscape:pageopacity="0.0"
     inkscape:pagecheckerboard="0"
     showgrid="false"
     inkscape:snap-global="false"
     inkscape:zoom="0.81528433"
     inkscape:cx="582.00554"
     inkscape:cy="293.14926"
     inkscape:window-width="1366"
     inkscape:window-height="742"
     inkscape:window-x="-9"
     inkscape:window-y="-9"
     inkscape:window-maximized="1"
     inkscape:current-layer="svg129"
     fit-margin-top="0"
     fit-margin-left="0"
     fit-margin-right="0"
     fit-margin-bottom="0" />
  <defs
     id="defs2">
    <linearGradient
       x2="67.733002"
       gradientUnits="userSpaceOnUse"
       id="A"
       y1="24.417"
       y2="24.417"
       x1="39.353001" />
    <linearGradient
       x2="95.549004"
       gradientUnits="userSpaceOnUse"
       id="B"
       y1="24.541"
       y2="24.541"
       x1="74.045998" />
    <path
       id="C"
       d="m 97.653,49.298 -0.01,-3.45 5.876,-0.016 0.01,3.45 z" />
    <path
       id="D"
       d="m 144.737,7.822 -0.194,-0.05 -7.382,-0.783 0.083,-0.077 -0.04,-2.576 0.245,0.002 7.357,-0.81 0.07,0.078 4.588,2.076 -0.202,0.046 z" />
    <inkscape:path-effect
       effect="powerclip"
       id="path-effect4077"
       is_visible="true"
       lpeversion="1"
       inverse="true"
       flatten="false"
       hide_clip="false"
       message="Utilice la regla de relleno parimpar en el diálogo &lt;b&gt;Relleno y borde&lt;/b&gt; si el resultado no está aplanada después de convertir el recorte en trayectos." />
    <inkscape:path-effect
       effect="powerclip"
       id="path-effect3354"
       is_visible="true"
       lpeversion="1"
       inverse="true"
       flatten="false"
       hide_clip="false"
       message="Utilice la regla de relleno parimpar en el diálogo &lt;b&gt;Relleno y borde&lt;/b&gt; si el resultado no está aplanada después de convertir el recorte en trayectos." />
    <inkscape:path-effect
       effect="powerclip"
       id="path-effect1105"
       is_visible="true"
       lpeversion="1"
       inverse="true"
       flatten="false"
       hide_clip="false"
       message="Utilice la regla de relleno parimpar en el diálogo &lt;b&gt;Relleno y borde&lt;/b&gt; si el resultado no está aplanada después de convertir el recorte en trayectos." />
    <inkscape:path-effect
       effect="powerclip"
       id="path-effect820"
       is_visible="true"
       lpeversion="1"
       inverse="true"
       flatten="false"
       hide_clip="false"
       message="Utilice la regla de relleno parimpar en el diálogo &lt;b&gt;Relleno y borde&lt;/b&gt; si el resultado no está aplanada después de convertir el recorte en trayectos." />
    <clipPath
       clipPathUnits="userSpaceOnUse"
       id="clipPath4073-4">
      <circle
         style="display:none;fill:#ff0000;stroke:none;stroke-width:24.5;stroke-miterlimit:4;stroke-dasharray:none"
         id="circle4075-7"
         cx="168.07649"
         cy="689.42084"
         r="16" />
    </clipPath>
    <inkscape:path-effect
       effect="powerclip"
       id="path-effect4077-7"
       is_visible="true"
       lpeversion="1"
       inverse="true"
       flatten="false"
       hide_clip="false"
       message="Utilice la regla de relleno parimpar en el diálogo &lt;b&gt;Relleno y borde&lt;/b&gt; si el resultado no está aplanada después de convertir el recorte en trayectos." />
    <clipPath
       clipPathUnits="userSpaceOnUse"
       id="clipPath4073-2">
      <circle
         style="display:none;fill:#ff0000;stroke:none;stroke-width:24.5;stroke-miterlimit:4;stroke-dasharray:none"
         id="circle4075-9"
         cx="168.07649"
         cy="689.42084"
         r="16" />
      <path
         id="lpe_path-effect4077-56"
         style="fill:#ff0000;stroke:none;stroke-width:24.5;stroke-miterlimit:4;stroke-dasharray:none"
         class="powerclip"
         d="m 123.07649,644.42084 h 90 v 90 h -90 z m 61,45 a 16,16 0 0 0 -16,-16 16,16 0 0 0 -16,16 16,16 0 0 0 16,16 16,16 0 0 0 16,-16 z" />
    </clipPath>
    <inkscape:path-effect
       effect="powerclip"
       id="path-effect4077-3"
       is_visible="true"
       lpeversion="1"
       inverse="true"
       flatten="false"
       hide_clip="false"
       message="Utilice la regla de relleno parimpar en el diálogo &lt;b&gt;Relleno y borde&lt;/b&gt; si el resultado no está aplanada después de convertir el recorte en trayectos." />
    <inkscape:path-effect
       effect="powerclip"
       id="path-effect4077-5"
       is_visible="true"
       lpeversion="1"
       inverse="true"
       flatten="false"
       hide_clip="false"
       message="Utilice la regla de relleno parimpar en el diálogo &lt;b&gt;Relleno y borde&lt;/b&gt; si el resultado no está aplanada después de convertir el recorte en trayectos." />
    <clipPath
       clipPathUnits="userSpaceOnUse"
       id="clipPath4073-8">
      <circle
         style="display:none;fill:#ff0000;stroke:none;stroke-width:24.5;stroke-miterlimit:4;stroke-dasharray:none"
         id="circle4075-4"
         cx="168.07649"
         cy="689.42084"
         r="16" />
      <path
         id="lpe_path-effect4077-9"
         style="fill:#ff0000;stroke:none;stroke-width:24.5;stroke-miterlimit:4;stroke-dasharray:none"
         class="powerclip"
         d="m 123.07649,644.42084 h 90 v 90 h -90 z m 61,45 a 16,16 0 0 0 -16,-16 16,16 0 0 0 -16,16 16,16 0 0 0 16,16 16,16 0 0 0 16,-16 z" />
    </clipPath>
    <inkscape:path-effect
       effect="powerclip"
       id="path-effect4077-4"
       is_visible="true"
       lpeversion="1"
       inverse="true"
       flatten="false"
       hide_clip="false"
       message="Utilice la regla de relleno parimpar en el diálogo &lt;b&gt;Relleno y borde&lt;/b&gt; si el resultado no está aplanada después de convertir el recorte en trayectos." />
    <clipPath
       clipPathUnits="userSpaceOnUse"
       id="clipPath4073-9">
      <circle
         style="display:none;fill:#ff0000;stroke:none;stroke-width:24.5;stroke-miterlimit:4;stroke-dasharray:none"
         id="circle4075-1"
         cx="168.07649"
         cy="689.42084"
         r="16" />
      <path
         id="lpe_path-effect4077-19"
         style="fill:#ff0000;stroke:none;stroke-width:24.5;stroke-miterlimit:4;stroke-dasharray:none"
         class="powerclip"
         d="m 123.07649,644.42084 h 90 v 90 h -90 z m 61,45 a 16,16 0 0 0 -16,-16 16,16 0 0 0 -16,16 16,16 0 0 0 16,16 16,16 0 0 0 16,-16 z" />
    </clipPath>
    <inkscape:path-effect
       effect="powerclip"
       id="path-effect4077-71"
       is_visible="true"
       lpeversion="1"
       inverse="true"
       flatten="false"
       hide_clip="false"
       message="Utilice la regla de relleno parimpar en el diálogo &lt;b&gt;Relleno y borde&lt;/b&gt; si el resultado no está aplanada después de convertir el recorte en trayectos." />
    <clipPath
       clipPathUnits="userSpaceOnUse"
       id="clipPath4073">
      <circle
         style="display:none;fill:#ff0000;stroke:none;stroke-width:24.5;stroke-miterlimit:4;stroke-dasharray:none"
         id="circle4075-0"
         cx="168.07649"
         cy="689.42084"
         r="16" />
      <path
         id="lpe_path-effect4077"
         style="fill:#ff0000;stroke:none;stroke-width:24.5;stroke-miterlimit:4;stroke-dasharray:none"
         class="powerclip"
         d="m 123.07649,644.42084 h 90 v 90 h -90 z m 61,45 a 16,16 0 0 0 -16,-16 16,16 0 0 0 -16,16 16,16 0 0 0 16,16 16,16 0 0 0 16,-16 z" />
    </clipPath>
    <inkscape:path-effect
       effect="powerclip"
       id="path-effect4077-8"
       is_visible="true"
       lpeversion="1"
       inverse="true"
       flatten="false"
       hide_clip="false"
       message="Utilice la regla de relleno parimpar en el diálogo &lt;b&gt;Relleno y borde&lt;/b&gt; si el resultado no está aplanada después de convertir el recorte en trayectos." />
    <clipPath
       clipPathUnits="userSpaceOnUse"
       id="clipath_lpe_path-effect4077-8">
      <circle
         style="display:none;fill:#ff0000;stroke:none;stroke-width:24.5;stroke-miterlimit:4;stroke-dasharray:none"
         id="circle4763"
         cx="168.07649"
         cy="689.42084"
         r="16" />
      <path
         id="lpe_path-effect4077-8"
         style="fill:#ff0000;stroke:none;stroke-width:24.5;stroke-miterlimit:4;stroke-dasharray:none"
         class="powerclip"
         d="m 123.07649,644.42084 h 90 v 90 h -90 z m 61,45 a 16,16 0 0 0 -16,-16 16,16 0 0 0 -16,16 16,16 0 0 0 16,16 16,16 0 0 0 16,-16 z" />
    </clipPath>
  </defs>
  <g
     id="g1533"
     transform="matrix(1.7779005,0,0,1.7779005,500.22678,211.81605)"
     inkscape:export-filename="C:\Users\Alejandro\Documents\Construcción de Sistemas\caminador\deployment.png"
     inkscape:export-xdpi="300"
     inkscape:export-ydpi="300">
    <g
       id="g1477">
      <path
         d="m 0,24.108 v 11.783 c 0,0.974 0.314,1.868 0.835,2.608 H 59.164 C 59.686,37.76 60,36.865 60,35.892 V 24.108 C 60,23.134 59.686,22.24 59.165,21.5 H 0.835 C 0.314,22.24 0,23.135 0,24.108 Z M 52,30.5 c 0.552,0 1,0.448 1,1 0,0.552 -0.448,1 -1,1 -0.552,0 -1,-0.448 -1,-1 0,-0.552 0.448,-1 1,-1 z m -2,-3 c 0.552,0 1,0.448 1,1 0,0.552 -0.448,1 -1,1 -0.552,0 -1,-0.448 -1,-1 0,-0.552 0.448,-1 1,-1 z m -2,3 c 0.552,0 1,0.448 1,1 0,0.552 -0.448,1 -1,1 -0.552,0 -1,-0.448 -1,-1 0,-0.552 0.448,-1 1,-1 z m -2,-3 c 0.552,0 1,0.448 1,1 0,0.552 -0.448,1 -1,1 -0.552,0 -1,-0.448 -1,-1 0,-0.552 0.448,-1 1,-1 z m -2,3 c 0.552,0 1,0.448 1,1 0,0.552 -0.448,1 -1,1 -0.552,0 -1,-0.448 -1,-1 0,-0.552 0.448,-1 1,-1 z m -2,-3 c 0.552,0 1,0.448 1,1 0,0.552 -0.448,1 -1,1 -0.552,0 -1,-0.448 -1,-1 0,-0.552 0.448,-1 1,-1 z m -2,3 c 0.552,0 1,0.448 1,1 0,0.552 -0.448,1 -1,1 -0.552,0 -1,-0.448 -1,-1 0,-0.552 0.448,-1 1,-1 z m -2,-3 c 0.552,0 1,0.448 1,1 0,0.552 -0.448,1 -1,1 -0.552,0 -1,-0.448 -1,-1 0,-0.552 0.448,-1 1,-1 z m -2,3 c 0.552,0 1,0.448 1,1 0,0.552 -0.448,1 -1,1 -0.552,0 -1,-0.448 -1,-1 0,-0.552 0.448,-1 1,-1 z m -2,-3 c 0.552,0 1,0.448 1,1 0,0.552 -0.448,1 -1,1 -0.552,0 -1,-0.448 -1,-1 0,-0.552 0.448,-1 1,-1 z m -23.5,-2 c 2.481,0 4.5,2.019 4.5,4.5 0,2.481 -2.019,4.5 -4.5,4.5 C 8.019,34.5 6,32.481 6,30 6,27.519 8.019,25.5 10.5,25.5 Z"
         id="path1471" />
      <path
         d="M 59.165,19.5 C 59.686,18.76 60,17.865 60,16.892 V 5.108 C 60,2.567 57.933,0.5 55.392,0.5 H 4.608 C 2.067,0.5 0,2.567 0,5.108 v 11.783 c 0,0.974 0.314,1.868 0.835,2.608 h 58.33 z M 52,11.5 c 0.552,0 1,0.448 1,1 0,0.552 -0.448,1 -1,1 -0.552,0 -1,-0.448 -1,-1 0,-0.552 0.448,-1 1,-1 z m -2,-3 c 0.552,0 1,0.448 1,1 0,0.552 -0.448,1 -1,1 -0.552,0 -1,-0.448 -1,-1 0,-0.552 0.448,-1 1,-1 z m -2,3 c 0.552,0 1,0.448 1,1 0,0.552 -0.448,1 -1,1 -0.552,0 -1,-0.448 -1,-1 0,-0.552 0.448,-1 1,-1 z m -2,-3 c 0.552,0 1,0.448 1,1 0,0.552 -0.448,1 -1,1 -0.552,0 -1,-0.448 -1,-1 0,-0.552 0.448,-1 1,-1 z m -2,3 c 0.552,0 1,0.448 1,1 0,0.552 -0.448,1 -1,1 -0.552,0 -1,-0.448 -1,-1 0,-0.552 0.448,-1 1,-1 z m -2,-3 c 0.552,0 1,0.448 1,1 0,0.552 -0.448,1 -1,1 -0.552,0 -1,-0.448 -1,-1 0,-0.552 0.448,-1 1,-1 z m -2,3 c 0.552,0 1,0.448 1,1 0,0.552 -0.448,1 -1,1 -0.552,0 -1,-0.448 -1,-1 0,-0.552 0.448,-1 1,-1 z m -2,-3 c 0.552,0 1,0.448 1,1 0,0.552 -0.448,1 -1,1 -0.552,0 -1,-0.448 -1,-1 0,-0.552 0.448,-1 1,-1 z m -2,3 c 0.552,0 1,0.448 1,1 0,0.552 -0.448,1 -1,1 -0.552,0 -1,-0.448 -1,-1 0,-0.552 0.448,-1 1,-1 z m -2,-3 c 0.552,0 1,0.448 1,1 0,0.552 -0.448,1 -1,1 -0.552,0 -1,-0.448 -1,-1 0,-0.552 0.448,-1 1,-1 z m -23.5,-2 c 2.481,0 4.5,2.019 4.5,4.5 0,2.481 -2.019,4.5 -4.5,4.5 C 8.019,15.5 6,13.481 6,11 6,8.519 8.019,6.5 10.5,6.5 Z"
         id="path1473" />
      <path
         d="M 0.835,40.5 C 0.314,41.24 0,42.135 0,43.108 V 54.891 C 0,57.433 2.067,59.5 4.608,59.5 h 50.783 c 2.541,0 4.608,-2.067 4.608,-4.608 V 43.108 c 0,-0.974 -0.314,-1.868 -0.835,-2.608 z m 9.665,13 C 8.019,53.5 6,51.481 6,49 c 0,-2.481 2.019,-4.5 4.5,-4.5 2.481,0 4.5,2.019 4.5,4.5 0,2.481 -2.019,4.5 -4.5,4.5 z m 23.5,-5 c -0.552,0 -1,-0.448 -1,-1 0,-0.552 0.448,-1 1,-1 0.552,0 1,0.448 1,1 0,0.552 -0.448,1 -1,1 z m 2,3 c -0.552,0 -1,-0.448 -1,-1 0,-0.552 0.448,-1 1,-1 0.552,0 1,0.448 1,1 0,0.552 -0.448,1 -1,1 z m 2,-3 c -0.552,0 -1,-0.448 -1,-1 0,-0.552 0.448,-1 1,-1 0.552,0 1,0.448 1,1 0,0.552 -0.448,1 -1,1 z m 2,3 c -0.552,0 -1,-0.448 -1,-1 0,-0.552 0.448,-1 1,-1 0.552,0 1,0.448 1,1 0,0.552 -0.448,1 -1,1 z m 2,-3 c -0.552,0 -1,-0.448 -1,-1 0,-0.552 0.448,-1 1,-1 0.552,0 1,0.448 1,1 0,0.552 -0.448,1 -1,1 z m 2,3 c -0.552,0 -1,-0.448 -1,-1 0,-0.552 0.448,-1 1,-1 0.552,0 1,0.448 1,1 0,0.552 -0.448,1 -1,1 z m 2,-3 c -0.552,0 -1,-0.448 -1,-1 0,-0.552 0.448,-1 1,-1 0.552,0 1,0.448 1,1 0,0.552 -0.448,1 -1,1 z m 2,3 c -0.552,0 -1,-0.448 -1,-1 0,-0.552 0.448,-1 1,-1 0.552,0 1,0.448 1,1 0,0.552 -0.448,1 -1,1 z m 2,-3 c -0.552,0 -1,-0.448 -1,-1 0,-0.552 0.448,-1 1,-1 0.552,0 1,0.448 1,1 0,0.552 -0.448,1 -1,1 z m 2,3 c -0.552,0 -1,-0.448 -1,-1 0,-0.552 0.448,-1 1,-1 0.552,0 1,0.448 1,1 0,0.552 -0.448,1 -1,1 z"
         id="path1475" />
    </g>
    <g
       id="g1479" />
    <g
       id="g1481" />
    <g
       id="g1483" />
    <g
       id="g1485" />
    <g
       id="g1487" />
    <g
       id="g1489" />
    <g
       id="g1491" />
    <g
       id="g1493" />
    <g
       id="g1495" />
    <g
       id="g1497" />
    <g
       id="g1499" />
    <g
       id="g1501" />
    <g
       id="g1503" />
    <g
       id="g1505" />
    <g
       id="g1507" />
  </g>
  <g
     id="g1410"
     transform="matrix(0.30416758,0,0,0.30416758,-34.168665,116.92819)"
     inkscape:export-filename="C:\Users\Alejandro\Documents\Construcción de Sistemas\caminador\deployment.png"
     inkscape:export-xdpi="300"
     inkscape:export-ydpi="300">
    <g
       id="g1355">
      <g
         id="g1353">
        <path
           d="M 409.997,0 H 137.599 c -13.971,0 -25.264,11.312 -25.264,25.264 v 497.059 c 0,13.961 11.303,25.273 25.264,25.273 h 272.397 c 13.952,0 25.265,-11.312 25.265,-25.273 V 25.264 C 435.27,11.303 423.949,0 409.997,0 Z M 245.885,29.816 h 55.807 c 2.917,0 5.269,2.353 5.269,5.269 0,2.916 -2.352,5.269 -5.269,5.269 h -55.807 c -2.897,0 -5.269,-2.353 -5.269,-5.269 0,-2.916 2.372,-5.269 5.269,-5.269 z m 61.612,472.837 H 240.09 c -5.527,0 -10.012,-4.476 -10.012,-10.003 0,-5.526 4.485,-10.002 10.012,-10.002 h 67.406 c 5.526,0 9.992,4.476 9.992,10.002 10e-4,5.528 -4.455,10.003 -9.991,10.003 z M 403.685,443.69 H 143.911 V 85.642 h 259.774 z"
           id="path1351" />
      </g>
    </g>
    <g
       id="g1357" />
    <g
       id="g1359" />
    <g
       id="g1361" />
    <g
       id="g1363" />
    <g
       id="g1365" />
    <g
       id="g1367" />
    <g
       id="g1369" />
    <g
       id="g1371" />
    <g
       id="g1373" />
    <g
       id="g1375" />
    <g
       id="g1377" />
    <g
       id="g1379" />
    <g
       id="g1381" />
    <g
       id="g1383" />
    <g
       id="g1385" />
  </g>
  <path
     style="fill:#000000;fill-opacity:1;stroke:none;stroke-width:0.936011"
     d="m 91.804306,334.95914 v 21.74214 h 4.396379 c -9.36e-4,-0.0397 0,-0.08 0,-0.11985 0,-1.94688 1.570227,-3.51711 3.517099,-3.51711 1.946886,0 3.557086,1.57023 3.557086,3.51711 0,0.0401 9.4e-4,0.0802 0,0.11985 h 7.55379 c 0.57523,0 1.03914,0.49119 1.03914,1.07911 v 26.1785 c 0,0.58794 -0.4639,1.03915 -1.03914,1.03915 h -7.59374 c 0.005,0.0804 0.0399,0.15807 0.0399,0.2398 0,1.94991 -1.60717,3.51712 -3.557079,3.51712 -1.949897,0 -3.517111,-1.56721 -3.517111,-3.51712 0,-0.0818 0.03455,-0.15935 0.03987,-0.2398 h -4.436347 v 44.40353 h 2.358068 c 0.421017,-0.009 0.808672,0.37833 0.799345,0.79935 v 0.39966 h 23.021074 c 0.33373,0.004 0.6355,0.30576 0.63948,0.63948 v 4.03669 c 2.3359,0.25788 4.15658,2.23289 4.15658,4.63619 0,2.4033 -1.82068,4.37833 -4.15658,4.6362 v 6.43471 c -0.004,0.33373 -0.30574,0.6355 -0.63948,0.63948 h -1.35888 c -0.18095,2.4083 -2.13768,4.27649 -4.59622,4.27649 -2.45326,0 -4.45138,-1.86819 -4.63619,-4.27649 H 94.961529 v 0.11985 c 0.0089,0.42102 -0.378328,0.80867 -0.799345,0.79935 H 91.804116 V 459.257 H 245.7177 v -4.23652 l 5.79523,-5.95511 v -78.4156 l -5.79523,-5.51546 v -27.09775 l -3.35725,-3.07748 H 91.804116 Z m 35.930484,1.43881 c 2.12688,0 3.83684,1.7157 3.83684,3.83685 0,2.11573 -1.71017,3.83686 -3.83684,3.83686 -2.12121,0 -3.83686,-1.72123 -3.83686,-3.83686 0,-2.12123 1.71563,-3.83685 3.83686,-3.83685 z m 13.34903,3.75692 h 47.32111 v 5.91514 h -47.32111 z m 53.39615,0 h 47.32112 v 5.91514 h -47.32112 z m -51.59763,1.79853 v 2.27812 h 2.27813 v -2.27812 z m 5.91515,0 v 2.27812 h 2.27813 v -2.27812 z m 5.91512,0 v 2.27812 h 2.27813 v -2.27812 z m 5.91515,0 v 2.27812 h 2.27813 v -2.27812 z m 5.91514,0 v 2.27812 h 2.27813 v -2.27812 z m 5.91514,0 v 2.27812 h 2.27813 v -2.27812 z m 5.91514,0 v 2.27812 h 2.27814 v -2.27812 z m 5.91515,0 v 2.27812 h 2.3181 v -2.27812 z m 11.99015,0 v 2.27812 h 2.31809 v -2.27812 z m 5.91514,0 v 2.27812 h 2.27814 v -2.27812 z m 5.91514,0 v 2.27812 h 2.27813 v -2.27812 z m 5.91515,0 v 2.27812 h 2.3181 v -2.27812 z m 5.9551,0 v 2.27812 h 2.27813 v -2.27812 z m 5.91515,0 v 2.27812 h 2.27813 v -2.27812 z m 5.87518,0 v 2.27812 h 2.27813 v -2.27812 z m 5.9551,0 v 2.27812 h 2.27813 v -2.27812 z m -115.22536,10.55133 c 0.10808,-0.0221 0.24493,0 0.35971,0 h 5.63537 c 0.79255,0.12568 1.39885,0.80791 1.39885,1.63865 0,0.82524 -0.61168,1.51293 -1.39885,1.63865 v 0.0399 h -5.63537 c -0.91813,0 -1.67862,-0.76049 -1.67862,-1.67862 0,-0.80346 0.5626,-1.48384 1.31891,-1.63866 z m 10.55133,0 c 0.10821,-0.0221 0.20494,0 0.31973,0 h 5.67536 c 0.79236,0.12568 1.39885,0.80791 1.39885,1.63865 0,0.82524 -0.60649,1.51293 -1.39885,1.63865 v 0.0399 h -5.67536 c -0.91832,0 -1.63864,-0.76049 -1.63864,-1.67862 0,-0.80346 0.56147,-1.48384 1.31891,-1.63866 z m 17.06599,4.79606 c 0.1077,-0.022 0.20565,0 0.31974,0 h 5.63537 c 0.79253,0.13122 1.39885,0.81334 1.39885,1.63866 0,0.83073 -0.6119,1.51306 -1.39885,1.63866 v 0.0399 h -5.63537 c -0.91813,0 -1.67862,-0.76048 -1.67862,-1.67862 0,-0.80336 0.60512,-1.48382 1.35888,-1.63865 z m -72.980057,0.39967 c -0.547654,0 -0.959217,0.41156 -0.959217,0.95921 v 24.37997 c 0,0.54767 0.411563,0.99919 0.959217,0.99919 h 32.853017 c 0.54765,0 0.99918,-0.45152 0.99918,-0.99919 v -24.37997 c 0,-0.54765 -0.45153,-0.95921 -0.99918,-0.95921 z m 101.516617,0.83931 c 2.80085,0 5.038,1.04294 7.35396,3.39722 l 1.63865,1.67861 1.03915,-1.23898 c 3.54584,-4.19923 9.35188,-5.05464 13.2691,-1.95839 2.15452,1.70311 3.19971,3.98281 3.07748,6.79442 -0.16721,3.84049 -2.54144,6.72777 -6.39476,7.75363 -3.32215,0.88444 -6.69241,-0.2841 -9.55215,-3.2773 l -1.55872,-1.63866 -0.31975,0.51958 c -0.64708,0.97848 -3.02643,3.04321 -4.07665,3.55707 -2.27786,1.11449 -4.5055,1.38264 -6.67451,0.79934 -2.56417,-0.68955 -4.94792,-2.69196 -5.83521,-4.95593 -0.59358,-1.5143 -0.65682,-4.40839 -0.11985,-5.83521 1.26051,-3.34443 4.51362,-5.5954 8.1533,-5.5954 z m -52.1172,3.11744 h 1.87847 v 1.35889 h 1.83848 v -1.35889 h 1.87846 v 1.35889 h 1.83849 v -1.35889 h 1.83849 v 1.35889 h 2.55791 c 1.17296,0 2.11826,0.94528 2.11826,2.11826 v 2.07829 h 1.11907 v 1.87846 h -1.11907 v 1.83849 h 1.11907 v 1.87845 h -1.11907 v 1.83849 h 1.11907 v 1.87846 h -1.11907 v 2.0783 c 0,1.17297 -0.9453,2.11826 -2.11826,2.11826 h -2.55791 v 1.35888 h -1.83849 v -1.35888 h -1.83849 v 1.35888 h -1.87846 v -1.35888 h -1.83848 v 1.35888 h -1.87847 v -1.35888 h -2.3181 c -1.17296,0 -2.11825,-0.94529 -2.11825,-2.11826 v -2.0783 h -1.11907 v -1.87846 h 1.11907 v -1.83849 h -1.11907 v -1.87845 h 1.11907 v -1.83849 h -1.11907 v -1.87846 h 1.11907 v -2.07829 c 0,-1.17298 0.94529,-2.11826 2.11825,-2.11826 h 2.3181 z m 51.83742,0.0399 c -1.61303,0.039 -2.76297,0.5597 -3.87681,1.79853 -1.44836,1.61078 -1.76118,3.58162 -0.87928,5.4755 1.20184,2.58067 4.20983,3.77581 7.11416,2.83767 1.39652,-0.451 3.17776,-1.90933 4.27649,-3.51711 l 0.91925,-1.31885 -0.47962,-0.83932 c -0.6547,-1.18972 -2.77179,-3.30997 -3.87682,-3.87682 -0.64205,-0.32935 -1.40172,-0.49521 -2.47796,-0.55954 -0.25059,-0.0149 -0.48898,-0.005 -0.71941,0 z m 17.38573,0 c -1.1939,0.089 -2.14868,0.48811 -3.27731,1.31893 -1.17507,0.865 -3.07748,3.24036 -3.07748,3.83685 0,0.74593 2.32411,3.47453 3.67698,4.31645 1.24475,0.77452 2.12418,0.99675 3.63703,0.91924 0.93633,-0.0478 1.74307,-0.20234 2.27812,-0.47961 0.45368,-0.23514 1.17901,-0.80408 1.59869,-1.23898 2.23569,-2.31645 1.80748,-5.87271 -0.91925,-7.75363 -1.00842,-0.69563 -1.36913,-0.82843 -2.63783,-0.91925 -0.47162,-0.0338 -0.881,-0.0296 -1.27895,0 z m -45.32277,0.31974 h 5.63537 c 0.79253,0.13122 1.39885,0.81335 1.39885,1.63866 0,0.82532 -0.6119,1.51306 -1.39885,1.63866 v 0.0399 h -5.63537 c -0.91813,0 -1.67862,-0.76041 -1.67862,-1.67862 0,-0.91815 0.76587,-1.63866 1.67862,-1.63866 z m 44.96306,2.3181 h 1.59869 v 1.67863 h 1.87845 v 1.83848 h -1.87845 v 1.63865 h -1.59869 v -1.63865 h -1.87845 v -1.83848 h 1.87845 z m -19.10431,1.67863 h 5.27566 v 1.67861 h -5.27566 z m -25.85875,0.71941 h 5.63537 v 0.0399 c 0.79253,0.12568 1.39885,0.77338 1.39885,1.5987 0,0.83073 -0.6119,1.50751 -1.39885,1.63865 v 0.0399 h -5.63537 c -0.91813,0 -1.67862,-0.7604 -1.67862,-1.67861 0,-0.90722 0.76587,-1.63866 1.67862,-1.63866 z m -0.31974,4.71612 c 0.1077,-0.0224 0.20565,0 0.31974,0 h 5.63537 c 0.79253,0.12555 1.39885,0.80799 1.39885,1.63865 0,0.81981 -0.6119,1.50218 -1.39885,1.63865 v 0.0399 h -5.63537 c -0.91813,0 -1.67862,-0.76039 -1.67862,-1.67861 0,-0.7938 0.60514,-1.48189 1.35888,-1.63865 z m 63.74764,1.87845 h 5.67534 c 0.91275,0 1.67862,0.76041 1.67862,1.67863 0,0.91813 -0.76587,1.67863 -1.67862,1.67863 h -5.67534 v -0.0399 c -0.79255,-0.12023 -1.39885,-0.80791 -1.39885,-1.63866 0,-0.83074 0.61188,-1.51306 1.39885,-1.63866 v -0.0399 z m 10.87107,0 h 5.67534 v 0.0399 c 0.79254,0.13113 1.39885,0.80799 1.39885,1.63865 0,0.82531 -0.60631,1.51307 -1.39885,1.63865 v 0.0399 h -5.67534 c -0.90736,0 -1.67862,-0.76039 -1.67862,-1.67863 0,-0.9127 0.77126,-1.67861 1.67862,-1.67861 z m 21.18259,0.11986 c 1.35849,0 2.47797,1.07955 2.47797,2.43799 0,1.36966 -1.11948,2.47797 -2.47797,2.47797 -1.35849,0 -2.47794,-1.10838 -2.47794,-2.47797 0,-1.35844 1.11396,-2.43799 2.47794,-2.43799 z m -95.48156,2.71776 h 5.63537 c 0.79253,0.13665 1.39885,0.81342 1.39885,1.63866 0,0.83075 -0.6119,1.51306 -1.39885,1.63865 v 0.0399 h -5.63537 c -0.91813,0 -1.67862,-0.76048 -1.67862,-1.67861 0,-0.9073 0.76587,-1.63866 1.67862,-1.63866 z m 86.84866,9.23242 h 3.23734 2.75775 3.23733 l 1.23898,1.23898 v 3.23735 l -1.23898,1.23898 h -3.23733 -2.75775 -3.23734 l -1.23899,-1.23885 v -3.23734 l 1.23899,-1.23899 z m -95.48157,1.03914 c 0.91833,0 1.67862,0.77141 1.67862,1.67863 v 3.99672 h -0.0399 c -0.12023,0.79793 -0.81342,1.39885 -1.63866,1.39885 -0.83063,0 -1.5123,-0.60092 -1.63866,-1.39885 v -3.99672 c 0,-0.90722 0.72611,-1.67863 1.63866,-1.67863 z m -18.78458,0.35971 h 7.19408 c 1.90789,0 3.43719,1.51659 3.43719,3.39721 v 0.15987 c 0,1.88062 -1.5293,3.39721 -3.43719,3.39721 h -7.19408 c -1.90788,0 -3.47714,-1.51659 -3.47714,-3.39721 v -0.15987 c 0,-1.88062 1.56926,-3.39721 3.47714,-3.39721 z m 27.09775,0.31973 c 0.1077,-0.0223 0.20565,0 0.31974,0 h 5.63537 c 0.79253,0.13665 1.39885,0.82428 1.39885,1.63866 0,0.82532 -0.6119,1.5183 -1.39885,1.63866 v 0.0399 h -5.63537 c -0.91813,0 -1.67862,-0.7605 -1.67862,-1.67863 0,-0.79388 0.60512,-1.48293 1.35888,-1.63865 z m 87.88781,0.0399 v 1.91843 h 1.91842 v -1.91843 z m 5.95512,0 v 1.91843 h 1.87845 v -1.91843 z m -32.5333,2.51794 h 2.03834 3.637 5.91514 4.11663 1.51875 c 0.91814,0 1.67863,0.76039 1.67863,1.67861 0,0.91815 -0.76049,1.63866 -1.67863,1.63866 h -1.51875 v 7.35395 h 1.51875 c 0.91814,0 1.67863,0.76049 1.67863,1.67863 0,0.91822 -0.76049,1.63866 -1.67863,1.63866 h -1.51875 -4.11663 -5.91514 -3.637 -2.03834 c -0.91274,0 -1.63864,-0.72044 -1.63864,-1.63866 0,-0.91814 0.7259,-1.67863 1.63864,-1.67863 h 2.03834 v -7.35395 h -2.03834 c -0.91274,0 -1.63864,-0.72051 -1.63864,-1.63866 0,-0.91822 0.7259,-1.67861 1.63864,-1.67861 z m -39.84727,0.0399 h 5.63538 v 0.0399 c 0.80332,0.13123 1.39884,0.81893 1.39884,1.63866 0,0.83074 -0.59552,1.51306 -1.39884,1.63864 h -5.63538 c -0.90717,0 -1.67862,-0.72049 -1.67862,-1.63864 0,-0.91822 0.77145,-1.67863 1.67862,-1.67863 z m 15.46729,0.23981 c 0.73905,0 1.35183,0.54044 1.35888,1.23898 v 0.0399 c 0,0.70326 -0.61482,1.27894 -1.35888,1.27894 -0.74405,0 -1.31891,-0.57568 -1.31891,-1.27894 0,-0.70324 0.57486,-1.27895 1.31891,-1.27895 z m 5.87519,0 c 0.73904,0 1.3518,0.54044 1.35889,1.23898 v 0.0399 c 0,0.70326 -0.61484,1.27894 -1.35889,1.27894 -0.74405,0 -1.35889,-0.57568 -1.35889,-1.27894 0,-0.70324 0.61484,-1.27895 1.35889,-1.27895 z m 5.8352,0 c 0.73904,0 1.35183,0.54044 1.35888,1.23898 v 0.0399 c 0,0.70326 -0.61482,1.27894 -1.35888,1.27894 -0.74405,0 -1.31891,-0.57568 -1.31891,-1.27894 0,-0.70324 0.57486,-1.27895 1.31891,-1.27895 z m 5.87518,0 c 0.73904,0 1.31185,0.54044 1.31893,1.23898 v 0.0399 c 0,0.70326 -0.57488,1.27894 -1.31893,1.27894 -0.74405,0 -1.35888,-0.57568 -1.35888,-1.27894 0,-0.70324 0.61483,-1.27895 1.35888,-1.27895 z m 10.15167,0.23981 c -0.68314,0 -1.239,0.55583 -1.239,1.23898 0,0.6941 0.55586,1.27895 1.239,1.27895 0.69406,0 1.27893,-0.59027 1.27893,-1.27895 0,-0.68315 -0.57929,-1.23131 -1.27893,-1.23898 z m 10.51136,0 c -0.69968,0 -1.23899,0.55583 -1.23899,1.23898 0,0.6941 0.53395,1.27895 1.23899,1.27895 0.68311,0 1.23898,-0.59027 1.23898,-1.27895 0,-0.68315 -0.55047,-1.23131 -1.23898,-1.23898 z m 11.99015,1.11907 h 3.23733 2.75774 3.23735 l 1.23898,1.239 v 3.23733 l -1.23898,1.23898 h -3.23735 -2.75774 -3.23733 l -1.23899,-1.23872 v -3.23734 l 1.23899,-1.23898 z m -86.8087,0.43965 h 5.67534 v 0.0399 c 0.79254,0.13122 1.39885,0.81894 1.39885,1.63866 0,0.83074 -0.61189,1.51306 -1.39885,1.63864 v 0.0399 h -5.67534 c -0.91814,0 -1.63865,-0.7604 -1.63865,-1.67863 0,-0.91272 0.72591,-1.67862 1.63865,-1.67862 z m 69.58283,0.87927 c -2.23362,0 -4.03666,1.84303 -4.03666,4.07665 0,2.23364 1.80304,4.03669 4.03666,4.03669 2.23366,0 4.03671,-1.80305 4.03671,-4.03669 0,-2.23362 -1.80305,-4.07665 -4.03671,-4.07665 z m 17.94528,0.43965 v 1.91842 h 1.91842 v -1.91842 z m 5.95512,0 v 1.91842 h 1.87845 v -1.91842 z m -70.18237,1.99835 h 14.42815 v 0.08 c 2.38302,0.37154 4.23652,2.41831 4.23652,4.91596 0,2.49782 -1.85366,4.57887 -4.23652,4.95593 v 0.08 h -14.42815 c -2.76558,0 -4.99589,-2.2595 -4.99589,-5.03587 0,-2.76553 2.23031,-4.9959 4.99589,-4.9959 z m -51.75748,1.35889 h 5.03586 c 0.32685,0 0.59951,0.38232 0.59951,0.87926 v 0.15988 c 0,0.49695 -0.27266,0.91924 -0.59951,0.91924 h -5.03586 c -0.32686,0 -0.59951,-0.42229 -0.59951,-0.91924 v -0.15988 c 0,-0.49694 0.27265,-0.87926 0.59951,-0.87926 z m 7.83357,0 h 5.07582 c 0.32685,0 0.55955,0.38232 0.55955,0.87926 v 0.15988 c 0,0.49695 -0.2327,0.91924 -0.55955,0.91924 h -5.07582 c -0.32685,0 -0.59951,-0.42229 -0.59951,-0.91924 v -0.15988 c 0,-0.49694 0.27266,-0.87926 0.59951,-0.87926 z m 20.66302,0 h 5.67534 v 0.0399 c 0.79254,0.12568 1.39884,0.81342 1.39884,1.63866 0,0.82523 -0.61189,1.51817 -1.39884,1.63865 h -5.67534 c -0.91814,0 -1.63866,-0.72044 -1.63866,-1.63865 0,-0.91816 0.7259,-1.67863 1.63866,-1.67863 z m 86.76873,0.79933 h 3.23733 2.75774 3.23735 l 1.23898,1.23899 v 3.23735 l -1.23898,1.23898 h -3.23735 -2.75774 -3.23733 l -1.23899,-1.23873 v -3.23735 l 1.23899,-1.23898 z m 0.71941,1.79853 v 1.87846 h 1.91842 v -1.87846 z m 5.95512,0 v 1.87846 h 1.87845 v -1.87846 z m -29.13608,1.67862 c -0.69122,0 -1.27896,0.54777 -1.27896,1.23898 0,0.69123 0.58774,1.239 1.27896,1.239 0.69123,0 1.23897,-0.54777 1.23897,-1.239 0,-0.69121 -0.54774,-1.23898 -1.23897,-1.23898 z m 10.47139,0 c -0.69121,0 -1.23898,0.54777 -1.23898,1.23898 0,0.69123 0.54777,1.239 1.23898,1.239 0.69122,0 1.23899,-0.54777 1.23899,-1.239 0,-0.69121 -0.54777,-1.23898 -1.23899,-1.23898 z m -74.8585,0.39967 h 5.63537 v 0.0399 c 0.79253,0.13111 1.39883,0.81883 1.39883,1.63864 0,0.83624 -0.61188,1.48946 -1.39883,1.59868 v 0.0399 h -5.63537 c -0.91813,0 -1.67863,-0.7205 -1.67863,-1.63865 0,-0.91815 0.76588,-1.67862 1.67863,-1.67862 z m 47.56092,1.3589 h 5.67536 v 0.0399 c 0.79253,0.13665 1.39885,0.81342 1.39885,1.63866 0,0.82524 -0.60632,1.50742 -1.39885,1.63865 v 0.0399 h -5.67536 c -0.92371,0 -1.63864,-0.75497 -1.63864,-1.67862 0,-0.91814 0.71493,-1.67863 1.63864,-1.67863 z m -70.18235,2.39802 h 11.71039 c 0.96947,0 1.75856,0.74913 1.75856,1.71858 v 1.03915 h 2.71776 v 1.87846 h -2.71776 v 1.83849 h 2.71776 v 1.87846 h -2.71776 v 1.83848 h 2.71776 v 1.87847 h -2.71776 v 0.79934 c 0,0.96947 -0.78909,1.71858 -1.75856,1.71858 h -11.71039 c -0.96947,0 -1.75856,-0.74911 -1.75856,-1.71858 v -0.79934 h -2.71776 v -1.87847 h 2.71776 v -1.83848 h -2.71776 v -1.87846 h 2.71776 v -1.83849 h -2.71776 v -1.87846 h 2.71776 v -1.03915 c 0,-0.96945 0.78909,-1.71858 1.75856,-1.71858 z m 31.81387,5.67534 h 2.438 v 2.87764 h 1.87845 v -2.87764 h 2.438 v 2.87764 h 1.87847 v -2.87764 h 2.43799 v 2.87764 h 1.83848 v -2.87764 h 2.47797 v 2.87764 h 1.8385 v -2.87764 h 2.43799 v 2.87764 h 1.87846 v -2.87764 h 2.438 v 2.87764 h 1.83848 v -2.87764 h 2.43801 v 2.87764 h 1.87845 v -2.87764 h 2.438 v 2.87764 h 1.83849 v -2.87764 h 2.438 v 2.87764 h 1.87845 v -2.87764 h 2.438 v 2.87764 h 1.83849 v -2.87764 h 2.47797 v 2.87764 h 1.83849 v -2.87764 h 2.43799 v 2.87764 h 1.87847 v -2.87764 h 2.43799 v 2.87764 h 1.87846 v -2.87764 h 2.43799 v 2.87764 h 1.83849 v -2.87764 h 2.438 v 2.87764 h 1.87847 v -2.87764 h 2.43799 v 2.87764 h 1.83848 v -2.87764 h 2.43801 v 2.87764 h 1.87846 v -2.87764 h 2.43799 v 2.87764 h 1.83849 c 0.24533,0 0.43963,0.52498 0.43963,1.15904 v 13.06927 c 0,0.63406 -0.1943,1.15905 -0.43963,1.15905 h -1.83849 v 2.79771 h -2.43799 v -2.79771 h -1.87846 v 2.79771 h -2.43801 v -2.79771 h -1.83848 v 2.79771 h -2.43799 v -2.79771 h -1.87847 v 2.79771 h -2.438 v -2.79771 h -1.83849 v 2.79771 h -2.43799 v -2.79771 h -1.87846 v 2.79771 h -2.43799 v -2.79771 h -1.87847 v 2.79771 h -2.43799 v -2.79771 h -1.83849 v 2.79771 h -2.47797 v -2.79771 h -1.83849 v 2.79771 h -2.438 v -2.79771 h -1.87845 v 2.79771 h -2.438 v -2.79771 h -1.83849 v 2.79771 h -2.438 v -2.79771 h -1.87845 v 2.79771 h -2.43801 v -2.79771 h -1.83848 v 2.79771 h -2.438 v -2.79771 h -1.87846 v 2.79771 h -2.43799 v -2.79771 h -1.8385 v 2.79771 h -2.47797 v -2.79771 h -1.83848 v 2.79771 h -2.43799 v -2.79771 h -1.87847 v 2.79771 h -2.438 v -2.79771 h -1.87845 v 2.79771 h -2.438 v -2.79771 h -0.67944 c -0.24533,0 -0.43963,-0.52499 -0.43963,-1.15905 v -13.06927 c 0,-0.63406 0.1943,-1.15904 0.43963,-1.15904 h 0.67944 z m -60.270482,0.39968 h 16.746232 v 1.19901 h 3.87681 v 0.0399 c 0.79794,0.13114 1.39887,0.81341 1.39887,1.63865 0,0.81981 -0.60633,1.46755 -1.39887,1.59869 v 0.0399 h -3.87681 v 2.07829 h 3.87681 v 0.0399 c 0.79794,0.14217 1.39887,0.81341 1.39887,1.63866 0,0.82531 -0.60633,1.50743 -1.39887,1.63866 h -3.87681 v 2.07828 h 3.87681 v 0.0399 c 0.79794,0.13123 1.39887,0.80792 1.39887,1.63865 0,0.83074 -0.60633,1.5238 -1.39887,1.63866 h -3.87681 v 0.5995 H 99.358098 v -1.91842 h -2.87765 v -12.03012 h 2.87765 v -1.9584 z m 25.978652,15.90693 h 14.46813 v 6.59457 h -14.46813 z m -38.848085,3.11744 c -0.264132,0.0866 -0.453429,0.36186 -0.439647,0.63948 v 20.74295 c 3.8e-5,0.33482 0.30467,0.63944 0.639474,0.63947 h 7.234074 c 0.334804,-3e-5 0.639436,-0.30465 0.639474,-0.63947 v -0.51957 h 22.7413 c 0.33482,-4e-5 0.63944,-0.30466 0.63948,-0.63947 v -18.1451 c -4e-5,-0.33483 -0.30466,-0.63943 -0.63948,-0.63947 h -22.7413 v -0.79934 c -3.8e-5,-0.33483 -0.30467,-0.63944 -0.639474,-0.63948 h -7.234074 c -0.03987,-0.004 -0.08024,-0.004 -0.119853,0 -0.02658,-9.3e-4 -0.05341,-9.3e-4 -0.07999,0 z m 47.920635,5.4755 c 4.47364,0 8.11333,3.641 8.11333,8.1533 0,4.51223 -3.63969,8.19328 -8.11333,8.19328 -4.47365,0 -8.11333,-3.68105 -8.11333,-8.19328 0,-4.5123 3.6397,-8.1533 8.11333,-8.1533 z m 18.34493,0.0399 c 4.47364,0 8.11332,3.64099 8.11332,8.1533 0,4.51222 -3.63968,8.19326 -8.11332,8.19326 -4.47362,0 -8.11333,-3.68104 -8.11333,-8.19326 0,-4.51231 3.63971,-8.1533 8.11333,-8.1533 z m 93.56315,2.07829 c 1.98211,0 3.59705,1.60385 3.59705,3.59703 0,1.98757 -1.5983,3.59706 -3.59705,3.59706 -1.97641,0 -3.59703,-1.60941 -3.59703,-3.59706 0,-1.98757 1.61495,-3.59703 3.59703,-3.59703 z m -81.53304,12.86942 h 35.53082 v 5.91515 h -35.53082 z m 41.56587,0 h 35.53083 v 5.91515 h -35.53083 z m -39.72738,1.79853 v 2.27813 h 2.27814 v -2.27813 z m 5.91514,0 v 2.27813 h 2.3181 v -2.27813 z m 5.9551,0 v 2.27813 h 2.27814 v -2.27813 z m 5.91515,0 v 2.27813 h 2.27815 v -2.27813 z m 5.91515,0 v 2.27813 h 2.27813 v -2.27813 z m 5.91513,0 v 2.27813 h 2.27813 v -2.27813 z m 11.9502,0 v 2.27813 h 2.27813 v -2.27813 z m 5.91515,0 v 2.27813 h 2.27813 v -2.27813 z m 5.95508,0 v 2.27813 h 2.27815 v -2.27813 z m 5.8752,0 v 2.27813 h 2.31808 v -2.27813 z m 5.9551,0 v 2.27813 h 2.27814 v -2.27813 z m 5.91513,0 v 2.27813 h 2.27815 v -2.27813 z"
     id="path4346"
     inkscape:connector-curvature="0"
     inkscape:export-filename="C:\Users\Alejandro\Documents\Construcción de Sistemas\caminador\deployment.png"
     inkscape:export-xdpi="300"
     inkscape:export-ydpi="300" />
  <g
     id="g1061"
     transform="matrix(0.86827416,0,0,0.86827416,283.03656,140.77633)"
     inkscape:export-filename="C:\Users\Alejandro\Documents\Construcción de Sistemas\caminador\deployment.png"
     inkscape:export-xdpi="300"
     inkscape:export-ydpi="300">
    <path
       d="M 0,0 H 127.964 V 58.174 H 0 Z"
       fill="#0a73b1"
       id="path10"
       style="fill:#000000" />
    <g
       fill="#28220b"
       class="B"
       id="g28">
      <path
         d="M 38.853,10.002 H 67.607 V 38.586 H 38.853 Z"
         id="path24" />
      <path
         d="M 39.502,24.435 V 10.82 h 27.88 v 27.23 h -27.88 z m 3.056,4.1 c 0.223,-0.314 0.25,-0.747 0.07,-1.082 -0.084,-0.154 -0.084,-0.256 0,-0.307 0.2,-0.116 0.15,-0.712 -0.07,-1.02 -0.167,-0.235 -0.31,-0.274 -1,-0.274 h -0.806 v 2.957 h 0.806 c 0.69,0 0.833,-0.04 1,-0.274 z m 2.695,0.09 c 0,-0.103 -0.11,-0.185 -0.25,-0.185 -0.233,0 -0.25,-0.082 -0.25,-1.232 v -1.232 h -0.5 c -0.374,0 -0.5,0.05 -0.5,0.196 0,0.108 0.113,0.225 0.25,0.26 0.223,0.058 0.25,0.168 0.25,1.036 0,0.89 -0.02,0.97 -0.25,0.97 -0.14,0 -0.25,0.082 -0.25,0.185 0,0.144 0.167,0.185 0.75,0.185 0.583,0 0.75,-0.04 0.75,-0.185 z m 3,-0.876 c 0,-0.952 -0.02,-1.034 -0.25,-1.034 -0.22,0 -0.25,0.082 -0.25,0.674 0,0.618 -0.03,0.7 -0.36,0.858 -0.43,0.22 -0.516,0.157 -0.516,-0.367 0,-0.65 -0.145,-1.165 -0.328,-1.165 -0.13,0 -0.172,0.21 -0.172,0.852 0,1.24 0.002,1.243 1.013,1.228 l 0.862,-0.013 v -1.034 z m 2.75,0.876 c 0,-0.133 -0.138,-0.185 -0.5,-0.185 -0.554,0 -0.885,-0.097 -0.885,-0.26 0,-0.06 0.31,-0.1 0.688,-0.1 h 0.688 v -0.452 c 0,-0.616 -0.292,-0.903 -0.916,-0.903 -0.736,0 -0.96,0.257 -0.96,1.103 0,0.383 0.068,0.762 0.15,0.843 0.082,0.081 0.492,0.148 0.938,0.148 0.617,0 0.788,-0.04 0.788,-0.185 z m 2.727,-0.216 c 0.044,-0.377 -0.215,-0.466 -0.47,-0.16 -0.266,0.316 -0.506,0.083 -0.506,-0.49 0,-0.512 0.017,-0.535 0.406,-0.572 0.26,-0.025 0.406,-0.105 0.406,-0.223 0,-0.118 -0.146,-0.2 -0.406,-0.223 -0.337,-0.032 -0.406,-0.1 -0.406,-0.34 0,-0.218 -0.068,-0.3 -0.25,-0.3 -0.172,0 -0.25,0.082 -0.25,0.264 a 0.62,0.62 0 0 1 -0.219,0.431 c -0.208,0.16 -0.208,0.176 0,0.335 0.156,0.12 0.22,0.343 0.22,0.776 0,0.765 0.16,0.925 0.874,0.88 0.51,-0.033 0.567,-0.068 0.603,-0.375 z m 2.724,0.1 c 0.266,-0.4 0.175,-1.39 -0.15,-1.623 -0.346,-0.25 -1.135,-0.202 -1.427,0.085 -0.308,0.304 -0.34,1.175 -0.055,1.574 0.156,0.22 0.316,0.274 0.8,0.274 0.52,0 0.647,-0.048 0.822,-0.3 z m 2.696,0.107 c 0.167,-0.15 0.23,-0.38 0.23,-0.855 0,-0.767 -0.264,-1.035 -1.02,-1.035 -0.655,0 -1.03,0.475 -0.946,1.2 0.033,0.288 0.13,0.607 0.215,0.708 0.216,0.257 1.226,0.244 1.522,-0.02 z m 2.83,0.056 c 0.192,-0.2 0.195,-0.59 0.004,-0.59 -0.08,0 -0.246,0.09 -0.367,0.197 -0.32,0.286 -0.487,0.11 -0.487,-0.512 0,-0.52 0.017,-0.547 0.362,-0.547 0.2,0 0.392,-0.078 0.43,-0.173 0.092,-0.236 -0.02,-0.32 -0.428,-0.32 -0.263,0 -0.355,-0.066 -0.385,-0.276 -0.06,-0.4 -0.478,-0.446 -0.478,-0.04 0,0.2 -0.07,0.317 -0.188,0.317 -0.104,0 -0.188,0.1 -0.188,0.246 0,0.146 0.083,0.246 0.188,0.246 0.143,0 0.188,0.155 0.188,0.653 0,0.77 0.142,0.95 0.75,0.95 0.248,0 0.518,-0.067 0.6,-0.148 z m 1.525,-0.485 c 0,-0.66 0.2,-0.956 0.656,-0.965 0.18,-0.003 0.22,0.106 0.22,0.602 0,0.72 0.1,0.996 0.326,0.996 0.133,0 0.174,-0.214 0.174,-0.91 0,-1.08 -0.13,-1.25 -0.876,-1.152 -0.497,0.066 -0.5,0.065 -0.5,-0.354 0,-0.337 -0.05,-0.42 -0.25,-0.42 -0.236,0 -0.25,0.082 -0.25,1.417 0,1.335 0.014,1.417 0.25,1.417 0.218,0 0.25,-0.082 0.25,-0.633 z M 41.7,22.895 c 0.03,0 0.052,-0.47 0.052,-1.047 V 20.8 h 1.75 v 0.97 c 0,1.016 0.144,1.327 0.547,1.174 0.178,-0.067 0.203,-0.378 0.203,-2.528 v -2.45 h -0.3 c -0.38,0 -0.45,0.192 -0.45,1.242 v 0.852 h -1.74 l -0.036,-1.016 c -0.035,-0.993 -0.044,-1.016 -0.35,-1.016 h -0.313 l -0.034,2.394 c -0.035,2.45 0.01,2.694 0.45,2.533 0.092,-0.033 0.2,-0.06 0.22,-0.06 z m 6.98,0.048 c 0.11,-0.04 0.198,-0.207 0.198,-0.37 0,-0.278 -0.043,-0.295 -0.74,-0.295 -0.865,0 -0.94,-0.057 -1.436,-1.083 l -0.364,-0.754 0.853,-1.675 0.813,-0.062 c 0.776,-0.06 0.814,-0.077 0.852,-0.4 l 0.04,-0.34 h -0.987 c -0.862,0 -1.02,0.035 -1.25,0.277 -0.37,0.4 -1.03,1.812 -1.03,2.22 0,0.5 0.95,2.295 1.286,2.428 0.32,0.127 1.477,0.16 1.767,0.05 z m 9.028,10e-4 c 0.448,-0.12 0.547,-0.568 0.545,-2.49 -0.002,-2.478 0.037,-2.418 -1.627,-2.463 -1.796,-0.05 -1.747,-0.12 -1.747,2.514 0,2.524 -0.007,2.513 1.53,2.5 0.567,-10e-4 1.15,-0.033 1.297,-0.072 z m 4.867,-0.1 c 0.2,-0.15 0.243,-0.328 0.243,-1.304 0,-1.357 -0.1,-1.478 -1.212,-1.478 H 60.88 v -1.355 h 0.86 c 0.903,0 1.215,-0.158 1.067,-0.54 -0.065,-0.167 -0.293,-0.2 -1.377,-0.2 h -1.3 V 20.8 h 1.875 v 1.478 h -0.56 a 5.36,5.36 0 0 1 -1.132,-0.151 c -0.483,-0.127 -0.59,-0.123 -0.687,0.03 -0.17,0.267 -0.088,0.404 0.39,0.637 0.552,0.27 2.21,0.3 2.56,0.047 z m -9.51,-2.35 v -0.37 l -2.313,-0.07 v 0.354 c 0,0.195 0.04,0.393 0.088,0.44 0.048,0.047 0.57,0.07 1.156,0.05 l 1.07,-0.035 v -0.37 z"
         id="path26" />
    </g>
    <g
       fill="#222b00"
       class="B"
       id="g34">
      <path
         d="M 73.858,9.88 H 95.486 V 38.464 H 73.858 Z"
         id="path30" />
      <path
         d="M 73.882,24.558 V 10.82 H 95 V 38.295 H 73.882 Z"
         id="path32" />
    </g>
    <path
       d="m 38.853,9.756 h 28.63 V 38.71 h -28.63 z"
       class="B"
       id="path36" />
    <path
       d="M 39.45,24.434 V 10.758 H 67.33 V 38.1 H 39.45 Z m 2.963,4.25 c 0.24,-0.166 0.267,-0.298 0.264,-1.307 -0.005,-1.424 -0.132,-1.588 -1.226,-1.588 h -0.75 v 3.08 h 0.722 c 0.44,0 0.827,-0.072 1,-0.185 z m 2.85,-0.062 c 0,-0.102 -0.125,-0.202 -0.277,-0.224 -0.26,-0.037 -0.28,-0.107 -0.313,-1.232 L 44.637,25.973 H 44.2 c -0.5,0 -0.63,0.343 -0.156,0.4 0.265,0.037 0.28,0.097 0.28,1.016 0,0.885 -0.023,0.977 -0.243,0.977 -0.133,0 -0.277,0.055 -0.32,0.123 -0.164,0.262 0.108,0.38 0.792,0.345 0.53,-0.027 0.708,-0.083 0.708,-0.22 z m 2.32,0.12 c 0.167,-0.088 0.242,-0.088 0.242,0 0,0.07 0.084,0.128 0.188,0.128 0.152,0 0.188,-0.198 0.188,-1.04 0,-0.572 -0.053,-1.073 -0.12,-1.112 -0.18,-0.1 -0.38,0.352 -0.38,0.868 0,0.478 -0.252,0.78 -0.656,0.788 -0.186,0.003 -0.22,-0.114 -0.22,-0.784 0,-0.562 -0.05,-0.807 -0.175,-0.854 -0.278,-0.105 -0.325,0.027 -0.325,0.914 0,0.593 0.057,0.9 0.196,1.027 0.225,0.222 0.7,0.252 1.062,0.066 z m 3.43,-0.12 c 0,-0.135 -0.17,-0.195 -0.625,-0.223 -0.903,-0.055 -1.025,-0.27 -0.152,-0.27 0.666,0 0.715,-0.02 0.794,-0.33 0.125,-0.5 -0.184,-0.94 -0.742,-1.078 -0.4,-0.096 -0.523,-0.074 -0.8,0.136 -0.277,0.21 -0.348,0.36 -0.38,0.88 -0.054,0.896 0.23,1.16 1.2,1.1 0.534,-0.028 0.713,-0.083 0.713,-0.222 z m 2.616,0.053 c 0.273,-0.27 0.246,-0.546 -0.054,-0.546 -0.138,0 -0.25,0.06 -0.25,0.132 0,0.072 -0.127,0.114 -0.28,0.092 -0.24,-0.034 -0.287,-0.125 -0.32,-0.625 l -0.038,-0.585 h 0.454 c 0.364,0 0.445,-0.042 0.412,-0.216 -0.027,-0.14 -0.18,-0.23 -0.44,-0.254 -0.3,-0.03 -0.407,-0.105 -0.437,-0.308 -0.05,-0.344 -0.243,-0.346 -0.415,-0.006 a 2.88,2.88 0 0 1 -0.299,0.461 c -0.14,0.165 -0.133,0.2 0.036,0.273 0.146,0.055 0.202,0.236 0.202,0.652 0,0.76 0.262,1.123 0.8,1.123 0.232,0 0.5,-0.087 0.618,-0.194 z m 2.67,0.002 c 0.227,-0.157 0.278,-0.3 0.276,-0.832 -0.001,-0.352 -0.043,-0.7 -0.094,-0.775 -0.286,-0.42 -1.18,-0.5 -1.6,-0.157 -0.25,0.204 -0.222,1.447 0.04,1.73 0.262,0.283 1.007,0.298 1.4,0.034 z m 2.8,-0.012 c 0.283,-0.253 0.327,-1.533 0.06,-1.752 -0.43,-0.352 -1.326,-0.265 -1.6,0.157 -0.05,0.075 -0.093,0.423 -0.094,0.775 -0.002,0.523 0.05,0.675 0.276,0.832 0.364,0.25 1.08,0.245 1.37,-0.012 z m 2.908,-0.068 c 0.25,-0.352 0.053,-0.592 -0.306,-0.372 -0.486,0.3 -0.624,0.196 -0.624,-0.465 v -0.616 h 0.438 c 0.3,0 0.438,-0.058 0.438,-0.172 0,-0.187 -0.262,-0.32 -0.627,-0.32 -0.144,0 -0.246,-0.104 -0.27,-0.277 -0.05,-0.343 -0.396,-0.367 -0.455,-0.03 -0.024,0.136 -0.137,0.32 -0.252,0.408 -0.194,0.15 -0.193,0.173 0.01,0.322 0.158,0.116 0.22,0.333 0.22,0.784 0,0.744 0.215,1.012 0.814,1.012 0.293,0 0.48,-0.083 0.615,-0.272 z m 1.446,-0.402 c 0,-0.62 0.03,-0.7 0.362,-0.86 0.478,-0.244 0.6,-0.083 0.66,0.798 0.03,0.5 0.087,0.674 0.226,0.674 0.15,0 0.186,-0.18 0.18,-0.9 -0.01,-1.188 -0.3,-1.442 -1.2,-1.064 -0.184,0.076 -0.22,0.023 -0.22,-0.333 0,-0.5 -0.102,-0.638 -0.332,-0.45 -0.12,0.098 -0.168,0.493 -0.168,1.395 0,1.275 0.035,1.422 0.333,1.422 0.12,0 0.167,-0.195 0.167,-0.674 z M 41.75,22.76 c 0.042,-0.107 0.076,-0.578 0.076,-1.047 v -0.852 h 1.75 v 2.1 l 0.688,-0.078 0.034,-2.354 c 0.036,-2.47 -0.02,-2.75 -0.518,-2.563 -0.165,0.063 -0.203,0.27 -0.203,1.1 V 20.1 h -1.75 v -0.87 c 0,-0.916 -0.14,-1.347 -0.438,-1.347 -0.098,0 -0.237,0.107 -0.308,0.238 -0.138,0.254 -0.185,4.282 -0.054,4.618 0.042,0.107 0.204,0.195 0.362,0.195 0.158,0 0.32,-0.088 0.362,-0.195 z m 7.182,-0.098 c 0.064,-0.33 -0.2,-0.442 -1,-0.444 L 47.215,22.216 46.838,21.48 c -0.207,-0.405 -0.377,-0.85 -0.377,-1 0,-0.363 0.7,-1.68 0.942,-1.77 0.112,-0.042 0.482,-0.077 0.823,-0.077 0.665,0 0.898,-0.213 0.6,-0.556 -0.193,-0.23 -1.426,-0.246 -1.874,-0.026 -0.455,0.224 -1.24,1.74 -1.246,2.402 -0.004,0.6 0.7,2.138 1.088,2.36 0.122,0.07 0.642,0.116 1.157,0.1 0.804,-0.025 0.943,-0.062 0.98,-0.26 z m 9.075,0.1 c 0.164,-0.16 0.196,-0.552 0.196,-2.334 0,-2.592 0.044,-2.524 -1.625,-2.524 -1.669,0 -1.625,-0.075 -1.625,2.57 0,1.536 0.045,2.23 0.15,2.334 0.24,0.237 2.656,0.2 2.904,-0.046 z m 4.626,0 c 0.147,-0.145 0.196,-0.45 0.196,-1.223 0,-1.288 -0.103,-1.417 -1.134,-1.417 h -0.74 v -1.468 l 0.905,-0.036 c 0.77,-0.03 0.912,-0.07 0.95,-0.268 0.07,-0.36 -0.2,-0.442 -1.45,-0.444 l -1.156,-0.002 v 2.957 h 1.875 v 1.376 l -0.844,-0.064 -1.22,-0.103 c -0.305,-0.03 -0.382,0.01 -0.414,0.23 -0.063,0.438 0.492,0.644 1.75,0.65 0.825,0.004 1.132,-0.042 1.28,-0.2 z m -9.578,-2.3 -0.04,-0.4 h -1.05 c -1.104,0 -1.402,0.146 -1.225,0.6 0.065,0.166 0.278,0.202 1.215,0.202 h 1.137 l -0.04,-0.4 z M 0.222,1.008 h 25.63 v 53.35 H 0.222 Z"
       class="B"
       id="path38" />
    <path
       d="M 1.194,28.682 V 6.012 h 24.754 v 1.602 h 1.572 c 1.84,0 1.93,-0.044 1.93,-0.977 V 6.012 h 1.875 v 1.602 h 1.634 c 1.91,0 1.99,-0.04 1.99,-0.977 V 6.012 h 0.625 c 0.472,0 0.625,0.045 0.625,0.185 0,0.102 0.084,0.185 0.188,0.185 0.117,0 0.188,0.116 0.188,0.308 0,0.17 0.056,0.308 0.125,0.308 0.069,0 0.125,0.14 0.125,0.308 v 0.308 h 1.56 c 1.884,0 2.064,-0.09 2.064,-1.013 v -0.59 h 0.625 c 0.472,0 0.625,0.045 0.625,0.185 0,0.102 0.084,0.185 0.188,0.185 0.132,0 0.188,0.13 0.188,0.44 0,0.722 0.165,0.792 1.865,0.792 1.824,0 2.01,-0.094 2.01,-1.013 V 6.01 h 0.625 c 0.472,0 0.625,0.045 0.625,0.185 0,0.102 0.056,0.185 0.125,0.185 0.069,0 0.125,0.222 0.125,0.493 0,0.356 0.052,0.493 0.188,0.493 0.103,0 0.188,0.055 0.188,0.123 0,0.076 0.607,0.123 1.572,0.123 1.84,0 1.93,-0.044 1.93,-0.977 V 6.01 h 1.247 l 0.08,0.493 c 0.044,0.27 0.13,0.493 0.19,0.493 0.06,0 0.11,0.06 0.11,0.132 0,0.393 0.36,0.484 1.93,0.484 0.964,0 1.572,-0.048 1.572,-0.123 0,-0.068 0.084,-0.123 0.188,-0.123 0.144,0 0.188,-0.157 0.188,-0.678 V 6.01 h 1.25 v 0.603 c 0,0.54 0.032,0.61 0.313,0.68 0.172,0.043 0.313,0.132 0.313,0.198 0,0.073 0.624,0.12 1.56,0.12 1.884,0 2.064,-0.09 2.064,-1.013 v -0.59 h 0.548 c 0.6,0 0.697,0.136 0.7,0.89 10e-4,0.255 0.077,0.355 0.314,0.414 0.172,0.043 0.313,0.127 0.313,0.187 0,0.06 0.647,0.1 1.438,0.1 0.875,0 1.438,-0.048 1.438,-0.123 0,-0.068 0.14,-0.123 0.313,-0.123 0.295,0 0.313,-0.037 0.313,-0.678 V 5.997 h 0.61 c 0.658,0 0.76,0.118 0.763,0.885 0.001,0.22 0.084,0.356 0.252,0.41 0.138,0.043 0.25,0.13 0.25,0.193 0,0.063 0.656,0.115 1.5,0.115 0.825,0 1.5,-0.05 1.5,-0.1 0,-0.05 0.14,-0.145 0.313,-0.187 0.28,-0.07 0.313,-0.14 0.313,-0.69 V 6.009 h 1.25 v 0.614 c 0,0.552 0.03,0.62 0.313,0.69 0.172,0.043 0.313,0.127 0.313,0.187 0,0.06 0.675,0.1 1.5,0.1 0.845,0 1.5,-0.05 1.5,-0.115 0,-0.065 0.113,-0.15 0.25,-0.193 0.167,-0.052 0.25,-0.187 0.252,-0.41 0.004,-0.692 0.126,-0.885 0.56,-0.885 0.434,0 0.557,0.193 0.56,0.885 10e-4,0.22 0.084,0.356 0.252,0.41 0.138,0.043 0.25,0.13 0.25,0.193 0,0.063 0.656,0.115 1.5,0.115 0.844,0 1.5,-0.05 1.5,-0.115 0,-0.065 0.113,-0.15 0.25,-0.193 0.167,-0.052 0.25,-0.187 0.252,-0.41 0.004,-0.767 0.105,-0.885 0.763,-0.885 h 0.61 v 0.614 c 0,0.552 0.03,0.62 0.313,0.69 0.172,0.043 0.313,0.127 0.313,0.187 0,0.06 0.675,0.1 1.5,0.1 0.845,0 1.5,-0.05 1.5,-0.115 0,-0.065 0.113,-0.15 0.25,-0.193 0.167,-0.052 0.25,-0.187 0.252,-0.41 0.004,-0.743 0.114,-0.885 0.686,-0.885 0.572,0 0.682,0.14 0.686,0.89 0.001,0.255 0.077,0.355 0.314,0.414 0.172,0.043 0.313,0.127 0.313,0.187 0,0.06 0.647,0.1 1.438,0.1 0.875,0 1.438,-0.048 1.438,-0.123 0,-0.068 0.084,-0.123 0.188,-0.123 0.135,0 0.188,-0.137 0.188,-0.493 0,-0.27 0.056,-0.493 0.125,-0.493 0.069,0 0.125,-0.083 0.125,-0.185 0,-0.155 0.264,-0.185 1.625,-0.185 1.361,0 1.625,0.03 1.625,0.185 0,0.102 0.056,0.185 0.125,0.185 0.069,0 0.125,0.4 0.125,0.924 V 8.192 H 97.59 c -0.472,0 -0.625,0.045 -0.625,0.185 0,0.102 -0.084,0.185 -0.188,0.185 -0.104,0 -0.188,0.083 -0.188,0.185 0,0.102 -0.056,0.185 -0.125,0.185 -0.075,0 -0.125,0.513 -0.125,1.294 0,1.603 0.122,1.787 1.188,1.787 h 0.688 v 1.602 H 97.59 c -0.344,0 -0.625,0.055 -0.625,0.123 0,0.068 -0.084,0.123 -0.188,0.123 -0.104,0 -0.188,0.083 -0.188,0.185 0,0.102 -0.056,0.185 -0.125,0.185 -0.076,0 -0.125,0.554 -0.125,1.417 V 17.1 h 1.875 v 0.933 c 0,1.136 -0.115,1.285 -0.99,1.285 -0.48,0 -0.634,0.045 -0.634,0.185 0,0.102 -0.056,0.185 -0.125,0.185 -0.076,0 -0.125,0.554 -0.125,1.417 v 1.417 h 0.813 c 0.64,0 0.813,0.04 0.813,0.185 0,0.102 0.056,0.185 0.125,0.185 0.069,0 0.125,0.4 0.125,0.924 v 0.924 h -0.813 c -0.64,0 -0.813,0.04 -0.813,0.185 0,0.102 -0.056,0.185 -0.125,0.185 -0.075,0 -0.125,0.513 -0.125,1.294 0,1.603 0.122,1.787 1.188,1.787 h 0.688 v 1.848 h -0.813 c -0.64,0 -0.813,0.04 -0.813,0.185 0,0.102 -0.056,0.185 -0.125,0.185 -0.076,0 -0.125,0.534 -0.125,1.355 0,1.672 0.113,1.848 1.188,1.848 h 0.688 v 1.848 h -0.813 c -0.64,0 -0.813,0.04 -0.813,0.185 0,0.102 -0.056,0.185 -0.125,0.185 -0.076,0 -0.125,0.554 -0.125,1.417 0,0.925 0.046,1.417 0.134,1.417 0.074,0 0.218,0.083 0.32,0.185 0.116,0.114 0.423,0.185 0.804,0.185 h 0.616 v 0.616 c 0,0.34 -0.056,0.616 -0.125,0.616 -0.069,0 -0.125,0.083 -0.125,0.185 0,0.133 -0.14,0.185 -0.5,0.185 -0.275,0 -0.5,0.055 -0.5,0.123 0,0.068 -0.06,0.123 -0.134,0.123 -0.388,0 -0.49,0.362 -0.49,1.715 0,1.71 0.092,1.858 1.153,1.858 h 0.722 v 0.563 c 0,0.68 -0.205,0.915 -0.804,0.915 -0.314,0 -0.446,0.055 -0.446,0.185 0,0.102 -0.06,0.185 -0.134,0.185 -0.388,0 -0.49,0.362 -0.49,1.716 0,0.827 0.05,1.364 0.125,1.364 0.07,0 0.125,0.083 0.125,0.185 0,0.145 0.174,0.185 0.813,0.185 h 0.813 v 1.602 h -3.75 v -0.792 c 0,-0.54 -0.06,-0.85 -0.188,-0.977 -0.213,-0.2 -0.248,-0.45 -0.065,-0.45 0.067,0 0.158,-0.14 0.2,-0.308 0.042,-0.168 0.13,-0.308 0.2,-0.308 0.07,0 0.11,-1.333 0.11,-3.02 l -0.125,-3.02 c -0.07,0 -0.125,-0.083 -0.125,-0.185 0,-0.15 -0.207,-0.185 -1.115,-0.185 -0.613,0 -1.204,0.034 -1.313,0.075 -0.174,0.066 -0.198,0.48 -0.198,3.388 0,2.863 0.025,3.313 0.188,3.313 0.103,0 0.188,0.055 0.188,0.123 0,0.068 -0.2,0.123 -0.447,0.123 -0.328,0 -0.545,0.096 -0.813,0.36 -0.324,0.32 -0.365,0.446 -0.365,1.11 v 0.75 h -1.375 v -0.8 c 0,-0.452 -0.055,-0.8 -0.125,-0.8 -0.07,0 -0.125,-0.083 -0.125,-0.185 0,-0.102 -0.056,-0.185 -0.125,-0.185 -0.069,0 -0.125,-0.055 -0.125,-0.123 0,-0.068 0.333,-0.123 0.75,-0.123 0.417,0 0.75,-0.055 0.75,-0.123 0,-0.068 0.08,-0.123 0.18,-0.123 0.1,0 0.267,-0.087 0.375,-0.194 0.168,-0.165 0.196,-0.632 0.196,-3.203 0,-2.928 -0.007,-3 -0.25,-3 -0.14,0 -0.25,-0.082 -0.25,-0.185 0,-0.152 -0.222,-0.185 -1.25,-0.185 -1.028,0 -1.25,0.033 -1.25,0.185 0,0.102 -0.056,0.185 -0.125,0.185 -0.069,0 -0.136,0.48 -0.15,1.14 l -0.025,1.14 -0.042,-1.016 c -0.023,-0.56 -0.096,-1.016 -0.162,-1.016 -0.073,0 -0.12,1.13 -0.12,2.895 l 0.125,2.895 c 0.07,0 0.136,-0.417 0.15,-0.955 l 0.025,-0.955 0.043,0.955 c 0.023,0.525 0.096,0.955 0.162,0.955 0.066,0 0.12,0.083 0.12,0.185 0,0.102 0.084,0.185 0.188,0.185 0.104,0 0.188,0.055 0.188,0.123 0,0.068 -0.42,0.123 -1.01,0.123 -0.988,0 -1.007,-0.005 -0.92,-0.277 0.048,-0.152 0.136,-0.296 0.196,-0.318 0.156,-0.06 0.14,-6.058 -0.017,-6.058 -0.07,0 -0.125,-0.083 -0.125,-0.185 0,-0.276 -2.273,-0.268 -2.554,0.01 -0.168,0.166 -0.196,0.644 -0.196,3.338 0,3.04 0.008,3.147 0.25,3.21 0.138,0.035 0.25,0.113 0.25,0.173 0,0.06 0.338,0.11 0.75,0.11 0.412,0 0.75,0.055 0.75,0.123 0,0.068 -0.056,0.123 -0.125,0.123 -0.069,0 -0.125,0.083 -0.125,0.185 0,0.102 -0.084,0.185 -0.188,0.185 -0.147,0 -0.188,0.17 -0.188,0.8 v 0.8 h -1.375 v -0.8 c 0,-0.452 -0.055,-0.8 -0.125,-0.8 -0.07,0 -0.125,-0.06 -0.125,-0.132 0,-0.263 -0.367,-0.484 -0.804,-0.484 -0.513,0 -0.596,-0.183 -0.134,-0.297 l 0.313,-0.077 v -3.14 c 0,-2.708 -0.026,-3.14 -0.188,-3.14 -0.103,0 -0.188,-0.083 -0.188,-0.185 0,-0.152 -0.222,-0.185 -1.25,-0.185 -1.028,0 -1.25,0.033 -1.25,0.185 0,0.102 -0.056,0.185 -0.125,0.185 -0.069,0 -0.136,0.48 -0.15,1.14 l -0.025,1.14 -0.042,-1.016 c -0.023,-0.56 -0.096,-1.016 -0.162,-1.016 -0.073,0 -0.12,1.13 -0.12,2.895 l 0.125,2.895 c 0.07,0 0.136,-0.438 0.15,-1.016 l 0.025,-1.016 0.042,1.016 c 0.023,0.56 0.096,1.016 0.162,1.016 0.066,0 0.12,0.083 0.12,0.185 0,0.102 0.084,0.185 0.188,0.185 0.24,0 0.24,0.177 0,0.414 -0.103,0.102 -0.188,0.244 -0.188,0.317 0,0.073 -0.056,0.132 -0.125,0.132 -0.069,0 -0.125,0.35 -0.125,0.8 v 0.8 H 78.58 v -0.8 c 0,-0.452 -0.054,-0.8 -0.125,-0.8 -0.071,0 -0.125,-0.06 -0.125,-0.132 0,-0.383 -0.367,-0.484 -1.75,-0.484 -1.383,0 -1.75,0.1 -1.75,0.484 0,0.073 -0.084,0.132 -0.188,0.132 -0.147,0 -0.188,0.17 -0.188,0.8 v 0.8 h -1.25 v -0.75 c 0,-0.663 -0.042,-0.8 -0.365,-1.11 -0.36,-0.355 -0.385,-0.36 -1.76,-0.36 -1.384,0 -1.75,0.1 -1.75,0.484 0,0.073 -0.056,0.132 -0.125,0.132 -0.069,0 -0.125,0.35 -0.125,0.8 v 0.8 h -1.375 v -0.75 c 0,-0.663 -0.042,-0.8 -0.365,-1.11 -0.36,-0.355 -0.386,-0.36 -1.75,-0.36 -0.9,0 -1.385,0.046 -1.385,0.132 0,0.17 -0.318,0.484 -0.49,0.484 -0.082,0 -0.134,0.313 -0.134,0.8 v 0.8 h -1.25 v -0.796 c 0,-0.564 -0.056,-0.842 -0.192,-0.955 l -0.366,-0.313 c -0.225,-0.2 -3.068,-0.22 -3.068,-0.022 0,0.17 -0.318,0.484 -0.49,0.484 -0.082,0 -0.134,0.313 -0.134,0.8 v 0.8 h -1.25 v -0.924 c 0,-0.74 -0.038,-0.924 -0.188,-0.924 -0.103,0 -0.188,-0.083 -0.188,-0.185 0,-0.154 -0.25,-0.185 -1.5,-0.185 -1.334,0 -1.528,0.027 -1.75,0.246 -0.138,0.136 -0.25,0.357 -0.25,0.493 0,0.136 -0.056,0.246 -0.125,0.246 -0.069,0 -0.125,0.277 -0.125,0.616 v 0.616 H 51.329 V 50.5 c 0,-0.698 -0.048,-0.91 -0.25,-1.11 -0.202,-0.2 -0.417,-0.246 -1.125,-0.246 -0.897,0 -1.045,-0.097 -0.688,-0.45 0.16,-0.157 0.188,-0.785 0.188,-4.11 l -0.076,-4.12 c -0.068,-0.174 -0.713,-0.195 -6,-0.195 H 37.45 v 4.12 l 0.188,4.303 c 0.3,0.296 0.22,0.45 -0.237,0.45 -0.433,0 -0.576,0.155 -0.576,0.626 0,0.13 -0.056,0.236 -0.125,0.236 -0.069,0 -0.125,0.305 -0.125,0.678 V 51.36 H 34.95 v -0.8 c 0,-0.44 -0.05,-0.8 -0.11,-0.8 -0.06,0 -0.147,-0.14 -0.2,-0.308 -0.078,-0.308 -0.08,-0.308 -1.625,-0.308 -1.79,0 -1.7,-0.07 -1.7,1.304 v 0.914 H 29.45 v -0.8 c 0,-0.44 -0.05,-0.8 -0.11,-0.8 -0.06,0 -0.147,-0.14 -0.2,-0.308 -0.078,-0.308 -0.08,-0.308 -1.64,-0.308 h -1.56 v 2.218 H 5.07 V 49.75 h 4.635 c 4.954,0 4.992,-0.005 4.992,-0.607 0,-0.14 0.056,-0.255 0.125,-0.255 0.08,0 0.125,-1.006 0.125,-2.772 l -0.125,-2.772 c -0.07,0 -0.125,-0.33 -0.125,-0.74 v -0.74 h -0.5 c -0.36,0 -0.5,-0.05 -0.5,-0.185 0,-0.16 -0.528,-0.185 -4,-0.185 -2.584,0 -4,-0.044 -4,-0.123 0,-0.068 -0.084,-0.123 -0.188,-0.123 -0.104,0 -0.188,-0.083 -0.188,-0.185 0,-0.102 -0.056,-0.185 -0.125,-0.185 -0.069,0 -0.125,-0.14 -0.125,-0.308 0,-0.192 0.07,-0.308 0.188,-0.308 0.103,0 0.188,0.055 0.188,0.123 0,0.08 1.354,0.123 3.813,0.123 l 3.813,-0.123 c 0,-0.07 0.354,-0.123 0.813,-0.123 0.64,0 0.813,-0.04 0.813,-0.185 0,-0.102 0.056,-0.185 0.125,-0.185 0.069,0 0.125,-0.222 0.125,-0.493 0,-0.356 0.052,-0.493 0.188,-0.493 0.16,0 0.188,-0.376 0.188,-2.65 0,-2.274 -0.027,-2.65 -0.188,-2.65 -0.117,0 -0.188,-0.116 -0.188,-0.308 0,-0.17 -0.056,-0.308 -0.125,-0.308 -0.069,0 -0.125,-0.166 -0.125,-0.37 v -0.37 h -0.813 c -0.458,0 -0.813,-0.054 -0.813,-0.123 0,-0.08 -1.417,-0.123 -4,-0.123 -2.362,0 -4,-0.047 -4,-0.114 0,-0.067 1.894,-0.13 4.584,-0.154 l 4.636,-0.194 c 0.03,-0.085 0.132,-0.154 0.23,-0.154 0.106,0 0.177,-0.124 0.177,-0.308 0,-0.17 0.056,-0.308 0.125,-0.308 0.069,0 0.125,-0.083 0.125,-0.185 0,-0.102 0.084,-0.185 0.188,-0.185 0.16,0 0.188,-0.397 0.188,-2.834 0,-2.437 -0.026,-2.834 -0.188,-2.834 -0.135,0 -0.188,-0.137 -0.188,-0.493 0,-0.27 -0.056,-0.493 -0.125,-0.493 -0.069,0 -0.125,-0.14 -0.125,-0.308 0,-0.246 -0.063,-0.308 -0.313,-0.308 -0.172,0 -0.313,-0.055 -0.313,-0.123 0,-0.08 -1.49,-0.124 -4.22,-0.125 l -4.5,-0.076 c -0.156,-0.04 -0.28,-0.17 -0.28,-0.3 0,-0.33 0.524,-0.37 5.095,-0.37 l 4.157,-0.125 c 0,-0.068 0.084,-0.123 0.188,-0.123 0.104,0 0.188,-0.083 0.188,-0.185 0,-0.102 0.056,-0.185 0.125,-0.185 0.069,0 0.125,-0.083 0.125,-0.185 0,-0.102 0.084,-0.185 0.188,-0.185 0.162,0 0.188,-0.425 0.188,-3.1 v -3.1 l -0.73,-0.72 H 10.01 c -5.07,0 -4.94,0.02 -4.94,-0.792 v -0.44 h 6.438 l 6.438,-0.185 c 0,-0.102 0.056,-0.185 0.125,-0.185 0.076,0 0.125,-0.537 0.125,-1.364 0,-1.113 -0.04,-1.402 -0.2,-1.57 C 17.804,9.504 17.133,9.487 10.161,9.487 L 2.484,9.641 c -0.03,0.085 -0.132,0.154 -0.23,0.154 -0.15,0 -0.177,0.58 -0.177,3.635 v 3.67 h 9.376 v 1.206 l -8.855,0.087 -0.26,0.296 c -0.25,0.286 -0.26,0.424 -0.26,3.973 l 0.177,3.677 c 0.097,0 0.2,0.07 0.23,0.154 0.04,0.118 1.08,0.162 4.51,0.19 l 4.46,0.035 v 1.223 H 7 l -4.657,0.207 c -0.185,0.182 -0.214,0.62 -0.247,3.635 l -0.037,3.428 h 2.13 c 1.337,0 2.13,0.046 2.13,0.123 0,0.068 0.084,0.123 0.188,0.123 0.104,0 0.188,-0.055 0.188,-0.123 0,-0.078 0.875,-0.123 2.375,-0.123 h 2.375 v 1.848 h -4.5 l -4.5,0.185 c 0,0.102 -0.084,0.185 -0.188,0.185 -0.162,0 -0.188,0.486 -0.188,3.635 0,3.149 0.025,3.635 0.188,3.635 0.117,0 0.188,0.116 0.188,0.308 v 0.308 h 9 V 46.67 H 6.99 c -4.405,0 -4.457,0.003 -4.688,0.265 -0.208,0.236 -0.233,0.49 -0.233,2.34 v 2.076 H 1.194 V 28.681 Z M 63.83,48.334 c 0,-0.102 0.06,-0.185 0.134,-0.185 0.074,0 0.218,-0.083 0.32,-0.185 0.143,-0.14 0.498,-0.185 1.482,-0.185 0.984,0 1.34,0.044 1.482,0.185 0.103,0.102 0.248,0.185 0.32,0.185 0.072,0 0.134,0.083 0.134,0.185 0,0.158 0.347,0.185 2.375,0.185 2.028,0 2.375,-0.027 2.375,-0.185 0,-0.102 0.084,-0.185 0.188,-0.185 0.104,0 0.188,-0.055 0.188,-0.123 0,-0.068 0.084,-0.123 0.188,-0.123 0.16,0 0.188,-0.36 0.188,-2.513 0,-2.177 -0.026,-2.523 -0.198,-2.587 -0.11,-0.04 -1.427,-0.075 -2.93,-0.075 -2.26,0 -2.764,0.032 -2.92,0.185 -0.14,0.138 -0.486,0.185 -1.37,0.185 -0.936,0 -1.198,-0.04 -1.255,-0.185 -0.1,-0.283 -5.72,-0.275 -6.01,0.01 -0.29,0.285 -0.296,4.98 -0.01,4.98 0.103,0 0.188,0.055 0.188,0.123 0,0.068 0.084,0.123 0.188,0.123 0.104,0 0.188,0.083 0.188,0.185 0,0.158 0.347,0.185 2.375,0.185 2.028,0 2.375,-0.027 2.375,-0.185 z m -8.824,-0.506 c 0.11,-0.04 0.198,-0.207 0.198,-0.37 0,-0.163 0.056,-0.295 0.125,-0.295 0.069,0 0.125,-0.43 0.125,-1.047 0,-0.617 -0.05,-1.047 -0.125,-1.047 -0.075,0 -0.125,-0.37 -0.125,-0.862 0,-0.492 0.054,-0.862 0.125,-0.862 0.071,0 0.125,-0.4 0.125,-0.924 0,-0.524 -0.053,-0.924 -0.125,-0.924 -0.072,0 -0.125,-0.14 -0.125,-0.308 0,-0.192 -0.07,-0.308 -0.188,-0.308 -0.103,0 -0.188,-0.055 -0.188,-0.123 0,-0.068 -0.435,-0.123 -1.054,-0.123 -0.944,0 -1.063,0.026 -1.134,0.246 -0.044,0.136 -0.132,0.246 -0.196,0.246 -0.064,0 -0.117,1.257 -0.117,3.08 l 0.125,3.08 c 0.07,0 0.125,0.102 0.125,0.226 0,0.124 0.038,0.263 0.083,0.308 0.104,0.103 2.076,0.11 2.344,0.007 z M 34.649,47.225 c 0.043,-0.17 0.13,-0.308 0.2,-0.308 0.07,0 0.11,-1.333 0.11,-3.02 v -3.02 h -0.313 c -0.172,0 -0.313,-0.055 -0.313,-0.123 0,-0.073 -0.458,-0.123 -1.125,-0.123 -0.667,0 -1.125,0.05 -1.125,0.123 0,0.068 -0.137,0.123 -0.304,0.123 -0.184,0 -0.327,0.085 -0.362,0.216 -0.032,0.12 -0.058,1.477 -0.057,3.02 0.001,2.312 0.03,2.803 0.175,2.803 0.096,0 0.174,0.083 0.174,0.185 0,0.102 0.084,0.185 0.188,0.185 0.104,0 0.188,0.055 0.188,0.123 0,0.074 0.5,0.123 1.248,0.123 1.227,0 1.25,-0.005 1.326,-0.308 z m -4.824,-2.218 c 0,-0.246 0.063,-0.308 0.313,-0.308 h 0.313 v -3.82 h -0.302 c -0.166,0 -0.324,-0.066 -0.35,-0.146 -0.072,-0.213 -8.87,-0.217 -8.943,-0.004 -0.028,0.082 -0.13,0.15 -0.228,0.15 -0.146,0 -0.177,0.36 -0.177,2.033 0,1.725 0.028,2.033 0.188,2.033 0.103,0 0.188,0.083 0.188,0.185 0,0.16 0.583,0.185 4.5,0.185 h 4.5 v -0.308 z m 42.184,-4.45 c 0.173,-0.065 0.198,-0.46 0.198,-3.14 0,-3.778 0.1,-3.56 -1.653,-3.56 -1.22,0 -1.222,0 -1.222,0.308 0,0.17 -0.056,0.308 -0.125,0.308 -0.069,0 -0.136,0.374 -0.15,0.832 l -0.024,0.832 -0.044,-0.77 c -0.024,-0.424 -0.098,-0.77 -0.163,-0.77 -0.072,0 -0.12,1.12 -0.12,2.834 l 0.12,2.834 c 0.066,0 0.14,-0.374 0.163,-0.832 l 0.044,-0.832 0.024,0.832 c 0.013,0.457 0.08,0.832 0.15,0.832 0.07,0 0.125,0.083 0.125,0.185 0,0.152 0.22,0.185 1.24,0.185 0.682,0 1.33,-0.034 1.438,-0.075 z m 23.45,-1.527 c 0.247,-0.244 0.25,-0.41 0.25,-14.415 l -0.123,-14.17 c -0.067,0 -0.158,-0.14 -0.2,-0.308 L 95.308,9.829 H 84.568 L 73.83,9.961 c 0,0.073 -0.084,0.215 -0.188,0.317 -0.165,0.162 -0.188,1.915 -0.188,14.274 l 0.188,14.274 c 0.103,0.102 0.188,0.244 0.188,0.317 0,0.093 3.17,0.132 10.69,0.132 10.522,0 10.693,-0.004 10.94,-0.246 z M 67.507,38.955 c 0.11,-0.04 0.198,-0.207 0.198,-0.37 0,-0.163 0.056,-0.295 0.125,-0.295 0.083,0 0.125,-4.66 0.125,-13.738 L 67.83,10.814 c -0.07,0 -0.125,-0.222 -0.125,-0.493 V 9.828 H 53.465 L 39.15,10.023 c -0.104,0.267 -0.097,28.82 0.008,28.923 0.105,0.103 28.077,0.1 28.348,0.007 z M 32.95,37.923 c 0,-0.07 0.375,-0.123 0.875,-0.123 0.5,0 0.875,0.053 0.875,0.123 0,0.07 0.378,0.123 0.885,0.123 0.81,0 0.915,-0.03 1.25,-0.36 0.347,-0.342 0.365,-0.413 0.365,-1.417 0,-0.622 -0.05,-1.057 -0.125,-1.057 -0.075,0 -0.125,-0.083 -0.125,-0.185 0,-0.102 -0.084,-0.185 -0.188,-0.185 -0.104,0 -0.188,-0.055 -0.188,-0.123 0,-0.08 -1.042,-0.123 -2.875,-0.123 -1.833,0 -2.875,0.045 -2.875,0.123 0,0.068 -0.138,0.123 -0.307,0.123 -0.252,0 -0.322,0.077 -0.39,0.434 -0.045,0.24 -0.06,0.784 -0.032,1.21 0.043,0.66 0.107,0.836 0.42,1.156 0.352,0.36 0.422,0.38 1.402,0.4 0.612,0.007 1.03,-0.038 1.03,-0.11 z m -8.626,-3.635 c 0,-2.012 -0.045,-3.142 -0.125,-3.142 -0.07,0 -0.125,-0.083 -0.125,-0.185 0,-0.153 -0.23,-0.185 -1.313,-0.185 H 21.448 V 32 c 0,0.853 -0.046,1.237 -0.153,1.272 -0.097,0.032 -0.17,0.398 -0.2,0.996 -0.04,0.807 -0.02,0.946 0.153,0.946 0.173,0 0.2,0.172 0.2,1.11 v 1.11 h 2.875 v -3.142 z m 4.172,2.865 c 0.04,-0.152 0.076,-0.65 0.077,-1.11 0.001,-0.658 -0.037,-0.832 -0.186,-0.832 -0.204,0 -0.262,-0.323 -0.07,-0.4 0.065,-0.023 0.156,-0.792 0.204,-1.7 0.076,-1.455 0.06,-1.695 -0.117,-1.87 -0.112,-0.11 -0.204,-0.26 -0.204,-0.333 0,-0.085 -0.447,-0.132 -1.26,-0.132 -1.246,0 -1.616,0.11 -1.616,0.484 0,0.073 -0.084,0.132 -0.188,0.132 -0.16,0 -0.188,0.397 -0.188,2.834 0,2.437 0.026,2.834 0.188,2.834 0.103,0 0.188,0.083 0.188,0.185 0,0.154 0.255,0.185 1.548,0.185 1.5,0 1.55,-0.01 1.624,-0.277 z m 43.7,-11.058 c 0,-3.775 0.095,-3.573 -1.688,-3.573 -1.184,0 -1.188,0.001 -1.188,0.308 0,0.17 -0.056,0.308 -0.125,0.308 -0.069,0 -0.136,0.417 -0.15,0.955 l -0.025,0.955 -0.043,-0.955 c -0.023,-0.525 -0.097,-0.955 -0.162,-0.955 -0.073,0 -0.12,1.1 -0.12,2.834 0,1.717 0.047,2.834 0.12,2.834 0.066,0 0.14,-0.374 0.163,-0.832 l 0.044,-0.832 0.024,0.837 c 0.013,0.46 0.095,0.916 0.18,1.012 0.117,0.13 0.51,0.176 1.563,0.18 l 1.406,0.005 v -3.08 z M 36.2,27.08 c 0,-0.068 0.084,-0.123 0.188,-0.123 0.162,0 0.188,-0.472 0.188,-3.51 v -3.51 h -1.25 v -0.924 c 0,-0.74 -0.038,-0.924 -0.188,-0.924 -0.103,0 -0.188,-0.083 -0.188,-0.185 0,-0.145 -0.174,-0.185 -0.813,-0.185 -0.618,0 -0.813,0.042 -0.813,0.175 0,0.096 -0.07,0.197 -0.153,0.225 -0.1,0.033 -0.143,0.277 -0.124,0.71 0.045,1.02 -0.014,1.107 -0.73,1.107 -0.34,0 -0.617,-0.055 -0.617,-0.123 0,-0.068 -0.257,-0.123 -0.572,-0.123 -0.466,0 -0.64,0.067 -0.938,0.36 -0.324,0.32 -0.365,0.446 -0.365,1.11 v 0.75 h 0.625 c 0.344,0 0.625,0.055 0.625,0.123 0,0.068 -0.28,0.123 -0.625,0.123 h -0.625 v 0.8 c 0,0.63 0.04,0.8 0.188,0.8 0.103,0 0.188,0.083 0.188,0.185 0,0.102 -0.084,0.185 -0.188,0.185 -0.147,0 -0.188,0.17 -0.188,0.8 0,0.487 0.052,0.8 0.134,0.8 0.074,0 0.214,0.08 0.313,0.176 0.099,0.096 0.18,0.235 0.18,0.308 0,0.073 0.197,0.132 0.438,0.132 0.275,0 0.438,0.06 0.438,0.16 0,0.088 0.098,0.28 0.22,0.43 0.2,0.26 0.306,0.27 2.438,0.27 1.397,10e-4 2.22,-0.044 2.22,-0.122 z M 72.205,15.93 c 0,-3.863 0.103,-3.636 -1.653,-3.636 H 69.33 v 0.37 c 0,0.203 -0.054,0.37 -0.12,0.37 -0.066,0 -0.14,0.374 -0.163,0.832 l -0.044,0.832 -0.024,-0.832 c -0.013,-0.457 -0.08,-0.832 -0.15,-0.832 -0.08,0 -0.125,1.027 -0.125,2.834 0,1.717 0.047,2.834 0.12,2.834 0.066,0 0.14,-0.374 0.163,-0.832 l 0.044,-0.832 0.024,0.832 c 0.013,0.457 0.08,0.832 0.15,0.832 0.07,0 0.125,0.083 0.125,0.185 0,0.154 0.243,0.185 1.438,0.185 h 1.438 v -3.14 z m -47.882,0.245 c 0,-0.192 0.07,-0.308 0.188,-0.308 0.162,0 0.188,-0.418 0.188,-3.02 v -3.02 h -0.313 c -0.172,0 -0.313,-0.055 -0.313,-0.123 0,-0.068 -0.084,-0.123 -0.188,-0.123 -0.104,0 -0.188,-0.083 -0.188,-0.185 0,-0.144 -0.17,-0.185 -0.767,-0.185 -0.658,0 -0.808,0.044 -1.057,0.308 -0.16,0.17 -0.405,0.308 -0.546,0.308 -0.25,0 -0.256,0.06 -0.256,3.02 0,2.6 0.026,3.02 0.188,3.02 0.103,0 0.188,0.058 0.188,0.128 0,0.38 0.328,0.478 1.594,0.483 l 1.28,0.005 v -0.308 z m 3.876,0 c 0,-0.192 0.07,-0.308 0.188,-0.308 0.16,0 0.188,-0.402 0.188,-2.877 0,-2.632 -0.02,-2.9 -0.233,-3.142 -0.128,-0.146 -0.297,-0.265 -0.375,-0.265 -0.078,0 -0.142,-0.083 -0.142,-0.185 0,-0.148 -0.188,-0.185 -0.938,-0.185 -0.75,0 -0.938,0.037 -0.938,0.185 0,0.102 -0.06,0.185 -0.134,0.185 -0.074,0 -0.214,0.08 -0.313,0.176 -0.145,0.143 -0.18,0.736 -0.18,3.142 0,1.895 0.045,2.966 0.125,2.966 0.07,0 0.125,0.14 0.125,0.308 v 0.308 h 2.625 v -0.308 z m 7.198,0.132 c 0.098,-0.097 0.18,-0.235 0.18,-0.308 0,-0.073 0.084,-0.132 0.188,-0.132 0.16,0 0.188,-0.396 0.188,-2.824 0,-1.553 -0.034,-2.91 -0.076,-3.02 -0.042,-0.11 -0.182,-0.195 -0.313,-0.195 -0.131,0 -0.237,-0.055 -0.237,-0.123 0,-0.068 -0.084,-0.123 -0.188,-0.123 -0.104,0 -0.188,-0.083 -0.188,-0.185 0,-0.148 -0.188,-0.185 -0.938,-0.185 -0.75,0 -0.938,0.037 -0.938,0.185 0,0.102 -0.084,0.185 -0.188,0.185 -0.104,0 -0.188,0.055 -0.188,0.123 0,0.068 -0.084,0.123 -0.188,0.123 -0.162,0 -0.188,0.417 -0.188,3 0,2.51 0.03,3.04 0.188,3.195 0.103,0.102 0.188,0.244 0.188,0.317 0,0.214 2.476,0.174 2.697,-0.044 z"
       class="B"
       id="path40" />
    <path
       d="m 1.194,5.9 c 0,-0.08 4.2,-0.123 12.377,-0.123 L 25.948,5.9 c 0,0.08 -4.2,0.123 -12.377,0.123 C 5.394,6.023 1.194,5.97 1.194,5.9 Z M 5.07,30.777 c 0,-12.236 2.167,-18.727 6.25,-18.727 4.083,0 6.25,6.492 6.25,18.727 0,12.235 -2.167,18.727 -6.25,18.727 -4.083,0 -6.25,-6.492 -6.25,-18.727 z"
       class="B"
       id="path42" />
    <path
       d="M 1.348,5.567 H 99.113 V 51.893 H 1.348 Z"
       class="H"
       id="path44"
       style="fill:#ffffff" />
    <path
       d="m 39.353,10.372 h 28.38 v 28.09 h -28.38 z"
       fill="url(#A)"
       id="path46"
       style="fill:url(#A)" />
    <path
       d="M 40.103,11.11 H 66.857 V 37.846 H 40.103 Z"
       fill="#333"
       id="path48-2"
       style="fill:#000000" />
    <path
       d="m 47.004,22.773 c -0.364,-0.145 -1.178,-1.717 -1.178,-2.274 0,-0.543 0.766,-2.1 1.127,-2.3 0.388,-0.204 1.81,-0.107 1.81,0.124 0,0.142 -0.19,0.193 -0.82,0.22 l -0.82,0.036 -0.4,0.798 c -0.492,0.984 -0.496,1.228 -0.03,2.136 0.396,0.772 0.56,0.87 1.468,0.873 0.548,0.002 0.818,0.2 0.523,0.383 -0.217,0.135 -1.336,0.13 -1.682,-0.008 z"
       class="B"
       id="path56" />
    <path
       d="M 74.046,10.495 H 95.55 v 28.09 H 74.046 Z"
       fill="url(#B)"
       id="path58"
       style="fill:url(#B)" />
    <path
       d="M 4.098,8.647 H 23.35 V 47.58 H 4.098 Z"
       fill="#d4aa00"
       id="path60"
       style="fill:#000000" />
    <g
       class="H"
       id="g66"
       style="fill:#ffffff">
      <path
         d="m 19.975,10.74 h 3.876 v 38.44 h -3.876 z"
         id="path62"
         style="fill:#ffffff" />
      <path
         d="M 6.473,10.74 H 20.1 v 2.464 H 6.473 Z M 3.785,15.3 h 13.627 v 2.464 H 3.785 Z M 6.4,19.736 H 20.027 V 22.2 H 6.4 Z M 3.973,24.17 H 17.6 v 2.464 H 3.973 Z m 2.625,4.436 H 20.225 V 31.07 H 6.598 Z m -2.75,4.806 h 13.627 v 2.464 H 3.848 Z m 2.625,4.68 H 20.1 v 2.464 H 6.473 Z"
         id="path64"
         style="fill:#ffffff" />
    </g>
    <g
       fill="#9393ac"
       id="g86"
       style="fill:#ffffff">
      <path
         d="m 26.1,1.624 h 3.5 v 5.8 h -3.5 z m 5.377,-0.062 h 3.5 v 5.8 h -3.5 z M 37.165,1.47 h 3.5 v 5.8 h -3.5 z M 42.54,1.408 h 3.5 V 7.2 h -3.5 z m 5.47,0.016 h 3.5 v 5.8 H 48 Z m 5.377,-0.062 h 3.5 v 5.8 h -3.5 z M 59.075,1.27 h 3.5 v 5.8 h -3.5 z M 64.45,1.208 h 3.5 V 7 h -3.5 z m 5.064,0.216 h 3.5 v 5.8 h -3.5 z M 74.9,1.362 h 3.5 v 5.8 H 74.9 Z M 80.578,1.27 h 3.5 v 5.8 h -3.5 z m 5.376,-0.062 h 3.5 V 7 h -3.5 z m 5.406,0.108 h 3.5 v 5.8 h -3.5 z M 26.1,50.56 h 3.5 v 5.8 h -3.5 z m 5.377,-0.06 h 3.5 v 5.8 h -3.5 z m 5.688,-0.094 h 3.5 v 5.8 h -3.5 z m 5.375,-0.06 h 3.5 v 5.8 h -3.5 z m 5.47,0.015 h 3.5 v 5.8 H 48 Z m 5.377,-0.06 h 3.5 v 5.8 h -3.5 z m 5.688,-0.094 h 3.5 v 5.8 h -3.5 z m 5.375,-0.06 h 3.5 v 5.8 h -3.5 z m 5.064,0.215 h 3.5 v 5.8 h -3.5 z m 5.386,-0.06 h 3.5 v 5.8 h -3.5 z m 5.678,-0.094 h 3.5 v 5.8 h -3.5 z m 5.376,-0.06 h 3.5 v 5.8 h -3.5 z m 5.406,0.107 h 3.5 v 5.8 h -3.5 z"
         id="path68-8"
         style="fill:#ffffff" />
      <use
         xlink:href="#C"
         id="use70"
         style="fill:#ffffff"
         x="0"
         y="0"
         width="100%"
         height="100%" />
      <use
         xlink:href="#C"
         x="-0.109"
         y="-5.6059999"
         id="use72"
         style="fill:#ffffff"
         width="100%"
         height="100%" />
      <use
         xlink:href="#C"
         x="-0.186"
         y="-10.904"
         id="use74"
         style="fill:#ffffff"
         width="100%"
         height="100%" />
      <use
         xlink:href="#C"
         x="0.018999999"
         y="-15.894"
         id="use76"
         style="fill:#ffffff"
         width="100%"
         height="100%" />
      <use
         xlink:href="#C"
         x="-0.059"
         y="-21.191999"
         id="use78"
         style="fill:#ffffff"
         width="100%"
         height="100%" />
      <use
         xlink:href="#C"
         x="-0.168"
         y="-26.798"
         id="use80"
         style="fill:#ffffff"
         width="100%"
         height="100%" />
      <use
         xlink:href="#C"
         x="-0.24600001"
         y="-32.095001"
         id="use82"
         style="fill:#ffffff"
         width="100%"
         height="100%" />
      <use
         xlink:href="#C"
         x="-0.15099999"
         y="-37.424"
         id="use84"
         style="fill:#ffffff"
         width="100%"
         height="100%" />
    </g>
    <path
       d="M 74.86,11.11 H 94.863 V 37.723 H 74.86 Z"
       fill="#333"
       id="path88"
       style="fill:#000000" />
    <path
       d="m 4.036,42.923 h 13.627 v 2.464 H 4.036 Z"
       class="H"
       id="path90"
       style="fill:#ffffff" />
    <ellipse
       cx="122.04807"
       cy="5.6494241"
       class="E F"
       id="circle92"
       style="fill:#000000;stroke:#ffffff;stroke-width:2.6;stroke-miterlimit:4;stroke-dasharray:none"
       rx="3.6238401"
       ry="3.5358675" />
    <path
       d="m 122,3.493 h 22.575 v 4.33 H 122 Z"
       id="path94"
       style="fill:#000000" />
    <use
       xlink:href="#D"
       id="use96"
       style="fill:#000000"
       x="0"
       y="0"
       width="100%"
       height="100%" />
    <ellipse
       cx="122.15561"
       cy="15.140675"
       class="E F"
       id="circle98"
       style="fill:#000000;stroke:#ffffff;stroke-width:2.6;stroke-miterlimit:4;stroke-dasharray:none"
       rx="3.6238401"
       ry="3.5358675" />
    <path
       d="m 122.256,12.968 h 22.575 v 4.33 h -22.575 z"
       id="path100"
       style="fill:#000000" />
    <use
       xlink:href="#D"
       x="0.24600001"
       y="9.4750004"
       id="use102"
       style="fill:#000000"
       width="100%"
       height="100%" />
    <ellipse
       cx="122.02758"
       cy="33.854416"
       class="E F"
       id="circle104"
       style="fill:#000000;stroke:#ffffff;stroke-width:2.6;stroke-miterlimit:4;stroke-dasharray:none"
       rx="3.6238401"
       ry="3.5358675" />
    <path
       d="m 122.256,31.656 h 22.575 v 4.33 h -22.575 z"
       id="path106"
       style="fill:#000000" />
    <path
       d="m 144.983,35.985 -0.194,-0.05 -7.382,-0.783 0.083,-0.077 -0.04,-2.576 h 0.245 l 7.357,-0.81 0.07,0.078 4.588,2.076 -0.202,0.046 z"
       id="path108"
       style="fill:#000000" />
    <ellipse
       cx="122.10249"
       cy="43.025173"
       class="E F"
       id="circle110"
       style="fill:#000000;stroke:#ffffff;stroke-width:2.6;stroke-miterlimit:4;stroke-dasharray:none"
       rx="3.6238401"
       ry="3.5358675" />
    <path
       d="m 122.256,40.843 h 22.575 v 4.33 h -22.575 z"
       id="path112"
       style="fill:#000000" />
    <use
       xlink:href="#D"
       x="0.24600001"
       y="37.349998"
       id="use114"
       style="fill:#000000"
       width="100%"
       height="100%" />
    <ellipse
       cx="122.21323"
       cy="52.486141"
       class="E F"
       id="circle116"
       style="fill:#000000;stroke:#ffffff;stroke-width:2.6;stroke-miterlimit:4;stroke-dasharray:none;stroke-opacity:1"
       rx="3.6238401"
       ry="3.5358675" />
    <path
       d="m 122.256,50.28 h 22.575 v 4.33 h -22.575 z"
       id="path118"
       style="fill:#000000" />
    <use
       xlink:href="#D"
       x="0.24600001"
       y="46.778"
       id="use120"
       style="fill:#000000"
       width="100%"
       height="100%" />
    <ellipse
       cx="122.02822"
       cy="24.505117"
       class="E F"
       id="circle122"
       style="fill:#000000;stroke:#ffffff;stroke-width:2.6;stroke-miterlimit:4;stroke-dasharray:none"
       rx="3.6238401"
       ry="3.5358675" />
    <path
       d="m 122.57,22.343 h 22.575 v 4.33 H 122.57 Z"
       id="path124"
       style="fill:#000000" />
    <use
       xlink:href="#D"
       x="0.55900002"
       y="18.85"
       id="use126"
       style="fill:#000000"
       width="100%"
       height="100%" />
  </g>
  <g
     inkscape:label="Image"
     id="g15"
     transform="matrix(0.17340353,0,0,0.17340353,281.35932,450.4416)"
     inkscape:export-filename="C:\Users\Alejandro\Documents\Construcción de Sistemas\caminador\deployment.png"
     inkscape:export-xdpi="300"
     inkscape:export-ydpi="300">
    <path
       id="rect846"
       style="fill:#000000"
       d="m 62.138672,85.386719 c -10.268892,0 -18.53711,8.268215 -18.53711,18.537111 v 502.5039 c 0,10.2689 8.268218,18.53711 18.53711,18.53711 h 9.210937 V 764.9375 c 0,10.26889 8.266268,18.53516 18.535157,18.53516 H 778.6582 c 10.26889,0 18.53516,-8.26627 18.53516,-18.53516 V 624.96484 h 10.89453 c 10.26889,0 18.53711,-8.26821 18.53711,-18.53711 v -502.5039 c 0,-10.268896 -8.26822,-18.537111 -18.53711,-18.537111 z M 622.9375,166.76953 a 120,120 0 0 1 120,120 120,120 0 0 1 -120,120 120,120 0 0 1 -120,-120 120,120 0 0 1 120,-120 z m -492.58789,3.37109 H 445.93555 V 403.40039 H 130.34961 Z m 15.09375,292.25977 h 98.79102 c 8.36162,0 15.09374,6.73213 15.09374,15.09375 v 46.65039 c 0,8.36162 -6.73212,15.09375 -15.09374,15.09375 h -98.79102 c -8.36162,0 -15.09375,-6.73213 -15.09375,-15.09375 v -46.65039 c 0,-8.36162 6.73213,-15.09375 15.09375,-15.09375 z m 186.60742,0 h 98.79102 c 8.36162,0 15.09375,6.73213 15.09375,15.09375 v 46.65039 c 0,8.36162 -6.73213,15.09375 -15.09375,15.09375 h -98.79102 c -8.36162,0 -15.09375,-6.73213 -15.09375,-15.09375 v -46.65039 c 0,-8.36162 6.73213,-15.09375 15.09375,-15.09375 z M 154.39453,623.35547 h 27.36328 v 28.48242 a 40,40 0 0 1 26.31836,37.58203 40,40 0 0 1 -40,40 40,40 0 0 1 -40,-40 40,40 0 0 1 26.31836,-37.47851 z m 106.97266,0 h 27.36328 v 28.48242 a 40,40 0 0 1 26.31836,37.58203 40,40 0 0 1 -40,40 40,40 0 0 1 -40,-40 40,40 0 0 1 26.31836,-37.47851 z m 106.9707,0 h 27.36328 v 28.48242 a 40,40 0 0 1 26.31836,37.58203 40,40 0 0 1 -40,40 40,40 0 0 1 -40,-40 40,40 0 0 1 26.31836,-37.47851 z m 106.97266,0 h 27.36328 v 28.48242 a 40,40 0 0 1 26.31836,37.58203 40,40 0 0 1 -40,40 40,40 0 0 1 -40,-40 40,40 0 0 1 26.31836,-37.47851 z m 106.97265,0 h 27.36328 v 28.48242 a 40,40 0 0 1 26.31836,37.58203 40,40 0 0 1 -40,40 40,40 0 0 1 -40,-40 40,40 0 0 1 26.31836,-37.47851 z m 106.97266,0 h 27.36328 v 28.48242 a 40,40 0 0 1 26.31836,37.58203 40,40 0 0 1 -40,40 40,40 0 0 1 -40,-40 40,40 0 0 1 26.31836,-37.47851 z m -521.17969,51.06445 a 15,15 0 0 0 -15,15 15,15 0 0 0 15,15 15,15 0 0 0 15,-15 15,15 0 0 0 -15,-15 z m 106.97266,0 a 15,15 0 0 0 -15,15 15,15 0 0 0 15,15 15,15 0 0 0 15,-15 15,15 0 0 0 -15,-15 z m 106.9707,0 a 15,15 0 0 0 -15,15 15,15 0 0 0 15,15 15,15 0 0 0 15,-15 15,15 0 0 0 -15,-15 z m 106.97266,0 a 15,15 0 0 0 -15,15 15,15 0 0 0 15,15 15,15 0 0 0 15,-15 15,15 0 0 0 -15,-15 z m 106.97265,0 a 15,15 0 0 0 -15,15 15,15 0 0 0 15,15 15,15 0 0 0 15,-15 15,15 0 0 0 -15,-15 z m 106.97266,0 a 15,15 0 0 0 -15,15 15,15 0 0 0 15,15 15,15 0 0 0 15,-15 15,15 0 0 0 -15,-15 z" />
    <circle
       style="display:none;fill:#ff0000;stroke:none;stroke-width:24.5;stroke-miterlimit:4;stroke-dasharray:none"
       id="circle4075"
       cx="168.07649"
       cy="689.42084"
       r="16" />
    <circle
       style="display:none;fill:#ff0000;stroke:none;stroke-width:24.5;stroke-miterlimit:4;stroke-dasharray:none"
       id="circle4130"
       cx="275.04855"
       cy="689.42084"
       r="16" />
    <circle
       style="display:none;fill:#ff0000;stroke:none;stroke-width:24.5;stroke-miterlimit:4;stroke-dasharray:none"
       id="circle4173"
       cx="382.0206"
       cy="689.42084"
       r="16" />
    <circle
       style="display:none;fill:#ff0000;stroke:none;stroke-width:24.5;stroke-miterlimit:4;stroke-dasharray:none"
       id="circle4075-72"
       cx="488.99265"
       cy="689.42084"
       r="16" />
    <circle
       style="display:none;fill:#ff0000;stroke:none;stroke-width:24.5;stroke-miterlimit:4;stroke-dasharray:none"
       id="circle4254"
       cx="595.96472"
       cy="689.42084"
       r="16" />
    <circle
       style="display:none;fill:#ff0000;stroke:none;stroke-width:24.5;stroke-miterlimit:4;stroke-dasharray:none"
       id="circle4297"
       cx="702.93677"
       cy="689.42084"
       r="16" />
  </g>
  <polygon
     points="16,16 26,6 198,6 198,226 188,236 16,236 "
     style="fill:#ffffff;stroke:#181818;stroke-width:1"
     id="polygon4"
     inkscape:export-filename="C:\Users\Alejandro\Documents\Construcción de Sistemas\caminador\deployment.png"
     inkscape:export-xdpi="300"
     inkscape:export-ydpi="300"
     transform="translate(52.772534,-5.5)" />
  <line
     style="fill:none;stroke:#181818;stroke-width:1"
     x1="240.77254"
     x2="250.77254"
     y1="10.5"
     y2="0.5"
     id="line6"
     inkscape:export-filename="C:\Users\Alejandro\Documents\Construcción de Sistemas\caminador\deployment.png"
     inkscape:export-xdpi="300"
     inkscape:export-ydpi="300" />
  <line
     style="fill:none;stroke:#181818;stroke-width:1"
     x1="68.772537"
     x2="240.77254"
     y1="10.5"
     y2="10.5"
     id="line8"
     inkscape:export-filename="C:\Users\Alejandro\Documents\Construcción de Sistemas\caminador\deployment.png"
     inkscape:export-xdpi="300"
     inkscape:export-ydpi="300" />
  <line
     style="fill:none;stroke:#181818;stroke-width:1"
     x1="240.77254"
     x2="240.77254"
     y1="10.5"
     y2="230.5"
     id="line10"
     inkscape:export-filename="C:\Users\Alejandro\Documents\Construcción de Sistemas\caminador\deployment.png"
     inkscape:export-xdpi="300"
     inkscape:export-ydpi="300" />
  <polygon
     points="367,16 377,6 519,6 519,226 509,236 367,236 "
     style="fill:#ffffff;stroke:#181818;stroke-width:1"
     id="polygon15"
     inkscape:export-filename="C:\Users\Alejandro\Documents\Construcción de Sistemas\caminador\deployment.png"
     inkscape:export-xdpi="300"
     inkscape:export-ydpi="300"
     transform="translate(52.772534,-5.5)" />
  <line
     style="fill:none;stroke:#181818;stroke-width:1"
     x1="561.77252"
     x2="571.77252"
     y1="10.5"
     y2="0.5"
     id="line17"
     inkscape:export-filename="C:\Users\Alejandro\Documents\Construcción de Sistemas\caminador\deployment.png"
     inkscape:export-xdpi="300"
     inkscape:export-ydpi="300" />
  <line
     style="fill:none;stroke:#181818;stroke-width:1"
     x1="419.77252"
     x2="561.77252"
     y1="10.5"
     y2="10.5"
     id="line19"
     inkscape:export-filename="C:\Users\Alejandro\Documents\Construcción de Sistemas\caminador\deployment.png"
     inkscape:export-xdpi="300"
     inkscape:export-ydpi="300" />
  <line
     style="fill:none;stroke:#181818;stroke-width:1"
     x1="561.77252"
     x2="561.77252"
     y1="10.5"
     y2="230.5"
     id="line21"
     inkscape:export-filename="C:\Users\Alejandro\Documents\Construcción de Sistemas\caminador\deployment.png"
     inkscape:export-xdpi="300"
     inkscape:export-ydpi="300" />
  <g
     id="elem_AplicacionControl"
     inkscape:export-filename="C:\Users\Alejandro\Documents\Construcción de Sistemas\caminador\deployment.png"
     inkscape:export-xdpi="300"
     inkscape:export-ydpi="300"
     transform="translate(52.772534,-5.5)">
    <rect
       fill="#f1f1f1"
       height="47.609402"
       rx="2.5"
       ry="2.5"
       style="stroke:#181818;stroke-width:0.5"
       width="150"
       x="32"
       y="47"
       id="rect37" />
    <rect
       fill="#f1f1f1"
       height="10"
       style="stroke:#181818;stroke-width:0.5"
       width="15"
       x="162"
       y="52"
       id="rect39" />
    <rect
       fill="#f1f1f1"
       height="2"
       style="stroke:#181818;stroke-width:0.5"
       width="4"
       x="160"
       y="54"
       id="rect41" />
    <rect
       fill="#f1f1f1"
       height="2"
       style="stroke:#181818;stroke-width:0.5"
       width="4"
       x="160"
       y="58"
       id="rect43" />
    <text
       fill="#000000"
       font-family="sans-serif"
       font-size="14px"
       lengthAdjust="spacing"
       textLength="110"
       x="47"
       y="81.533203"
       id="text45">AplicacionControl</text>
  </g>
  <g
     id="elem_HistorialLocal"
     inkscape:export-filename="C:\Users\Alejandro\Documents\Construcción de Sistemas\caminador\deployment.png"
     inkscape:export-xdpi="300"
     inkscape:export-ydpi="300"
     transform="translate(52.772534,-5.5)">
    <path
       d="m 55,183 c 0,-10 52,-10 52,-10 0,0 52,0 52,10 v 26.6094 c 0,10 -52,10 -52,10 0,0 -52,0 -52,-10 V 183"
       fill="#f1f1f1"
       style="stroke:#181818;stroke-width:0.5"
       id="path48" />
    <path
       d="m 55,183 c 0,10 52,10 52,10 0,0 52,0 52,-10"
       fill="none"
       style="stroke:#181818;stroke-width:0.5"
       id="path50" />
    <text
       fill="#000000"
       font-family="sans-serif"
       font-size="14px"
       lengthAdjust="spacing"
       textLength="84"
       x="65"
       y="211.5332"
       id="text52">HistorialLocal</text>
  </g>
  <g
     id="elem_Servicio"
     inkscape:export-filename="C:\Users\Alejandro\Documents\Construcción de Sistemas\caminador\deployment.png"
     inkscape:export-xdpi="300"
     inkscape:export-ydpi="300"
     transform="translate(52.772534,-5.5)">
    <rect
       fill="#f1f1f1"
       height="47.609402"
       rx="2.5"
       ry="2.5"
       style="stroke:#181818;stroke-width:0.5"
       width="90"
       x="398"
       y="47"
       id="rect55" />
    <rect
       fill="#f1f1f1"
       height="10"
       style="stroke:#181818;stroke-width:0.5"
       width="15"
       x="468"
       y="52"
       id="rect57" />
    <rect
       fill="#f1f1f1"
       height="2"
       style="stroke:#181818;stroke-width:0.5"
       width="4"
       x="466"
       y="54"
       id="rect59" />
    <rect
       fill="#f1f1f1"
       height="2"
       style="stroke:#181818;stroke-width:0.5"
       width="4"
       x="466"
       y="58"
       id="rect61" />
    <text
       fill="#000000"
       font-family="sans-serif"
       font-size="14px"
       lengthAdjust="spacing"
       textLength="50"
       x="413"
       y="81.533203"
       id="text63">Servicio</text>
  </g>
  <g
     id="elem_HistorialRemoto"
     inkscape:export-filename="C:\Users\Alejandro\Documents\Construcción de Sistemas\caminador\deployment.png"
     inkscape:export-xdpi="300"
     inkscape:export-ydpi="300"
     transform="translate(52.772534,-5.5)">
    <path
       d="m 383.5,183 c 0,-10 59.5,-10 59.5,-10 0,0 59.5,0 59.5,10 v 26.6094 c 0,10 -59.5,10 -59.5,10 0,0 -59.5,0 -59.5,-10 V 183"
       fill="#f1f1f1"
       style="stroke:#181818;stroke-width:0.5"
       id="path66" />
    <path
       d="m 383.5,183 c 0,10 59.5,10 59.5,10 0,0 59.5,0 59.5,-10"
       fill="none"
       style="stroke:#181818;stroke-width:0.5"
       id="path68" />
    <text
       fill="#000000"
       font-family="sans-serif"
       font-size="14px"
       lengthAdjust="spacing"
       textLength="99"
       x="393.5"
       y="211.5332"
       id="text70">HistorialRemoto</text>
  </g>
  <g
     id="elem_Internet"
     inkscape:export-filename="C:\Users\Alejandro\Documents\Construcción de Sistemas\caminador\deployment.png"
     inkscape:export-xdpi="300"
     inkscape:export-ydpi="300"
     transform="translate(52.772534,-5.5)">
    <path
       d="m 259.1042,56.2887 c 2.1897,-9.4989 10.1797,-11.3926 16.1994,-3.5851 4.3494,-9.1771 11.2556,-9.9026 16.8138,-1.1325 4.6087,-5.135 11.0746,-6.0763 13.7921,1.9777 7.0423,-7.6923 12.904,-5.4785 16.4127,3.4825 9.2335,-0.0905 13.6036,4.8538 9.4318,13.8755 3.6066,9.0677 1.7448,16.6068 -9.9114,16.514 -2.2587,7.7175 -9.4003,9.3447 -15.077,3.9216 -3.105,8.5067 -9.5998,8.8289 -15.661,3.2981 -5.7817,6.8299 -12.7726,3.4695 -14.9145,-3.8396 -6.1057,6.0931 -13.3059,4.383 -16.1497,-3.7127 -9.8625,0.1834 -13.1107,-6.0967 -8.2602,-14.3705 -4.5485,-8.1693 -3.99,-15.331 7.324,-16.429"
       fill="#f1f1f1"
       style="stroke:#181818;stroke-width:0.5"
       id="path84" />
    <text
       fill="#000000"
       font-family="sans-serif"
       font-size="14px"
       lengthAdjust="spacing"
       textLength="48"
       x="266"
       y="76.533203"
       id="text86">Internet</text>
  </g>
  <g
     id="elem_HC05"
     inkscape:export-filename="C:\Users\Alejandro\Documents\Construcción de Sistemas\caminador\deployment.png"
     inkscape:export-xdpi="300"
     inkscape:export-ydpi="300"
     transform="translate(52.772534,-5.5)">
    <rect
       fill="#f1f1f1"
       height="37.609402"
       rx="2.5"
       ry="2.5"
       style="stroke:#181818;stroke-width:0.5"
       width="55"
       x="214.5"
       y="177.5"
       id="rect89" />
    <text
       fill="#000000"
       font-family="sans-serif"
       font-size="14px"
       lengthAdjust="spacing"
       textLength="35"
       x="224.5"
       y="202.0332"
       id="text91">HC05</text>
  </g>
  <g
     id="elem_GS110"
     inkscape:export-filename="C:\Users\Alejandro\Documents\Construcción de Sistemas\caminador\deployment.png"
     inkscape:export-xdpi="300"
     inkscape:export-ydpi="300"
     transform="translate(52.772534,-5.5)">
    <rect
       fill="#f1f1f1"
       height="37.609402"
       rx="2.5"
       ry="2.5"
       style="stroke:#181818;stroke-width:0.5"
       width="64"
       x="210"
       y="455"
       id="rect94" />
    <text
       fill="#000000"
       font-family="sans-serif"
       font-size="14px"
       lengthAdjust="spacing"
       textLength="44"
       x="220"
       y="479.5332"
       id="text96">GS110</text>
  </g>
  <g
     id="link_AplicacionControl_HistorialLocal"
     inkscape:export-filename="C:\Users\Alejandro\Documents\Construcción de Sistemas\caminador\deployment.png"
     inkscape:export-xdpi="300"
     inkscape:export-ydpi="300"
     transform="translate(52.772534,-5.5)">
    <path
       d="m 107,95.23 c 0,20.57 0,50.64 0,72.48"
       fill="none"
       id="AplicacionControl-to-HistorialLocal"
       style="stroke:#181818;stroke-width:1;stroke-dasharray:7, 7" />
    <polygon
       fill="#181818"
       points="107,172.79 111,163.79 107,167.79 103,163.79 "
       style="stroke:#181818;stroke-width:1"
       id="polygon100" />
  </g>
  <g
     id="link_Servicio_HistorialRemoto"
     inkscape:export-filename="C:\Users\Alejandro\Documents\Construcción de Sistemas\caminador\deployment.png"
     inkscape:export-xdpi="300"
     inkscape:export-ydpi="300"
     transform="translate(52.772534,-5.5)">
    <path
       d="m 443,95.23 c 0,20.57 0,50.64 0,72.48"
       fill="none"
       id="Servicio-to-HistorialRemoto"
       style="stroke:#181818;stroke-width:1;stroke-dasharray:7, 7" />
    <polygon
       fill="#181818"
       points="443,172.79 447,163.79 443,167.79 439,163.79 "
       style="stroke:#181818;stroke-width:1"
       id="polygon104" />
  </g>
  <g
     id="link_AplicacionControl_Internet"
     inkscape:export-filename="C:\Users\Alejandro\Documents\Construcción de Sistemas\caminador\deployment.png"
     inkscape:export-xdpi="300"
     inkscape:export-ydpi="300"
     transform="translate(52.772534,-5.5)">
    <path
       d="m 182.23,71 c 23.56,0 48.61,0 68.62,0"
       fill="none"
       id="AplicacionControl-Internet"
       style="stroke:#181818;stroke-width:1" />
    <text
       fill="#000000"
       font-family="sans-serif"
       font-size="13px"
       lengthAdjust="spacing"
       textLength="32"
       x="200.5"
       y="64.495102"
       id="text108">HTTP</text>
  </g>
  <g
     id="link_AplicacionControl_HC05"
     inkscape:export-filename="C:\Users\Alejandro\Documents\Construcción de Sistemas\caminador\deployment.png"
     inkscape:export-xdpi="300"
     inkscape:export-ydpi="300"
     transform="translate(52.772534,-5.5)">
    <path
       d="m 132.39,95.23 c 25.97,23.76 65.78,60.18 89.6,81.97"
       fill="none"
       id="AplicacionControl-HC05"
       style="stroke:#181818;stroke-width:1" />
    <text
       fill="#000000"
       font-family="sans-serif"
       font-size="13px"
       lengthAdjust="spacing"
       textLength="55"
       x="183"
       y="139.4951"
       id="text112">Bluetooth</text>
  </g>
  <g
     id="link_HC05_Firmware"
     inkscape:export-filename="C:\Users\Alejandro\Documents\Construcción de Sistemas\caminador\deployment.png"
     inkscape:export-xdpi="300"
     inkscape:export-ydpi="300"
     transform="translate(52.772534,-5.5)">
    <path
       d="m 242,215.59 c 0,27.77 0,80.89 0,111.37"
       fill="none"
       id="HC05-Firmware"
       style="stroke:#181818;stroke-width:1" />
    <text
       fill="#000000"
       font-family="sans-serif"
       font-size="13px"
       lengthAdjust="spacing"
       textLength="34"
       x="243"
       y="266.49509"
       id="text116">UART</text>
  </g>
  <g
     id="link_Internet_Servicio"
     inkscape:export-filename="C:\Users\Alejandro\Documents\Construcción de Sistemas\caminador\deployment.png"
     inkscape:export-xdpi="300"
     inkscape:export-ydpi="300"
     transform="translate(52.772534,-5.5)">
    <path
       d="m 329,71 c 20.99,0 46.97,0 68.83,0"
       fill="none"
       id="Internet-Servicio"
       style="stroke:#181818;stroke-width:1" />
    <text
       fill="#000000"
       font-family="sans-serif"
       font-size="13px"
       lengthAdjust="spacing"
       textLength="32"
       x="347.5"
       y="64.495102"
       id="text120">HTTP</text>
  </g>
  <g
     id="link_Firmware_GS110"
     inkscape:export-filename="C:\Users\Alejandro\Documents\Construcción de Sistemas\caminador\deployment.png"
     inkscape:export-xdpi="300"
     inkscape:export-ydpi="300"
     transform="translate(52.772534,-5.5)">
    <path
       d="m 242,375.04 c 0,23.18 0,58.45 0,79.74"
       fill="none"
       id="Firmware-GS110"
       style="stroke:#181818;stroke-width:1" />
    <text
       fill="#000000"
       font-family="sans-serif"
       font-size="13px"
       lengthAdjust="spacing"
       textLength="38"
       x="243"
       y="421.49509"
       id="text124">analog</text>
  </g>
  <style
     id="style2"><![CDATA[.B{fill-opacity:0}.C{fill:#fff}.D{font-family:OCRA}.E{stroke:#1f0000}.F{stroke-width:20}.G{font-size:5.105px}.H{fill:#0d9557}]]></style>
  <polygon
     points="177,296 187,286 307,286 307,381 297,391 177,391 "
     style="fill:#ffffff;stroke:#181818;stroke-width:1"
     id="polygon26"
     inkscape:export-filename="C:\Users\Alejandro\Documents\Construcción de Sistemas\caminador\deployment.png"
     inkscape:export-xdpi="300"
     inkscape:export-ydpi="300"
     transform="translate(52.772534,-5.5)" />
  <line
     style="fill:none;stroke:#181818;stroke-width:1"
     x1="349.77252"
     x2="359.77252"
     y1="290.5"
     y2="280.5"
     id="line28"
     inkscape:export-filename="C:\Users\Alejandro\Documents\Construcción de Sistemas\caminador\deployment.png"
     inkscape:export-xdpi="300"
     inkscape:export-ydpi="300" />
  <line
     style="fill:none;stroke:#181818;stroke-width:1"
     x1="229.77254"
     x2="349.77252"
     y1="290.5"
     y2="290.5"
     id="line30"
     inkscape:export-filename="C:\Users\Alejandro\Documents\Construcción de Sistemas\caminador\deployment.png"
     inkscape:export-xdpi="300"
     inkscape:export-ydpi="300" />
  <line
     style="fill:none;stroke:#181818;stroke-width:1"
     x1="349.77252"
     x2="349.77252"
     y1="290.5"
     y2="385.5"
     id="line32"
     inkscape:export-filename="C:\Users\Alejandro\Documents\Construcción de Sistemas\caminador\deployment.png"
     inkscape:export-xdpi="300"
     inkscape:export-ydpi="300" />
  <g
     id="elem_Firmware"
     inkscape:export-filename="C:\Users\Alejandro\Documents\Construcción de Sistemas\caminador\deployment.png"
     inkscape:export-xdpi="300"
     inkscape:export-ydpi="300"
     transform="translate(52.772534,-5.5)">
    <rect
       fill="#f1f1f1"
       height="47.609402"
       rx="2.5"
       ry="2.5"
       style="stroke:#181818;stroke-width:0.5"
       width="98"
       x="193"
       y="327"
       id="rect73" />
    <rect
       fill="#f1f1f1"
       height="10"
       style="stroke:#181818;stroke-width:0.5"
       width="15"
       x="271"
       y="332"
       id="rect75" />
    <rect
       fill="#f1f1f1"
       height="2"
       style="stroke:#181818;stroke-width:0.5"
       width="4"
       x="269"
       y="334"
       id="rect77" />
    <rect
       fill="#f1f1f1"
       height="2"
       style="stroke:#181818;stroke-width:0.5"
       width="4"
       x="269"
       y="338"
       id="rect79" />
    <text
       fill="#000000"
       font-family="sans-serif"
       font-size="14px"
       lengthAdjust="spacing"
       textLength="58"
       x="208"
       y="361.5332"
       id="text81">Firmware</text>
  </g>
  <text
     fill="#000000"
     font-family="sans-serif"
     font-size="14px"
     font-weight="bold"
     lengthAdjust="spacing"
     textLength="39"
     x="218.5"
     y="313.5332"
     id="text34"
     inkscape:export-filename="C:\Users\Alejandro\Documents\Construcción de Sistemas\caminador\deployment.png"
     inkscape:export-xdpi="300"
     inkscape:export-ydpi="300"
     transform="translate(52.772534,-5.5)">micro</text>
  <text
     fill="#000000"
     font-family="sans-serif"
     font-size="14px"
     font-weight="bold"
     lengthAdjust="spacing"
     textLength="38"
     x="84"
     y="33.533199"
     id="text12"
     inkscape:export-filename="C:\Users\Alejandro\Documents\Construcción de Sistemas\caminador\deployment.png"
     inkscape:export-xdpi="300"
     inkscape:export-ydpi="300"
     transform="translate(52.772534,-5.5)">movil</text>
  <text
     fill="#000000"
     font-family="sans-serif"
     font-size="14px"
     font-weight="bold"
     lengthAdjust="spacing"
     textLength="47"
     x="415.5"
     y="33.533199"
     id="text23"
     inkscape:export-filename="C:\Users\Alejandro\Documents\Construcción de Sistemas\caminador\deployment.png"
     inkscape:export-xdpi="300"
     inkscape:export-ydpi="300"
     transform="translate(52.772534,-5.5)">server</text>
</svg>
