<?xml version="1.0" encoding="UTF-8" standalone="no"?>
<svg
   contentStyleType="text/css"
   height="465.97983"
   preserveAspectRatio="none"
   version="1.1"
   viewBox="0 0 628.82257 465.97983"
   width="628.82257"
   zoomAndPan="magnify"
   id="svg129"
   sodipodi:docname="deployment.svg"
   inkscape:version="1.1.2 (0a00cf5339, 2022-02-04, custom)"
   inkscape:export-filename="C:\Users\Alejandro\Documents\Construcción de Sistemas\caminador\deployment.png"
   inkscape:export-xdpi="300"
   inkscape:export-ydpi="300"
   xmlns:inkscape="http://www.inkscape.org/namespaces/inkscape"
   xmlns:sodipodi="http://sodipodi.sourceforge.net/DTD/sodipodi-0.dtd"
   xmlns:xlink="http://www.w3.org/1999/xlink"
   xmlns="http://www.w3.org/2000/svg"
   xmlns:svg="http://www.w3.org/2000/svg">
  <sodipodi:namedview
     id="namedview131"
     pagecolor="#ffffff"
     bordercolor="#666666"
     borderopacity="1.0"
     inkscape:pageshadow="2"
     inkscape:pageopacity="0.0"
     inkscape:pagecheckerboard="0"
     showgrid="false"
     inkscape:snap-global="false"
     fit-margin-top="0"
     fit-margin-left="0"
     fit-margin-right="0"
     fit-margin-bottom="0"
     inkscape:zoom="1.0257955"
     inkscape:cx="81.400243"
     inkscape:cy="232.98992"
     inkscape:window-width="1366"
     inkscape:window-height="742"
     inkscape:window-x="-9"
     inkscape:window-y="-9"
     inkscape:window-maximized="1"
     inkscape:current-layer="svg129" />
  <defs
     id="defs2">
    <linearGradient
       x2="67.733002"
       gradientUnits="userSpaceOnUse"
       id="A"
       y1="24.417"
       y2="24.417"
       x1="39.353001" />
    <linearGradient
       x2="95.549004"
       gradientUnits="userSpaceOnUse"
       id="B"
       y1="24.541"
       y2="24.541"
       x1="74.045998" />
    <path
       id="C"
       d="m 97.653,49.298 -0.01,-3.45 5.876,-0.016 0.01,3.45 z" />
    <path
       id="D"
       d="m 144.737,7.822 -0.194,-0.05 -7.382,-0.783 0.083,-0.077 -0.04,-2.576 0.245,0.002 7.357,-0.81 0.07,0.078 4.588,2.076 -0.202,0.046 z" />
    <inkscape:path-effect
       effect="powerclip"
       id="path-effect4077"
       is_visible="true"
       lpeversion="1"
       inverse="true"
       flatten="false"
       hide_clip="false"
       message="Utilice la regla de relleno parimpar en el diálogo &lt;b&gt;Relleno y borde&lt;/b&gt; si el resultado no está aplanada después de convertir el recorte en trayectos." />
    <inkscape:path-effect
       effect="powerclip"
       id="path-effect3354"
       is_visible="true"
       lpeversion="1"
       inverse="true"
       flatten="false"
       hide_clip="false"
       message="Utilice la regla de relleno parimpar en el diálogo &lt;b&gt;Relleno y borde&lt;/b&gt; si el resultado no está aplanada después de convertir el recorte en trayectos." />
    <inkscape:path-effect
       effect="powerclip"
       id="path-effect1105"
       is_visible="true"
       lpeversion="1"
       inverse="true"
       flatten="false"
       hide_clip="false"
       message="Utilice la regla de relleno parimpar en el diálogo &lt;b&gt;Relleno y borde&lt;/b&gt; si el resultado no está aplanada después de convertir el recorte en trayectos." />
    <inkscape:path-effect
       effect="powerclip"
       id="path-effect820"
       is_visible="true"
       lpeversion="1"
       inverse="true"
       flatten="false"
       hide_clip="false"
       message="Utilice la regla de relleno parimpar en el diálogo &lt;b&gt;Relleno y borde&lt;/b&gt; si el resultado no está aplanada después de convertir el recorte en trayectos." />
    <clipPath
       clipPathUnits="userSpaceOnUse"
       id="clipPath4073-4">
      <circle
         style="display:none;fill:#ff0000;stroke:none;stroke-width:24.5;stroke-miterlimit:4;stroke-dasharray:none"
         id="circle4075-7"
         cx="168.07649"
         cy="689.42084"
         r="16" />
    </clipPath>
    <inkscape:path-effect
       effect="powerclip"
       id="path-effect4077-7"
       is_visible="true"
       lpeversion="1"
       inverse="true"
       flatten="false"
       hide_clip="false"
       message="Utilice la regla de relleno parimpar en el diálogo &lt;b&gt;Relleno y borde&lt;/b&gt; si el resultado no está aplanada después de convertir el recorte en trayectos." />
    <clipPath
       clipPathUnits="userSpaceOnUse"
       id="clipPath4073-2">
      <circle
         style="display:none;fill:#ff0000;stroke:none;stroke-width:24.5;stroke-miterlimit:4;stroke-dasharray:none"
         id="circle4075-9"
         cx="168.07649"
         cy="689.42084"
         r="16" />
      <path
         id="lpe_path-effect4077-56"
         style="fill:#ff0000;stroke:none;stroke-width:24.5;stroke-miterlimit:4;stroke-dasharray:none"
         class="powerclip"
         d="m 123.07649,644.42084 h 90 v 90 h -90 z m 61,45 a 16,16 0 0 0 -16,-16 16,16 0 0 0 -16,16 16,16 0 0 0 16,16 16,16 0 0 0 16,-16 z" />
    </clipPath>
    <inkscape:path-effect
       effect="powerclip"
       id="path-effect4077-3"
       is_visible="true"
       lpeversion="1"
       inverse="true"
       flatten="false"
       hide_clip="false"
       message="Utilice la regla de relleno parimpar en el diálogo &lt;b&gt;Relleno y borde&lt;/b&gt; si el resultado no está aplanada después de convertir el recorte en trayectos." />
    <inkscape:path-effect
       effect="powerclip"
       id="path-effect4077-5"
       is_visible="true"
       lpeversion="1"
       inverse="true"
       flatten="false"
       hide_clip="false"
       message="Utilice la regla de relleno parimpar en el diálogo &lt;b&gt;Relleno y borde&lt;/b&gt; si el resultado no está aplanada después de convertir el recorte en trayectos." />
    <clipPath
       clipPathUnits="userSpaceOnUse"
       id="clipPath4073-8">
      <circle
         style="display:none;fill:#ff0000;stroke:none;stroke-width:24.5;stroke-miterlimit:4;stroke-dasharray:none"
         id="circle4075-4"
         cx="168.07649"
         cy="689.42084"
         r="16" />
      <path
         id="lpe_path-effect4077-9"
         style="fill:#ff0000;stroke:none;stroke-width:24.5;stroke-miterlimit:4;stroke-dasharray:none"
         class="powerclip"
         d="m 123.07649,644.42084 h 90 v 90 h -90 z m 61,45 a 16,16 0 0 0 -16,-16 16,16 0 0 0 -16,16 16,16 0 0 0 16,16 16,16 0 0 0 16,-16 z" />
    </clipPath>
    <inkscape:path-effect
       effect="powerclip"
       id="path-effect4077-4"
       is_visible="true"
       lpeversion="1"
       inverse="true"
       flatten="false"
       hide_clip="false"
       message="Utilice la regla de relleno parimpar en el diálogo &lt;b&gt;Relleno y borde&lt;/b&gt; si el resultado no está aplanada después de convertir el recorte en trayectos." />
    <clipPath
       clipPathUnits="userSpaceOnUse"
       id="clipPath4073-9">
      <circle
         style="display:none;fill:#ff0000;stroke:none;stroke-width:24.5;stroke-miterlimit:4;stroke-dasharray:none"
         id="circle4075-1"
         cx="168.07649"
         cy="689.42084"
         r="16" />
      <path
         id="lpe_path-effect4077-19"
         style="fill:#ff0000;stroke:none;stroke-width:24.5;stroke-miterlimit:4;stroke-dasharray:none"
         class="powerclip"
         d="m 123.07649,644.42084 h 90 v 90 h -90 z m 61,45 a 16,16 0 0 0 -16,-16 16,16 0 0 0 -16,16 16,16 0 0 0 16,16 16,16 0 0 0 16,-16 z" />
    </clipPath>
    <inkscape:path-effect
       effect="powerclip"
       id="path-effect4077-71"
       is_visible="true"
       lpeversion="1"
       inverse="true"
       flatten="false"
       hide_clip="false"
       message="Utilice la regla de relleno parimpar en el diálogo &lt;b&gt;Relleno y borde&lt;/b&gt; si el resultado no está aplanada después de convertir el recorte en trayectos." />
    <clipPath
       clipPathUnits="userSpaceOnUse"
       id="clipPath4073">
      <circle
         style="display:none;fill:#ff0000;stroke:none;stroke-width:24.5;stroke-miterlimit:4;stroke-dasharray:none"
         id="circle4075-0"
         cx="168.07649"
         cy="689.42084"
         r="16" />
      <path
         id="lpe_path-effect4077"
         style="fill:#ff0000;stroke:none;stroke-width:24.5;stroke-miterlimit:4;stroke-dasharray:none"
         class="powerclip"
         d="m 123.07649,644.42084 h 90 v 90 h -90 z m 61,45 a 16,16 0 0 0 -16,-16 16,16 0 0 0 -16,16 16,16 0 0 0 16,16 16,16 0 0 0 16,-16 z" />
    </clipPath>
    <inkscape:path-effect
       effect="powerclip"
       id="path-effect4077-8"
       is_visible="true"
       lpeversion="1"
       inverse="true"
       flatten="false"
       hide_clip="false"
       message="Utilice la regla de relleno parimpar en el diálogo &lt;b&gt;Relleno y borde&lt;/b&gt; si el resultado no está aplanada después de convertir el recorte en trayectos." />
    <clipPath
       clipPathUnits="userSpaceOnUse"
       id="clipath_lpe_path-effect4077-8">
      <circle
         style="display:none;fill:#ff0000;stroke:none;stroke-width:24.5;stroke-miterlimit:4;stroke-dasharray:none"
         id="circle4763"
         cx="168.07649"
         cy="689.42084"
         r="16" />
      <path
         id="lpe_path-effect4077-8"
         style="fill:#ff0000;stroke:none;stroke-width:24.5;stroke-miterlimit:4;stroke-dasharray:none"
         class="powerclip"
         d="m 123.07649,644.42084 h 90 v 90 h -90 z m 61,45 a 16,16 0 0 0 -16,-16 16,16 0 0 0 -16,16 16,16 0 0 0 16,16 16,16 0 0 0 16,-16 z" />
    </clipPath>
  </defs>
  <path
     style="fill:#000000;fill-opacity:1;stroke:none;stroke-width:0.943306"
     d="m 112.92642,327.7922 v 21.91161 h 4.43066 c -9.7e-4,-0.0401 0,-0.0806 0,-0.12077 0,-1.96206 1.58246,-3.54453 3.54451,-3.54453 1.96206,0 3.58481,1.58247 3.58481,3.54453 0,0.0403 9.7e-4,0.0808 0,0.12077 h 7.61267 c 0.57972,0 1.04725,0.49501 1.04725,1.08752 v 26.38255 c 0,0.59252 -0.46752,1.04724 -1.04725,1.04724 h -7.65294 c 0.005,0.081 0.0402,0.1593 0.0402,0.24167 0,1.96511 -1.61969,3.54453 -3.5848,3.54453 -1.96511,0 -3.54453,-1.57942 -3.54453,-3.54453 0,-0.0823 0.0348,-0.1606 0.0402,-0.24167 h -4.47093 v 44.74964 h 2.37644 c 0.4243,-0.009 0.81498,0.38127 0.80558,0.80557 v 0.40279 h 23.20053 c 0.33632,0.004 0.64045,0.30813 0.64446,0.64445 v 4.06815 c 2.35411,0.2599 4.18898,2.2503 4.18898,4.67233 0,2.42204 -1.83487,4.41245 -4.18898,4.67233 v 6.48488 c -0.004,0.33632 -0.30813,0.64045 -0.64446,0.64445 h -1.36948 c -0.18235,2.42707 -2.15433,4.30982 -4.63205,4.30982 -2.47237,0 -4.48607,-1.88275 -4.67232,-4.30982 h -12.52669 v 0.12077 c 0.009,0.4243 -0.38128,0.81499 -0.80558,0.80558 h -2.37644 v 6.76682 h 155.11327 v -4.26954 l 5.8404,-6.00154 v -79.02679 l -5.8404,-5.55846 v -27.30896 l -3.38342,-3.10146 H 112.92624 Z m 36.21055,1.45003 c 2.14346,0 3.86676,1.72906 3.86676,3.86675 0,2.13222 -1.72349,3.86676 -3.86676,3.86676 -2.13774,0 -3.86675,-1.73463 -3.86675,-3.86676 0,-2.13777 1.72901,-3.86675 3.86675,-3.86675 z m 13.45309,3.78619 h 47.68997 v 5.96126 h -47.68997 z m 53.81234,0 h 47.68997 v 5.96126 H 216.4024 Z m -51.99979,1.81255 v 2.29589 h 2.29588 v -2.29589 z m 5.96123,0 v 2.29589 h 2.29589 v -2.29589 z m 5.96125,0 v 2.29589 h 2.29589 v -2.29589 z m 5.96126,0 v 2.29589 h 2.29588 v -2.29589 z m 5.96124,0 v 2.29589 h 2.29589 v -2.29589 z m 5.96124,0 v 2.29589 h 2.29589 v -2.29589 z m 5.96126,0 v 2.29589 h 2.29588 v -2.29589 z m 5.96125,0 v 2.29589 h 2.33616 v -2.29589 z m 12.0836,0 v 2.29589 h 2.33617 v -2.29589 z m 5.96125,0 v 2.29589 h 2.29589 v -2.29589 z m 5.96125,0 v 2.29589 h 2.29589 v -2.29589 z m 5.96124,0 v 2.29589 h 2.33617 v -2.29589 z m 6.00152,0 v 2.29589 h 2.29589 v -2.29589 z m 5.96126,0 v 2.29589 h 2.29588 v -2.29589 z m 5.92096,0 v 2.29589 h 2.29589 v -2.29589 z m 6.00153,0 v 2.29589 h 2.29589 v -2.29589 z m -116.12349,10.63357 c 0.10891,-0.0222 0.24684,0 0.36251,0 h 5.6793 c 0.79873,0.1267 1.40975,0.81422 1.40975,1.65143 0,0.83166 -0.61645,1.52472 -1.40975,1.65143 v 0.0402 h -5.6793 c -0.92529,0 -1.69171,-0.76642 -1.69171,-1.69171 0,-0.80972 0.56699,-1.4954 1.3292,-1.65142 z m 10.63358,0 c 0.10904,-0.0222 0.20653,0 0.32222,0 h 5.71959 c 0.79854,0.1267 1.40975,0.81422 1.40975,1.65143 0,0.83166 -0.61121,1.52472 -1.40975,1.65143 v 0.0402 h -5.71959 c -0.92549,0 -1.65142,-0.76642 -1.65142,-1.69171 0,-0.80972 0.56585,-1.4954 1.3292,-1.65142 z m 17.199,4.83345 c 0.10853,-0.0222 0.20725,0 0.32223,0 h 5.67931 c 0.79871,0.13224 1.40975,0.81967 1.40975,1.65143 0,0.83721 -0.61666,1.52485 -1.40975,1.65143 v 0.0402 h -5.67931 c -0.92529,0 -1.6917,-0.76642 -1.6917,-1.69172 0,-0.80962 0.60985,-1.49538 1.36947,-1.65142 z m -73.548899,0.40278 c -0.551929,0 -0.966701,0.41477 -0.966701,0.96669 v 24.57001 c 0,0.55192 0.414772,1.00696 0.966701,1.00696 h 33.109089 c 0.55193,0 1.00697,-0.45504 1.00697,-1.00696 v -24.57001 c 0,-0.55192 -0.45504,-0.96669 -1.00697,-0.96669 z m 102.307889,0.84585 c 2.82269,0 5.07728,1.05106 7.41129,3.42369 l 1.65142,1.69172 1.04725,-1.24865 c 3.57349,-4.23197 9.42477,-5.09403 13.37253,-1.97365 2.17131,1.71638 3.22464,4.01385 3.10146,6.84738 -0.16851,3.87042 -2.56125,6.7802 -6.4446,7.81407 -3.34804,0.89133 -6.74458,-0.28633 -9.6266,-3.30286 l -1.57087,-1.65143 -0.32224,0.52363 c -0.65213,0.98611 -3.05003,3.06693 -4.10843,3.5848 -2.29562,1.12318 -4.54062,1.39342 -6.72653,0.80557 -2.58415,-0.69493 -4.98649,-2.71294 -5.8807,-4.99456 -0.5982,-1.5261 -0.66193,-4.44275 -0.12076,-5.88068 1.27034,-3.37051 4.54881,-5.63903 8.21685,-5.63903 z m -52.52343,3.14174 h 1.89311 v 1.36948 h 1.85281 v -1.36948 h 1.89311 v 1.36948 h 1.85283 v -1.36948 h 1.85282 v 1.36948 h 2.57783 c 1.18211,0 2.13477,0.95265 2.13477,2.13478 v 2.09449 h 1.12781 v 1.8931 h -1.12781 v 1.85281 h 1.12781 v 1.89311 h -1.12781 v 1.85281 h 1.12781 v 1.8931 h -1.12781 v 2.09449 c 0,1.18213 -0.95266,2.13477 -2.13477,2.13477 h -2.57783 v 1.36948 h -1.85282 v -1.36948 h -1.85283 v 1.36948 h -1.89311 v -1.36948 h -1.85281 v 1.36948 h -1.89311 v -1.36948 h -2.33616 c -1.18212,0 -2.13476,-0.95264 -2.13476,-2.13477 v -2.09449 h -1.1278 v -1.8931 h 1.1278 v -1.85281 h -1.1278 v -1.89311 h 1.1278 v -1.85281 h -1.1278 v -1.8931 h 1.1278 v -2.09449 c 0,-1.18213 0.95264,-2.13478 2.13476,-2.13478 h 2.33616 z m 52.24149,0.0402 c -1.62561,0.0394 -2.78451,0.56407 -3.90703,1.81255 -1.45966,1.62333 -1.77491,3.60953 -0.88613,5.51818 1.21118,2.60079 4.24264,3.80524 7.1696,2.85979 1.40741,-0.45452 3.20254,-1.92422 4.30982,-3.54453 l 0.92642,-1.32913 -0.48336,-0.84586 c -0.6598,-1.199 -2.7934,-3.33576 -3.90703,-3.90703 -0.64706,-0.33192 -1.41265,-0.49908 -2.49728,-0.56391 -0.25255,-0.0151 -0.49279,-0.004 -0.72501,0 z m 17.52123,0 c -1.20319,0.0897 -2.16543,0.49191 -3.30285,1.32921 -1.18423,0.87174 -3.10147,3.26561 -3.10147,3.86675 0,0.75175 2.34222,3.50161 3.70564,4.35009 1.25445,0.78057 2.14074,1.00454 3.66537,0.92642 0.94364,-0.0482 1.75666,-0.20392 2.29588,-0.48335 0.45721,-0.23698 1.1882,-0.81035 1.61116,-1.24864 2.25311,-2.33451 1.82155,-5.91849 -0.92642,-7.81407 -1.01629,-0.70105 -1.3798,-0.83489 -2.65839,-0.92641 -0.47529,-0.0341 -0.88787,-0.0299 -1.28892,0 z m -45.67605,0.32224 h 5.67931 c 0.79871,0.13224 1.40975,0.81968 1.40975,1.65142 0,0.83175 -0.61666,1.52486 -1.40975,1.65143 v 0.0402 h -5.67931 c -0.92529,0 -1.6917,-0.76633 -1.6917,-1.6917 0,-0.9253 0.77184,-1.65143 1.6917,-1.65143 z m 45.31354,2.33616 h 1.61114 v 1.6917 h 1.89311 v 1.85282 h -1.89311 v 1.65143 h -1.61114 v -1.65143 h -1.8931 v -1.85282 h 1.8931 z m -19.25322,1.6917 h 5.31679 v 1.69172 h -5.31679 z m -26.06032,0.72503 h 5.67931 v 0.0402 c 0.79871,0.12669 1.40975,0.7794 1.40975,1.61115 0,0.83721 -0.61666,1.51926 -1.40975,1.65142 v 0.0402 h -5.67931 c -0.92529,0 -1.6917,-0.76633 -1.6917,-1.6917 0,-0.91428 0.77184,-1.65143 1.6917,-1.65143 z m -0.32223,4.75288 c 0.10853,-0.0226 0.20725,0 0.32223,0 h 5.67931 c 0.79871,0.12658 1.40975,0.81429 1.40975,1.65142 0,0.8262 -0.61666,1.5139 -1.40975,1.65143 v 0.0402 h -5.67931 c -0.92529,0 -1.6917,-0.76633 -1.6917,-1.6917 0,-0.8 0.60986,-1.49345 1.36947,-1.65143 z m 64.24452,1.89309 h 5.71958 c 0.91987,0 1.69171,0.76634 1.69171,1.69171 0,0.9253 -0.77184,1.69171 -1.69171,1.69171 h -5.71958 v -0.0402 c -0.79872,-0.12116 -1.40975,-0.81422 -1.40975,-1.65143 0,-0.83722 0.61665,-1.52486 1.40975,-1.65143 v -0.0402 z m 10.95581,0 h 5.71958 v 0.0402 c 0.79872,0.13216 1.40975,0.8143 1.40975,1.65143 0,0.83174 -0.61103,1.52485 -1.40975,1.65143 v 0.0402 h -5.71958 c -0.91443,0 -1.6917,-0.76632 -1.6917,-1.69171 0,-0.91981 0.77727,-1.69169 1.6917,-1.69169 z m 21.3477,0.12078 c 1.36908,0 2.49729,1.08796 2.49729,2.457 0,1.38034 -1.12821,2.49728 -2.49729,2.49728 -1.36908,0 -2.49726,-1.11702 -2.49726,-2.49728 0,-1.36904 1.12266,-2.457 2.49726,-2.457 z m -96.2258,2.73895 h 5.67931 c 0.79871,0.13772 1.40975,0.81976 1.40975,1.65143 0,0.83721 -0.61666,1.52485 -1.40975,1.65142 v 0.0402 h -5.67931 c -0.92529,0 -1.6917,-0.7664 -1.6917,-1.69169 0,-0.91438 0.77184,-1.65143 1.6917,-1.65143 z m 87.52562,9.30438 h 3.26257 2.77923 3.26257 l 1.24864,1.24864 v 3.26257 l -1.24864,1.24864 h -3.26257 -2.77923 -3.26257 l -1.24865,-1.24851 v -3.26257 l 1.24865,-1.24864 z m -96.22582,1.04725 c 0.9255,0 1.69172,0.77742 1.69172,1.6917 v 4.02787 h -0.0402 c -0.12116,0.80415 -0.81976,1.40976 -1.65143,1.40976 -0.83712,0 -1.52409,-0.60561 -1.65143,-1.40976 v -4.02787 c 0,-0.91428 0.73176,-1.6917 1.65143,-1.6917 z m -18.93099,0.36251 h 7.25016 c 1.92276,0 3.46398,1.5284 3.46398,3.42368 v 0.16112 c 0,1.89528 -1.54122,3.42368 -3.46398,3.42368 h -7.25016 c -1.92275,0 -3.50425,-1.5284 -3.50425,-3.42368 v -0.16112 c 0,-1.89528 1.5815,-3.42368 3.50425,-3.42368 z m 27.30896,0.32222 c 0.10853,-0.0224 0.20725,0 0.32223,0 h 5.67931 c 0.79871,0.13771 1.40975,0.83069 1.40975,1.65142 0,0.83175 -0.61666,1.53014 -1.40975,1.65143 v 0.0402 h -5.67931 c -0.92529,0 -1.6917,-0.76643 -1.6917,-1.69172 0,-0.80006 0.60985,-1.49448 1.36947,-1.65141 z m 88.57286,0.0402 v 1.93338 h 1.93338 v -1.93338 z m 6.00153,0 v 1.93338 h 1.8931 v -1.93338 z m -32.78687,2.53756 h 2.05422 3.66535 5.96125 4.14871 1.5306 c 0.92529,0 1.6917,0.76632 1.6917,1.6917 0,0.9253 -0.76641,1.65143 -1.6917,1.65143 h -1.5306 v 7.41128 h 1.5306 c 0.92529,0 1.6917,0.76641 1.6917,1.6917 0,0.92539 -0.76641,1.65143 -1.6917,1.65143 h -1.5306 -4.14871 -5.96125 -3.66535 -2.05422 c -0.91985,0 -1.65141,-0.72604 -1.65141,-1.65143 0,-0.92529 0.73156,-1.6917 1.65141,-1.6917 h 2.05422 v -7.41136 h -2.05422 c -0.91985,0 -1.65141,-0.72613 -1.65141,-1.65143 0,-0.92538 0.73156,-1.6917 1.65141,-1.6917 z m -40.15786,0.0402 h 5.6793 v 0.0402 c 0.80958,0.13226 1.40975,0.82531 1.40975,1.65143 0,0.83723 -0.60017,1.52486 -1.40975,1.65143 h -5.6793 c -0.91424,0 -1.6917,-0.72612 -1.6917,-1.65143 0,-0.92537 0.77746,-1.69171 1.6917,-1.69171 z m 15.58785,0.24168 c 0.74482,0 1.36237,0.54464 1.36948,1.24863 v 0.0402 c 0,0.70875 -0.61962,1.28893 -1.36948,1.28893 -0.74984,0 -1.3292,-0.58018 -1.3292,-1.28893 0,-0.70871 0.57936,-1.28891 1.3292,-1.28891 z m 5.92099,0 c 0.74479,0 1.36233,0.54464 1.36947,1.24863 v 0.0402 c 0,0.70875 -0.61962,1.28893 -1.36947,1.28893 -0.74986,0 -1.36949,-0.58018 -1.36949,-1.28893 0,-0.70871 0.61963,-1.28891 1.36949,-1.28891 z m 5.88068,0 c 0.7448,0 1.36237,0.54464 1.36947,1.24863 v 0.0402 c 0,0.70875 -0.61962,1.28893 -1.36947,1.28893 -0.74985,0 -1.3292,-0.58018 -1.3292,-1.28893 0,-0.70871 0.57935,-1.28891 1.3292,-1.28891 z m 5.92097,0 c 0.7448,0 1.32207,0.54464 1.3292,1.24863 v 0.0402 c 0,0.70875 -0.57935,1.28893 -1.3292,1.28893 -0.74986,0 -1.36948,-0.58018 -1.36948,-1.28893 0,-0.70871 0.61962,-1.28891 1.36948,-1.28891 z m 10.23079,0.24166 c -0.68846,0 -1.24865,0.56017 -1.24865,1.24864 0,0.69951 0.56018,1.28892 1.24865,1.28892 0.69947,0 1.2889,-0.59487 1.2889,-1.28892 0,-0.68847 -0.5838,-1.24091 -1.2889,-1.24864 z m 10.59329,0 c -0.70512,0 -1.24864,0.56017 -1.24864,1.24864 0,0.69951 0.53811,1.28892 1.24864,1.28892 0.68845,0 1.24864,-0.59487 1.24864,-1.28892 0,-0.68847 -0.55477,-1.24091 -1.24864,-1.24864 z m 12.08362,1.1278 h 3.26256 2.77923 3.26258 l 1.24864,1.24865 v 3.26257 l -1.24864,1.24865 h -3.26258 -2.77923 -3.26256 l -1.24866,-1.24839 v -3.26258 l 1.24866,-1.24863 z m -87.48534,0.44308 h 5.71959 v 0.0402 c 0.79871,0.13224 1.40975,0.82532 1.40975,1.65143 0,0.83721 -0.61667,1.52484 -1.40975,1.65141 v 0.0402 h -5.71959 c -0.92529,0 -1.65142,-0.76634 -1.65142,-1.69171 0,-0.91984 0.73156,-1.6917 1.65142,-1.6917 z m 70.1252,0.88612 c -2.25103,0 -4.06814,1.85739 -4.06814,4.10843 0,2.25105 1.8171,4.06815 4.06814,4.06815 2.25106,0 4.06817,-1.8171 4.06817,-4.06815 0,-2.25104 -1.81711,-4.10843 -4.06817,-4.10843 z m 18.08515,0.44307 v 1.93345 h 1.93338 v -1.93337 z m 6.00153,0 v 1.93345 h 1.8931 v -1.93337 z m -70.7294,2.01393 h 14.54062 v 0.0806 c 2.40159,0.37444 4.26953,2.43717 4.26953,4.95428 0,2.51728 -1.86811,4.61456 -4.26953,4.99455 v 0.0806 h -14.54062 c -2.78713,0 -5.03484,-2.27711 -5.03484,-5.07512 0,-2.78707 2.24771,-5.03484 5.03484,-5.03484 z m -52.16091,1.36949 h 5.07511 c 0.3294,0 0.60418,0.3853 0.60418,0.88612 v 0.16112 c 0,0.50081 -0.27478,0.92641 -0.60418,0.92641 h -5.07511 c -0.3294,0 -0.60418,-0.4256 -0.60418,-0.92641 v -0.16112 c 0,-0.50082 0.27478,-0.88612 0.60418,-0.88612 z m 7.89462,0 h 5.1154 c 0.3294,0 0.56391,0.3853 0.56391,0.88612 v 0.16112 c 0,0.50081 -0.23451,0.92641 -0.56391,0.92641 h -5.1154 c -0.32939,0 -0.60417,-0.4256 -0.60417,-0.92641 v -0.16112 c 0,-0.50082 0.27478,-0.88612 0.60417,-0.88612 z m 20.82408,0 h 5.71959 v 0.0402 c 0.79872,0.12669 1.40975,0.81976 1.40975,1.65143 0,0.83166 -0.61666,1.53001 -1.40975,1.65142 h -5.71959 c -0.92529,0 -1.65143,-0.72604 -1.65143,-1.65142 0,-0.92531 0.73157,-1.69171 1.65143,-1.69171 z m 87.44507,0.80556 h 3.26256 2.77923 3.26258 l 1.24864,1.24865 v 3.26257 l -1.24864,1.24864 h -3.26258 -2.77923 -3.26256 l -1.24866,-1.24838 V 391.795 l 1.24866,-1.24863 z m 0.72501,1.81254 v 1.89311 h 1.93338 v -1.89311 z m 6.00153,0 v 1.89311 h 1.8931 v -1.89311 z m -29.36318,1.69171 c -0.69661,0 -1.28892,0.55204 -1.28892,1.24864 0,0.69661 0.59231,1.24864 1.28892,1.24864 0.69662,0 1.24863,-0.55203 1.24863,-1.24864 0,-0.6966 -0.55201,-1.24864 -1.24863,-1.24864 z m 10.55301,0 c -0.6966,0 -1.24863,0.55204 -1.24863,1.24864 0,0.69661 0.55203,1.24864 1.24863,1.24864 0.69661,0 1.24865,-0.55203 1.24865,-1.24864 0,-0.6966 -0.55204,-1.24864 -1.24865,-1.24864 z m -75.44199,0.40278 h 5.67931 v 0.0402 c 0.79871,0.13215 1.40974,0.82523 1.40974,1.65142 0,0.84276 -0.61666,1.50107 -1.40974,1.61115 v 0.0402 h -5.67931 c -0.92529,0 -1.69171,-0.72612 -1.69171,-1.65142 0,-0.92531 0.77185,-1.6917 1.69171,-1.6917 z m 47.93165,1.36949 h 5.71959 v 0.0402 c 0.79871,0.1377 1.40975,0.81976 1.40975,1.65142 0,0.83168 -0.61104,1.51917 -1.40975,1.65142 v 0.0402 h -5.71959 c -0.93092,0 -1.65142,-0.76085 -1.65142,-1.69171 0,-0.92528 0.7205,-1.69171 1.65142,-1.69171 z m -70.7294,2.41672 h 11.80167 c 0.97703,0 1.77226,0.75495 1.77226,1.73198 v 1.04725 h 2.73895 v 1.89309 h -2.73895 v 1.85282 h 2.73895 v 1.89311 h -2.73895 v 1.85281 h 2.73895 v 1.8931 h -2.73895 v 0.80558 c 0,0.97702 -0.79523,1.73197 -1.77226,1.73197 h -11.80167 c -0.97702,0 -1.77226,-0.75495 -1.77226,-1.73197 v -0.80558 h -2.73895 v -1.8931 h 2.73895 v -1.85281 h -2.73895 v -1.89311 h 2.73895 v -1.85282 h -2.73895 v -1.89309 h 2.73895 v -1.04725 c 0,-0.97703 0.79524,-1.73198 1.77226,-1.73198 z m 32.06185,5.71957 h 2.457 v 2.90006 h 1.8931 v -2.90006 h 2.45701 v 2.90006 h 1.89309 v -2.90006 h 2.45701 v 2.90006 h 1.85281 v -2.90006 h 2.49729 v 2.90006 h 1.85282 v -2.90006 h 2.457 v 2.90006 h 1.89309 v -2.90006 h 2.45701 v 2.90006 h 1.85281 v -2.90006 h 2.457 v 2.90006 h 1.8931 v -2.90006 h 2.457 v 2.90006 h 1.85282 v -2.90006 h 2.457 v 2.90006 h 1.8931 v -2.90006 h 2.457 v 2.90006 h 1.85283 v -2.90006 h 2.49727 v 2.90006 h 1.85282 v -2.90006 h 2.457 v 2.90006 h 1.89311 v -2.90006 h 2.45699 v 2.90006 h 1.8931 v -2.90006 h 2.457 v 2.90006 h 1.85282 v -2.90006 h 2.457 v 2.90006 h 1.8931 v -2.90006 h 2.457 v 2.90006 h 1.85282 v -2.90006 h 2.457 v 2.90006 h 1.89311 v -2.90006 h 2.45699 v 2.90006 h 1.85282 c 0.24724,0 0.44306,0.52909 0.44306,1.16809 v 13.17113 c 0,0.63901 -0.19582,1.16808 -0.44306,1.16808 h -1.85282 v 2.81951 h -2.45699 v -2.81951 h -1.89311 v 2.81951 h -2.457 v -2.81951 h -1.85282 v 2.81951 h -2.457 v -2.81951 h -1.8931 v 2.81951 h -2.457 v -2.81951 h -1.85282 v 2.81951 h -2.457 v -2.81951 h -1.8931 v 2.81951 h -2.45699 v -2.81951 h -1.89311 v 2.81951 h -2.457 v -2.81951 h -1.85282 v 2.81951 h -2.49727 v -2.81951 h -1.85283 v 2.81951 h -2.457 v -2.81951 h -1.8931 v 2.81951 h -2.457 v -2.81951 h -1.85282 v 2.81951 h -2.457 v -2.81951 h -1.8931 v 2.81951 h -2.457 v -2.81951 h -1.85281 v 2.81951 h -2.45701 v -2.81951 h -1.89309 v 2.81951 h -2.457 v -2.81951 h -1.85282 v 2.81951 h -2.49729 v -2.81951 h -1.85281 v 2.81951 h -2.45701 v -2.81951 h -1.89309 v 2.81951 h -2.45701 v -2.81951 h -1.8931 v 2.81951 h -2.457 v -2.81951 h -0.68473 c -0.24724,0 -0.44306,-0.52907 -0.44306,-1.16808 v -13.17113 c 0,-0.639 0.19582,-1.16809 0.44306,-1.16809 h 0.68473 z m -60.74027,0.40279 h 16.87677 v 1.20836 h 3.90703 v 0.0402 c 0.80416,0.13217 1.40975,0.81976 1.40975,1.65143 0,0.8262 -0.61104,1.47899 -1.40975,1.61115 v 0.0402 h -3.90703 v 2.09449 h 3.90703 v 0.0402 c 0.80416,0.14328 1.40975,0.81975 1.40975,1.65142 0,0.83176 -0.61104,1.51919 -1.40975,1.65143 h -3.90703 v 2.09449 h 3.90703 v 0.0402 c 0.80416,0.13225 1.40975,0.8142 1.40975,1.65141 0,0.83723 -0.61104,1.53568 -1.40975,1.65143 h -3.90703 v 0.60418 H 120.5391 v -1.93338 h -2.90008 v -12.12415 h 2.90008 v -1.97366 z m 26.18115,16.03092 h 14.58089 v 6.64598 h -14.58089 z m -39.15089,3.14174 c -0.26619,0.0873 -0.45697,0.36468 -0.44307,0.64446 v 20.90464 c 3e-5,0.33742 0.30703,0.64442 0.64445,0.64446 h 7.29045 c 0.33742,-4e-5 0.64442,-0.30704 0.64446,-0.64446 v -0.52361 h 22.91858 c 0.33743,-6e-5 0.64442,-0.30705 0.64446,-0.64448 v -18.28652 c -4e-5,-0.33744 -0.30703,-0.64442 -0.64446,-0.64446 h -22.91858 v -0.80557 c -4e-5,-0.33743 -0.30704,-0.64442 -0.64446,-0.64446 h -7.29045 c -0.0402,-0.004 -0.0808,-0.004 -0.12077,0 -0.0268,-8.8e-4 -0.0538,-8.8e-4 -0.0806,0 z m 48.29416,5.51818 c 4.50851,0 8.17656,3.66938 8.17656,8.21686 0,4.54739 -3.66805,8.25712 -8.17656,8.25712 -4.50853,0 -8.17658,-3.70973 -8.17658,-8.25712 0,-4.54748 3.66806,-8.21686 8.17658,-8.21686 z m 18.48792,0.0402 c 4.50851,0 8.17656,3.66938 8.17656,8.21685 0,4.5474 -3.66805,8.25713 -8.17656,8.25713 -4.50849,0 -8.17657,-3.70973 -8.17657,-8.25713 0,-4.54747 3.66808,-8.21685 8.17657,-8.21685 z m 94.29243,2.09449 c 1.99755,0 3.62508,1.61636 3.62508,3.62508 0,2.00305 -1.61075,3.62509 -3.62508,3.62509 -1.99182,0 -3.62508,-1.62195 -3.62508,-3.62509 0,-2.00306 1.62755,-3.62508 3.62508,-3.62508 z m -82.16855,12.96974 h 35.80777 v 5.96124 h -35.80777 z m 41.88985,0 h 35.80776 v 5.96124 h -35.80776 z m -40.03703,1.81255 v 2.29588 h 2.2959 v -2.29588 z m 5.96124,0 v 2.29588 h 2.33618 v -2.29588 z m 6.00152,0 v 2.29588 h 2.2959 v -2.29588 z m 5.96126,0 v 2.29588 h 2.29589 v -2.29588 z m 5.96125,0 v 2.29588 h 2.29589 v -2.29588 z m 5.96124,0 v 2.29588 h 2.2959 v -2.29588 z m 12.04334,0 v 2.29588 h 2.2959 v -2.29588 z m 5.96125,0 v 2.29588 h 2.29588 v -2.29588 z m 6.00151,0 v 2.29588 h 2.2959 v -2.29588 z m 5.92098,0 v 2.29588 h 2.33615 v -2.29588 z m 6.00153,0 v 2.29588 h 2.29589 v -2.29588 z m 5.96123,0 v 2.29588 h 2.29591 v -2.29588 z"
     id="path4346"
     inkscape:connector-curvature="0" />
  <g
     inkscape:label="Image"
     id="g15"
     transform="matrix(0.175618,0,0,0.175618,443.07272,328.38793)">
    <path
       id="rect846"
       style="fill:#000000"
       d="m 62.138672,85.386719 c -10.268892,0 -18.53711,8.268215 -18.53711,18.537111 v 502.5039 c 0,10.2689 8.268218,18.53711 18.53711,18.53711 h 9.210937 V 764.9375 c 0,10.26889 8.266268,18.53516 18.535157,18.53516 H 778.6582 c 10.26889,0 18.53516,-8.26627 18.53516,-18.53516 V 624.96484 h 10.89453 c 10.26889,0 18.53711,-8.26821 18.53711,-18.53711 v -502.5039 c 0,-10.268896 -8.26822,-18.537111 -18.53711,-18.537111 z M 622.9375,166.76953 a 120,120 0 0 1 120,120 120,120 0 0 1 -120,120 120,120 0 0 1 -120,-120 120,120 0 0 1 120,-120 z m -492.58789,3.37109 H 445.93555 V 403.40039 H 130.34961 Z m 15.09375,292.25977 h 98.79102 c 8.36162,0 15.09374,6.73213 15.09374,15.09375 v 46.65039 c 0,8.36162 -6.73212,15.09375 -15.09374,15.09375 h -98.79102 c -8.36162,0 -15.09375,-6.73213 -15.09375,-15.09375 v -46.65039 c 0,-8.36162 6.73213,-15.09375 15.09375,-15.09375 z m 186.60742,0 h 98.79102 c 8.36162,0 15.09375,6.73213 15.09375,15.09375 v 46.65039 c 0,8.36162 -6.73213,15.09375 -15.09375,15.09375 h -98.79102 c -8.36162,0 -15.09375,-6.73213 -15.09375,-15.09375 v -46.65039 c 0,-8.36162 6.73213,-15.09375 15.09375,-15.09375 z M 154.39453,623.35547 h 27.36328 v 28.48242 a 40,40 0 0 1 26.31836,37.58203 40,40 0 0 1 -40,40 40,40 0 0 1 -40,-40 40,40 0 0 1 26.31836,-37.47851 z m 106.97266,0 h 27.36328 v 28.48242 a 40,40 0 0 1 26.31836,37.58203 40,40 0 0 1 -40,40 40,40 0 0 1 -40,-40 40,40 0 0 1 26.31836,-37.47851 z m 106.9707,0 h 27.36328 v 28.48242 a 40,40 0 0 1 26.31836,37.58203 40,40 0 0 1 -40,40 40,40 0 0 1 -40,-40 40,40 0 0 1 26.31836,-37.47851 z m 106.97266,0 h 27.36328 v 28.48242 a 40,40 0 0 1 26.31836,37.58203 40,40 0 0 1 -40,40 40,40 0 0 1 -40,-40 40,40 0 0 1 26.31836,-37.47851 z m 106.97265,0 h 27.36328 v 28.48242 a 40,40 0 0 1 26.31836,37.58203 40,40 0 0 1 -40,40 40,40 0 0 1 -40,-40 40,40 0 0 1 26.31836,-37.47851 z m 106.97266,0 h 27.36328 v 28.48242 a 40,40 0 0 1 26.31836,37.58203 40,40 0 0 1 -40,40 40,40 0 0 1 -40,-40 40,40 0 0 1 26.31836,-37.47851 z m -521.17969,51.06445 a 15,15 0 0 0 -15,15 15,15 0 0 0 15,15 15,15 0 0 0 15,-15 15,15 0 0 0 -15,-15 z m 106.97266,0 a 15,15 0 0 0 -15,15 15,15 0 0 0 15,15 15,15 0 0 0 15,-15 15,15 0 0 0 -15,-15 z m 106.9707,0 a 15,15 0 0 0 -15,15 15,15 0 0 0 15,15 15,15 0 0 0 15,-15 15,15 0 0 0 -15,-15 z m 106.97266,0 a 15,15 0 0 0 -15,15 15,15 0 0 0 15,15 15,15 0 0 0 15,-15 15,15 0 0 0 -15,-15 z m 106.97265,0 a 15,15 0 0 0 -15,15 15,15 0 0 0 15,15 15,15 0 0 0 15,-15 15,15 0 0 0 -15,-15 z m 106.97266,0 a 15,15 0 0 0 -15,15 15,15 0 0 0 15,15 15,15 0 0 0 15,-15 15,15 0 0 0 -15,-15 z" />
    <circle
       style="display:none;fill:#ff0000;stroke:none;stroke-width:24.5;stroke-miterlimit:4;stroke-dasharray:none"
       id="circle4075"
       cx="168.07649"
       cy="689.42084"
       r="16" />
    <circle
       style="display:none;fill:#ff0000;stroke:none;stroke-width:24.5;stroke-miterlimit:4;stroke-dasharray:none"
       id="circle4130"
       cx="275.04855"
       cy="689.42084"
       r="16" />
    <circle
       style="display:none;fill:#ff0000;stroke:none;stroke-width:24.5;stroke-miterlimit:4;stroke-dasharray:none"
       id="circle4173"
       cx="382.0206"
       cy="689.42084"
       r="16" />
    <circle
       style="display:none;fill:#ff0000;stroke:none;stroke-width:24.5;stroke-miterlimit:4;stroke-dasharray:none"
       id="circle4075-72"
       cx="488.99265"
       cy="689.42084"
       r="16" />
    <circle
       style="display:none;fill:#ff0000;stroke:none;stroke-width:24.5;stroke-miterlimit:4;stroke-dasharray:none"
       id="circle4254"
       cx="595.96472"
       cy="689.42084"
       r="16" />
    <circle
       style="display:none;fill:#ff0000;stroke:none;stroke-width:24.5;stroke-miterlimit:4;stroke-dasharray:none"
       id="circle4297"
       cx="702.93677"
       cy="689.42084"
       r="16" />
  </g>
  <g
     id="g628"
     transform="matrix(2.1373287,0,0,2.1373287,500.58285,193.73783)">
    <g
       id="g572">
	<path
   d="m 0,24.108 v 11.783 c 0,0.974 0.314,1.868 0.835,2.608 H 59.164 C 59.686,37.76 60,36.865 60,35.892 V 24.108 C 60,23.134 59.686,22.24 59.165,21.5 H 0.835 C 0.314,22.24 0,23.135 0,24.108 Z M 52,30.5 c 0.552,0 1,0.448 1,1 0,0.552 -0.448,1 -1,1 -0.552,0 -1,-0.448 -1,-1 0,-0.552 0.448,-1 1,-1 z m -2,-3 c 0.552,0 1,0.448 1,1 0,0.552 -0.448,1 -1,1 -0.552,0 -1,-0.448 -1,-1 0,-0.552 0.448,-1 1,-1 z m -2,3 c 0.552,0 1,0.448 1,1 0,0.552 -0.448,1 -1,1 -0.552,0 -1,-0.448 -1,-1 0,-0.552 0.448,-1 1,-1 z m -2,-3 c 0.552,0 1,0.448 1,1 0,0.552 -0.448,1 -1,1 -0.552,0 -1,-0.448 -1,-1 0,-0.552 0.448,-1 1,-1 z m -2,3 c 0.552,0 1,0.448 1,1 0,0.552 -0.448,1 -1,1 -0.552,0 -1,-0.448 -1,-1 0,-0.552 0.448,-1 1,-1 z m -2,-3 c 0.552,0 1,0.448 1,1 0,0.552 -0.448,1 -1,1 -0.552,0 -1,-0.448 -1,-1 0,-0.552 0.448,-1 1,-1 z m -2,3 c 0.552,0 1,0.448 1,1 0,0.552 -0.448,1 -1,1 -0.552,0 -1,-0.448 -1,-1 0,-0.552 0.448,-1 1,-1 z m -2,-3 c 0.552,0 1,0.448 1,1 0,0.552 -0.448,1 -1,1 -0.552,0 -1,-0.448 -1,-1 0,-0.552 0.448,-1 1,-1 z m -2,3 c 0.552,0 1,0.448 1,1 0,0.552 -0.448,1 -1,1 -0.552,0 -1,-0.448 -1,-1 0,-0.552 0.448,-1 1,-1 z m -2,-3 c 0.552,0 1,0.448 1,1 0,0.552 -0.448,1 -1,1 -0.552,0 -1,-0.448 -1,-1 0,-0.552 0.448,-1 1,-1 z m -23.5,-2 c 2.481,0 4.5,2.019 4.5,4.5 0,2.481 -2.019,4.5 -4.5,4.5 C 8.019,34.5 6,32.481 6,30 6,27.519 8.019,25.5 10.5,25.5 Z"
   id="path566" />

	<path
   d="M 59.165,19.5 C 59.686,18.76 60,17.865 60,16.892 V 5.108 C 60,2.567 57.933,0.5 55.392,0.5 H 4.608 C 2.067,0.5 0,2.567 0,5.108 v 11.783 c 0,0.974 0.314,1.868 0.835,2.608 h 58.33 z M 52,11.5 c 0.552,0 1,0.448 1,1 0,0.552 -0.448,1 -1,1 -0.552,0 -1,-0.448 -1,-1 0,-0.552 0.448,-1 1,-1 z m -2,-3 c 0.552,0 1,0.448 1,1 0,0.552 -0.448,1 -1,1 -0.552,0 -1,-0.448 -1,-1 0,-0.552 0.448,-1 1,-1 z m -2,3 c 0.552,0 1,0.448 1,1 0,0.552 -0.448,1 -1,1 -0.552,0 -1,-0.448 -1,-1 0,-0.552 0.448,-1 1,-1 z m -2,-3 c 0.552,0 1,0.448 1,1 0,0.552 -0.448,1 -1,1 -0.552,0 -1,-0.448 -1,-1 0,-0.552 0.448,-1 1,-1 z m -2,3 c 0.552,0 1,0.448 1,1 0,0.552 -0.448,1 -1,1 -0.552,0 -1,-0.448 -1,-1 0,-0.552 0.448,-1 1,-1 z m -2,-3 c 0.552,0 1,0.448 1,1 0,0.552 -0.448,1 -1,1 -0.552,0 -1,-0.448 -1,-1 0,-0.552 0.448,-1 1,-1 z m -2,3 c 0.552,0 1,0.448 1,1 0,0.552 -0.448,1 -1,1 -0.552,0 -1,-0.448 -1,-1 0,-0.552 0.448,-1 1,-1 z m -2,-3 c 0.552,0 1,0.448 1,1 0,0.552 -0.448,1 -1,1 -0.552,0 -1,-0.448 -1,-1 0,-0.552 0.448,-1 1,-1 z m -2,3 c 0.552,0 1,0.448 1,1 0,0.552 -0.448,1 -1,1 -0.552,0 -1,-0.448 -1,-1 0,-0.552 0.448,-1 1,-1 z m -2,-3 c 0.552,0 1,0.448 1,1 0,0.552 -0.448,1 -1,1 -0.552,0 -1,-0.448 -1,-1 0,-0.552 0.448,-1 1,-1 z m -23.5,-2 c 2.481,0 4.5,2.019 4.5,4.5 0,2.481 -2.019,4.5 -4.5,4.5 C 8.019,15.5 6,13.481 6,11 6,8.519 8.019,6.5 10.5,6.5 Z"
   id="path568" />

	<path
   d="M 0.835,40.5 C 0.314,41.24 0,42.135 0,43.108 V 54.891 C 0,57.433 2.067,59.5 4.608,59.5 h 50.783 c 2.541,0 4.608,-2.067 4.608,-4.608 V 43.108 c 0,-0.974 -0.314,-1.868 -0.835,-2.608 z m 9.665,13 C 8.019,53.5 6,51.481 6,49 c 0,-2.481 2.019,-4.5 4.5,-4.5 2.481,0 4.5,2.019 4.5,4.5 0,2.481 -2.019,4.5 -4.5,4.5 z m 23.5,-5 c -0.552,0 -1,-0.448 -1,-1 0,-0.552 0.448,-1 1,-1 0.552,0 1,0.448 1,1 0,0.552 -0.448,1 -1,1 z m 2,3 c -0.552,0 -1,-0.448 -1,-1 0,-0.552 0.448,-1 1,-1 0.552,0 1,0.448 1,1 0,0.552 -0.448,1 -1,1 z m 2,-3 c -0.552,0 -1,-0.448 -1,-1 0,-0.552 0.448,-1 1,-1 0.552,0 1,0.448 1,1 0,0.552 -0.448,1 -1,1 z m 2,3 c -0.552,0 -1,-0.448 -1,-1 0,-0.552 0.448,-1 1,-1 0.552,0 1,0.448 1,1 0,0.552 -0.448,1 -1,1 z m 2,-3 c -0.552,0 -1,-0.448 -1,-1 0,-0.552 0.448,-1 1,-1 0.552,0 1,0.448 1,1 0,0.552 -0.448,1 -1,1 z m 2,3 c -0.552,0 -1,-0.448 -1,-1 0,-0.552 0.448,-1 1,-1 0.552,0 1,0.448 1,1 0,0.552 -0.448,1 -1,1 z m 2,-3 c -0.552,0 -1,-0.448 -1,-1 0,-0.552 0.448,-1 1,-1 0.552,0 1,0.448 1,1 0,0.552 -0.448,1 -1,1 z m 2,3 c -0.552,0 -1,-0.448 -1,-1 0,-0.552 0.448,-1 1,-1 0.552,0 1,0.448 1,1 0,0.552 -0.448,1 -1,1 z m 2,-3 c -0.552,0 -1,-0.448 -1,-1 0,-0.552 0.448,-1 1,-1 0.552,0 1,0.448 1,1 0,0.552 -0.448,1 -1,1 z m 2,3 c -0.552,0 -1,-0.448 -1,-1 0,-0.552 0.448,-1 1,-1 0.552,0 1,0.448 1,1 0,0.552 -0.448,1 -1,1 z"
   id="path570" />

</g>
    <g
       id="g574">
</g>
    <g
       id="g576">
</g>
    <g
       id="g578">
</g>
    <g
       id="g580">
</g>
    <g
       id="g582">
</g>
    <g
       id="g584">
</g>
    <g
       id="g586">
</g>
    <g
       id="g588">
</g>
    <g
       id="g590">
</g>
    <g
       id="g592">
</g>
    <g
       id="g594">
</g>
    <g
       id="g596">
</g>
    <g
       id="g598">
</g>
    <g
       id="g600">
</g>
    <g
       id="g602">
</g>
  </g>
  <g
     id="g344"
     transform="matrix(0.36143979,0,0,0.36143979,-40.602339,116.50992)">
	<g
   id="g342">
		<path
   d="M 409.997,0 H 137.599 c -13.971,0 -25.264,11.312 -25.264,25.264 v 497.059 c 0,13.961 11.303,25.273 25.264,25.273 h 272.397 c 13.952,0 25.265,-11.312 25.265,-25.273 V 25.264 C 435.27,11.303 423.949,0 409.997,0 Z M 245.885,29.816 h 55.807 c 2.917,0 5.269,2.353 5.269,5.269 0,2.916 -2.352,5.269 -5.269,5.269 h -55.807 c -2.897,0 -5.269,-2.353 -5.269,-5.269 0,-2.916 2.372,-5.269 5.269,-5.269 z m 61.612,472.837 H 240.09 c -5.527,0 -10.012,-4.476 -10.012,-10.003 0,-5.526 4.485,-10.002 10.012,-10.002 h 67.406 c 5.526,0 9.992,4.476 9.992,10.002 10e-4,5.528 -4.455,10.003 -9.991,10.003 z M 403.685,443.69 H 143.911 V 85.642 h 259.774 z"
   id="path340" />

	</g>

</g>
  <g
     id="g346"
     transform="matrix(0.36143979,0,0,0.36143979,-39.141908,104.82647)">
</g>
  <g
     id="g348"
     transform="matrix(0.36143979,0,0,0.36143979,-39.141908,104.82647)">
</g>
  <g
     id="g350"
     transform="matrix(0.36143979,0,0,0.36143979,-39.141908,104.82647)">
</g>
  <g
     id="g352"
     transform="matrix(0.36143979,0,0,0.36143979,-39.141908,104.82647)">
</g>
  <g
     id="g354"
     transform="matrix(0.36143979,0,0,0.36143979,-39.141908,104.82647)">
</g>
  <g
     id="g356"
     transform="matrix(0.36143979,0,0,0.36143979,-39.141908,104.82647)">
</g>
  <g
     id="g358"
     transform="matrix(0.36143979,0,0,0.36143979,-39.141908,104.82647)">
</g>
  <g
     id="g360"
     transform="matrix(0.36143979,0,0,0.36143979,-39.141908,104.82647)">
</g>
  <g
     id="g362"
     transform="matrix(0.36143979,0,0,0.36143979,-39.141908,104.82647)">
</g>
  <g
     id="g364"
     transform="matrix(0.36143979,0,0,0.36143979,-39.141908,104.82647)">
</g>
  <g
     id="g366"
     transform="matrix(0.36143979,0,0,0.36143979,-39.141908,104.82647)">
</g>
  <g
     id="g368"
     transform="matrix(0.36143979,0,0,0.36143979,-39.141908,104.82647)">
</g>
  <g
     id="g370"
     transform="matrix(0.36143979,0,0,0.36143979,-39.141908,104.82647)">
</g>
  <g
     id="g372"
     transform="matrix(0.36143979,0,0,0.36143979,-39.141908,104.82647)">
</g>
  <g
     id="g374"
     transform="matrix(0.36143979,0,0,0.36143979,-39.141908,104.82647)">
</g>
  <g
     id="g258"
     transform="matrix(0.78003376,0,0,0.78003376,294.14341,141.90162)">
    <path
       d="M 0,0 H 127.964 V 58.174 H 0 Z"
       fill="#0a73b1"
       id="path10"
       style="fill:#000000" />
    <g
       fill="#28220b"
       class="B"
       id="g28">
      <path
         d="M 38.853,10.002 H 67.607 V 38.586 H 38.853 Z"
         id="path24" />
      <path
         d="M 39.502,24.435 V 10.82 h 27.88 v 27.23 h -27.88 z m 3.056,4.1 c 0.223,-0.314 0.25,-0.747 0.07,-1.082 -0.084,-0.154 -0.084,-0.256 0,-0.307 0.2,-0.116 0.15,-0.712 -0.07,-1.02 -0.167,-0.235 -0.31,-0.274 -1,-0.274 h -0.806 v 2.957 h 0.806 c 0.69,0 0.833,-0.04 1,-0.274 z m 2.695,0.09 c 0,-0.103 -0.11,-0.185 -0.25,-0.185 -0.233,0 -0.25,-0.082 -0.25,-1.232 v -1.232 h -0.5 c -0.374,0 -0.5,0.05 -0.5,0.196 0,0.108 0.113,0.225 0.25,0.26 0.223,0.058 0.25,0.168 0.25,1.036 0,0.89 -0.02,0.97 -0.25,0.97 -0.14,0 -0.25,0.082 -0.25,0.185 0,0.144 0.167,0.185 0.75,0.185 0.583,0 0.75,-0.04 0.75,-0.185 z m 3,-0.876 c 0,-0.952 -0.02,-1.034 -0.25,-1.034 -0.22,0 -0.25,0.082 -0.25,0.674 0,0.618 -0.03,0.7 -0.36,0.858 -0.43,0.22 -0.516,0.157 -0.516,-0.367 0,-0.65 -0.145,-1.165 -0.328,-1.165 -0.13,0 -0.172,0.21 -0.172,0.852 0,1.24 0.002,1.243 1.013,1.228 l 0.862,-0.013 v -1.034 z m 2.75,0.876 c 0,-0.133 -0.138,-0.185 -0.5,-0.185 -0.554,0 -0.885,-0.097 -0.885,-0.26 0,-0.06 0.31,-0.1 0.688,-0.1 h 0.688 v -0.452 c 0,-0.616 -0.292,-0.903 -0.916,-0.903 -0.736,0 -0.96,0.257 -0.96,1.103 0,0.383 0.068,0.762 0.15,0.843 0.082,0.081 0.492,0.148 0.938,0.148 0.617,0 0.788,-0.04 0.788,-0.185 z m 2.727,-0.216 c 0.044,-0.377 -0.215,-0.466 -0.47,-0.16 -0.266,0.316 -0.506,0.083 -0.506,-0.49 0,-0.512 0.017,-0.535 0.406,-0.572 0.26,-0.025 0.406,-0.105 0.406,-0.223 0,-0.118 -0.146,-0.2 -0.406,-0.223 -0.337,-0.032 -0.406,-0.1 -0.406,-0.34 0,-0.218 -0.068,-0.3 -0.25,-0.3 -0.172,0 -0.25,0.082 -0.25,0.264 a 0.62,0.62 0 0 1 -0.219,0.431 c -0.208,0.16 -0.208,0.176 0,0.335 0.156,0.12 0.22,0.343 0.22,0.776 0,0.765 0.16,0.925 0.874,0.88 0.51,-0.033 0.567,-0.068 0.603,-0.375 z m 2.724,0.1 c 0.266,-0.4 0.175,-1.39 -0.15,-1.623 -0.346,-0.25 -1.135,-0.202 -1.427,0.085 -0.308,0.304 -0.34,1.175 -0.055,1.574 0.156,0.22 0.316,0.274 0.8,0.274 0.52,0 0.647,-0.048 0.822,-0.3 z m 2.696,0.107 c 0.167,-0.15 0.23,-0.38 0.23,-0.855 0,-0.767 -0.264,-1.035 -1.02,-1.035 -0.655,0 -1.03,0.475 -0.946,1.2 0.033,0.288 0.13,0.607 0.215,0.708 0.216,0.257 1.226,0.244 1.522,-0.02 z m 2.83,0.056 c 0.192,-0.2 0.195,-0.59 0.004,-0.59 -0.08,0 -0.246,0.09 -0.367,0.197 -0.32,0.286 -0.487,0.11 -0.487,-0.512 0,-0.52 0.017,-0.547 0.362,-0.547 0.2,0 0.392,-0.078 0.43,-0.173 0.092,-0.236 -0.02,-0.32 -0.428,-0.32 -0.263,0 -0.355,-0.066 -0.385,-0.276 -0.06,-0.4 -0.478,-0.446 -0.478,-0.04 0,0.2 -0.07,0.317 -0.188,0.317 -0.104,0 -0.188,0.1 -0.188,0.246 0,0.146 0.083,0.246 0.188,0.246 0.143,0 0.188,0.155 0.188,0.653 0,0.77 0.142,0.95 0.75,0.95 0.248,0 0.518,-0.067 0.6,-0.148 z m 1.525,-0.485 c 0,-0.66 0.2,-0.956 0.656,-0.965 0.18,-0.003 0.22,0.106 0.22,0.602 0,0.72 0.1,0.996 0.326,0.996 0.133,0 0.174,-0.214 0.174,-0.91 0,-1.08 -0.13,-1.25 -0.876,-1.152 -0.497,0.066 -0.5,0.065 -0.5,-0.354 0,-0.337 -0.05,-0.42 -0.25,-0.42 -0.236,0 -0.25,0.082 -0.25,1.417 0,1.335 0.014,1.417 0.25,1.417 0.218,0 0.25,-0.082 0.25,-0.633 z M 41.7,22.895 c 0.03,0 0.052,-0.47 0.052,-1.047 V 20.8 h 1.75 v 0.97 c 0,1.016 0.144,1.327 0.547,1.174 0.178,-0.067 0.203,-0.378 0.203,-2.528 v -2.45 h -0.3 c -0.38,0 -0.45,0.192 -0.45,1.242 v 0.852 h -1.74 l -0.036,-1.016 c -0.035,-0.993 -0.044,-1.016 -0.35,-1.016 h -0.313 l -0.034,2.394 c -0.035,2.45 0.01,2.694 0.45,2.533 0.092,-0.033 0.2,-0.06 0.22,-0.06 z m 6.98,0.048 c 0.11,-0.04 0.198,-0.207 0.198,-0.37 0,-0.278 -0.043,-0.295 -0.74,-0.295 -0.865,0 -0.94,-0.057 -1.436,-1.083 l -0.364,-0.754 0.853,-1.675 0.813,-0.062 c 0.776,-0.06 0.814,-0.077 0.852,-0.4 l 0.04,-0.34 h -0.987 c -0.862,0 -1.02,0.035 -1.25,0.277 -0.37,0.4 -1.03,1.812 -1.03,2.22 0,0.5 0.95,2.295 1.286,2.428 0.32,0.127 1.477,0.16 1.767,0.05 z m 9.028,10e-4 c 0.448,-0.12 0.547,-0.568 0.545,-2.49 -0.002,-2.478 0.037,-2.418 -1.627,-2.463 -1.796,-0.05 -1.747,-0.12 -1.747,2.514 0,2.524 -0.007,2.513 1.53,2.5 0.567,-10e-4 1.15,-0.033 1.297,-0.072 z m 4.867,-0.1 c 0.2,-0.15 0.243,-0.328 0.243,-1.304 0,-1.357 -0.1,-1.478 -1.212,-1.478 H 60.88 v -1.355 h 0.86 c 0.903,0 1.215,-0.158 1.067,-0.54 -0.065,-0.167 -0.293,-0.2 -1.377,-0.2 h -1.3 V 20.8 h 1.875 v 1.478 h -0.56 a 5.36,5.36 0 0 1 -1.132,-0.151 c -0.483,-0.127 -0.59,-0.123 -0.687,0.03 -0.17,0.267 -0.088,0.404 0.39,0.637 0.552,0.27 2.21,0.3 2.56,0.047 z m -9.51,-2.35 v -0.37 l -2.313,-0.07 v 0.354 c 0,0.195 0.04,0.393 0.088,0.44 0.048,0.047 0.57,0.07 1.156,0.05 l 1.07,-0.035 v -0.37 z"
         id="path26" />
    </g>
    <g
       fill="#222b00"
       class="B"
       id="g34">
      <path
         d="M 73.858,9.88 H 95.486 V 38.464 H 73.858 Z"
         id="path30" />
      <path
         d="M 73.882,24.558 V 10.82 H 95 V 38.295 H 73.882 Z"
         id="path32" />
    </g>
    <path
       d="m 38.853,9.756 h 28.63 V 38.71 h -28.63 z"
       class="B"
       id="path36" />
    <path
       d="M 39.45,24.434 V 10.758 H 67.33 V 38.1 H 39.45 Z m 2.963,4.25 c 0.24,-0.166 0.267,-0.298 0.264,-1.307 -0.005,-1.424 -0.132,-1.588 -1.226,-1.588 h -0.75 v 3.08 h 0.722 c 0.44,0 0.827,-0.072 1,-0.185 z m 2.85,-0.062 c 0,-0.102 -0.125,-0.202 -0.277,-0.224 -0.26,-0.037 -0.28,-0.107 -0.313,-1.232 L 44.637,25.973 H 44.2 c -0.5,0 -0.63,0.343 -0.156,0.4 0.265,0.037 0.28,0.097 0.28,1.016 0,0.885 -0.023,0.977 -0.243,0.977 -0.133,0 -0.277,0.055 -0.32,0.123 -0.164,0.262 0.108,0.38 0.792,0.345 0.53,-0.027 0.708,-0.083 0.708,-0.22 z m 2.32,0.12 c 0.167,-0.088 0.242,-0.088 0.242,0 0,0.07 0.084,0.128 0.188,0.128 0.152,0 0.188,-0.198 0.188,-1.04 0,-0.572 -0.053,-1.073 -0.12,-1.112 -0.18,-0.1 -0.38,0.352 -0.38,0.868 0,0.478 -0.252,0.78 -0.656,0.788 -0.186,0.003 -0.22,-0.114 -0.22,-0.784 0,-0.562 -0.05,-0.807 -0.175,-0.854 -0.278,-0.105 -0.325,0.027 -0.325,0.914 0,0.593 0.057,0.9 0.196,1.027 0.225,0.222 0.7,0.252 1.062,0.066 z m 3.43,-0.12 c 0,-0.135 -0.17,-0.195 -0.625,-0.223 -0.903,-0.055 -1.025,-0.27 -0.152,-0.27 0.666,0 0.715,-0.02 0.794,-0.33 0.125,-0.5 -0.184,-0.94 -0.742,-1.078 -0.4,-0.096 -0.523,-0.074 -0.8,0.136 -0.277,0.21 -0.348,0.36 -0.38,0.88 -0.054,0.896 0.23,1.16 1.2,1.1 0.534,-0.028 0.713,-0.083 0.713,-0.222 z m 2.616,0.053 c 0.273,-0.27 0.246,-0.546 -0.054,-0.546 -0.138,0 -0.25,0.06 -0.25,0.132 0,0.072 -0.127,0.114 -0.28,0.092 -0.24,-0.034 -0.287,-0.125 -0.32,-0.625 l -0.038,-0.585 h 0.454 c 0.364,0 0.445,-0.042 0.412,-0.216 -0.027,-0.14 -0.18,-0.23 -0.44,-0.254 -0.3,-0.03 -0.407,-0.105 -0.437,-0.308 -0.05,-0.344 -0.243,-0.346 -0.415,-0.006 a 2.88,2.88 0 0 1 -0.299,0.461 c -0.14,0.165 -0.133,0.2 0.036,0.273 0.146,0.055 0.202,0.236 0.202,0.652 0,0.76 0.262,1.123 0.8,1.123 0.232,0 0.5,-0.087 0.618,-0.194 z m 2.67,0.002 c 0.227,-0.157 0.278,-0.3 0.276,-0.832 -0.001,-0.352 -0.043,-0.7 -0.094,-0.775 -0.286,-0.42 -1.18,-0.5 -1.6,-0.157 -0.25,0.204 -0.222,1.447 0.04,1.73 0.262,0.283 1.007,0.298 1.4,0.034 z m 2.8,-0.012 c 0.283,-0.253 0.327,-1.533 0.06,-1.752 -0.43,-0.352 -1.326,-0.265 -1.6,0.157 -0.05,0.075 -0.093,0.423 -0.094,0.775 -0.002,0.523 0.05,0.675 0.276,0.832 0.364,0.25 1.08,0.245 1.37,-0.012 z m 2.908,-0.068 c 0.25,-0.352 0.053,-0.592 -0.306,-0.372 -0.486,0.3 -0.624,0.196 -0.624,-0.465 v -0.616 h 0.438 c 0.3,0 0.438,-0.058 0.438,-0.172 0,-0.187 -0.262,-0.32 -0.627,-0.32 -0.144,0 -0.246,-0.104 -0.27,-0.277 -0.05,-0.343 -0.396,-0.367 -0.455,-0.03 -0.024,0.136 -0.137,0.32 -0.252,0.408 -0.194,0.15 -0.193,0.173 0.01,0.322 0.158,0.116 0.22,0.333 0.22,0.784 0,0.744 0.215,1.012 0.814,1.012 0.293,0 0.48,-0.083 0.615,-0.272 z m 1.446,-0.402 c 0,-0.62 0.03,-0.7 0.362,-0.86 0.478,-0.244 0.6,-0.083 0.66,0.798 0.03,0.5 0.087,0.674 0.226,0.674 0.15,0 0.186,-0.18 0.18,-0.9 -0.01,-1.188 -0.3,-1.442 -1.2,-1.064 -0.184,0.076 -0.22,0.023 -0.22,-0.333 0,-0.5 -0.102,-0.638 -0.332,-0.45 -0.12,0.098 -0.168,0.493 -0.168,1.395 0,1.275 0.035,1.422 0.333,1.422 0.12,0 0.167,-0.195 0.167,-0.674 z M 41.75,22.76 c 0.042,-0.107 0.076,-0.578 0.076,-1.047 v -0.852 h 1.75 v 2.1 l 0.688,-0.078 0.034,-2.354 c 0.036,-2.47 -0.02,-2.75 -0.518,-2.563 -0.165,0.063 -0.203,0.27 -0.203,1.1 V 20.1 h -1.75 v -0.87 c 0,-0.916 -0.14,-1.347 -0.438,-1.347 -0.098,0 -0.237,0.107 -0.308,0.238 -0.138,0.254 -0.185,4.282 -0.054,4.618 0.042,0.107 0.204,0.195 0.362,0.195 0.158,0 0.32,-0.088 0.362,-0.195 z m 7.182,-0.098 c 0.064,-0.33 -0.2,-0.442 -1,-0.444 L 47.215,22.216 46.838,21.48 c -0.207,-0.405 -0.377,-0.85 -0.377,-1 0,-0.363 0.7,-1.68 0.942,-1.77 0.112,-0.042 0.482,-0.077 0.823,-0.077 0.665,0 0.898,-0.213 0.6,-0.556 -0.193,-0.23 -1.426,-0.246 -1.874,-0.026 -0.455,0.224 -1.24,1.74 -1.246,2.402 -0.004,0.6 0.7,2.138 1.088,2.36 0.122,0.07 0.642,0.116 1.157,0.1 0.804,-0.025 0.943,-0.062 0.98,-0.26 z m 9.075,0.1 c 0.164,-0.16 0.196,-0.552 0.196,-2.334 0,-2.592 0.044,-2.524 -1.625,-2.524 -1.669,0 -1.625,-0.075 -1.625,2.57 0,1.536 0.045,2.23 0.15,2.334 0.24,0.237 2.656,0.2 2.904,-0.046 z m 4.626,0 c 0.147,-0.145 0.196,-0.45 0.196,-1.223 0,-1.288 -0.103,-1.417 -1.134,-1.417 h -0.74 v -1.468 l 0.905,-0.036 c 0.77,-0.03 0.912,-0.07 0.95,-0.268 0.07,-0.36 -0.2,-0.442 -1.45,-0.444 l -1.156,-0.002 v 2.957 h 1.875 v 1.376 l -0.844,-0.064 -1.22,-0.103 c -0.305,-0.03 -0.382,0.01 -0.414,0.23 -0.063,0.438 0.492,0.644 1.75,0.65 0.825,0.004 1.132,-0.042 1.28,-0.2 z m -9.578,-2.3 -0.04,-0.4 h -1.05 c -1.104,0 -1.402,0.146 -1.225,0.6 0.065,0.166 0.278,0.202 1.215,0.202 h 1.137 l -0.04,-0.4 z M 0.222,1.008 h 25.63 v 53.35 H 0.222 Z"
       class="B"
       id="path38" />
    <path
       d="M 1.194,28.682 V 6.012 h 24.754 v 1.602 h 1.572 c 1.84,0 1.93,-0.044 1.93,-0.977 V 6.012 h 1.875 v 1.602 h 1.634 c 1.91,0 1.99,-0.04 1.99,-0.977 V 6.012 h 0.625 c 0.472,0 0.625,0.045 0.625,0.185 0,0.102 0.084,0.185 0.188,0.185 0.117,0 0.188,0.116 0.188,0.308 0,0.17 0.056,0.308 0.125,0.308 0.069,0 0.125,0.14 0.125,0.308 v 0.308 h 1.56 c 1.884,0 2.064,-0.09 2.064,-1.013 v -0.59 h 0.625 c 0.472,0 0.625,0.045 0.625,0.185 0,0.102 0.084,0.185 0.188,0.185 0.132,0 0.188,0.13 0.188,0.44 0,0.722 0.165,0.792 1.865,0.792 1.824,0 2.01,-0.094 2.01,-1.013 V 6.01 h 0.625 c 0.472,0 0.625,0.045 0.625,0.185 0,0.102 0.056,0.185 0.125,0.185 0.069,0 0.125,0.222 0.125,0.493 0,0.356 0.052,0.493 0.188,0.493 0.103,0 0.188,0.055 0.188,0.123 0,0.076 0.607,0.123 1.572,0.123 1.84,0 1.93,-0.044 1.93,-0.977 V 6.01 h 1.247 l 0.08,0.493 c 0.044,0.27 0.13,0.493 0.19,0.493 0.06,0 0.11,0.06 0.11,0.132 0,0.393 0.36,0.484 1.93,0.484 0.964,0 1.572,-0.048 1.572,-0.123 0,-0.068 0.084,-0.123 0.188,-0.123 0.144,0 0.188,-0.157 0.188,-0.678 V 6.01 h 1.25 v 0.603 c 0,0.54 0.032,0.61 0.313,0.68 0.172,0.043 0.313,0.132 0.313,0.198 0,0.073 0.624,0.12 1.56,0.12 1.884,0 2.064,-0.09 2.064,-1.013 v -0.59 h 0.548 c 0.6,0 0.697,0.136 0.7,0.89 10e-4,0.255 0.077,0.355 0.314,0.414 0.172,0.043 0.313,0.127 0.313,0.187 0,0.06 0.647,0.1 1.438,0.1 0.875,0 1.438,-0.048 1.438,-0.123 0,-0.068 0.14,-0.123 0.313,-0.123 0.295,0 0.313,-0.037 0.313,-0.678 V 5.997 h 0.61 c 0.658,0 0.76,0.118 0.763,0.885 0.001,0.22 0.084,0.356 0.252,0.41 0.138,0.043 0.25,0.13 0.25,0.193 0,0.063 0.656,0.115 1.5,0.115 0.825,0 1.5,-0.05 1.5,-0.1 0,-0.05 0.14,-0.145 0.313,-0.187 0.28,-0.07 0.313,-0.14 0.313,-0.69 V 6.009 h 1.25 v 0.614 c 0,0.552 0.03,0.62 0.313,0.69 0.172,0.043 0.313,0.127 0.313,0.187 0,0.06 0.675,0.1 1.5,0.1 0.845,0 1.5,-0.05 1.5,-0.115 0,-0.065 0.113,-0.15 0.25,-0.193 0.167,-0.052 0.25,-0.187 0.252,-0.41 0.004,-0.692 0.126,-0.885 0.56,-0.885 0.434,0 0.557,0.193 0.56,0.885 10e-4,0.22 0.084,0.356 0.252,0.41 0.138,0.043 0.25,0.13 0.25,0.193 0,0.063 0.656,0.115 1.5,0.115 0.844,0 1.5,-0.05 1.5,-0.115 0,-0.065 0.113,-0.15 0.25,-0.193 0.167,-0.052 0.25,-0.187 0.252,-0.41 0.004,-0.767 0.105,-0.885 0.763,-0.885 h 0.61 v 0.614 c 0,0.552 0.03,0.62 0.313,0.69 0.172,0.043 0.313,0.127 0.313,0.187 0,0.06 0.675,0.1 1.5,0.1 0.845,0 1.5,-0.05 1.5,-0.115 0,-0.065 0.113,-0.15 0.25,-0.193 0.167,-0.052 0.25,-0.187 0.252,-0.41 0.004,-0.743 0.114,-0.885 0.686,-0.885 0.572,0 0.682,0.14 0.686,0.89 0.001,0.255 0.077,0.355 0.314,0.414 0.172,0.043 0.313,0.127 0.313,0.187 0,0.06 0.647,0.1 1.438,0.1 0.875,0 1.438,-0.048 1.438,-0.123 0,-0.068 0.084,-0.123 0.188,-0.123 0.135,0 0.188,-0.137 0.188,-0.493 0,-0.27 0.056,-0.493 0.125,-0.493 0.069,0 0.125,-0.083 0.125,-0.185 0,-0.155 0.264,-0.185 1.625,-0.185 1.361,0 1.625,0.03 1.625,0.185 0,0.102 0.056,0.185 0.125,0.185 0.069,0 0.125,0.4 0.125,0.924 V 8.192 H 97.59 c -0.472,0 -0.625,0.045 -0.625,0.185 0,0.102 -0.084,0.185 -0.188,0.185 -0.104,0 -0.188,0.083 -0.188,0.185 0,0.102 -0.056,0.185 -0.125,0.185 -0.075,0 -0.125,0.513 -0.125,1.294 0,1.603 0.122,1.787 1.188,1.787 h 0.688 v 1.602 H 97.59 c -0.344,0 -0.625,0.055 -0.625,0.123 0,0.068 -0.084,0.123 -0.188,0.123 -0.104,0 -0.188,0.083 -0.188,0.185 0,0.102 -0.056,0.185 -0.125,0.185 -0.076,0 -0.125,0.554 -0.125,1.417 V 17.1 h 1.875 v 0.933 c 0,1.136 -0.115,1.285 -0.99,1.285 -0.48,0 -0.634,0.045 -0.634,0.185 0,0.102 -0.056,0.185 -0.125,0.185 -0.076,0 -0.125,0.554 -0.125,1.417 v 1.417 h 0.813 c 0.64,0 0.813,0.04 0.813,0.185 0,0.102 0.056,0.185 0.125,0.185 0.069,0 0.125,0.4 0.125,0.924 v 0.924 h -0.813 c -0.64,0 -0.813,0.04 -0.813,0.185 0,0.102 -0.056,0.185 -0.125,0.185 -0.075,0 -0.125,0.513 -0.125,1.294 0,1.603 0.122,1.787 1.188,1.787 h 0.688 v 1.848 h -0.813 c -0.64,0 -0.813,0.04 -0.813,0.185 0,0.102 -0.056,0.185 -0.125,0.185 -0.076,0 -0.125,0.534 -0.125,1.355 0,1.672 0.113,1.848 1.188,1.848 h 0.688 v 1.848 h -0.813 c -0.64,0 -0.813,0.04 -0.813,0.185 0,0.102 -0.056,0.185 -0.125,0.185 -0.076,0 -0.125,0.554 -0.125,1.417 0,0.925 0.046,1.417 0.134,1.417 0.074,0 0.218,0.083 0.32,0.185 0.116,0.114 0.423,0.185 0.804,0.185 h 0.616 v 0.616 c 0,0.34 -0.056,0.616 -0.125,0.616 -0.069,0 -0.125,0.083 -0.125,0.185 0,0.133 -0.14,0.185 -0.5,0.185 -0.275,0 -0.5,0.055 -0.5,0.123 0,0.068 -0.06,0.123 -0.134,0.123 -0.388,0 -0.49,0.362 -0.49,1.715 0,1.71 0.092,1.858 1.153,1.858 h 0.722 v 0.563 c 0,0.68 -0.205,0.915 -0.804,0.915 -0.314,0 -0.446,0.055 -0.446,0.185 0,0.102 -0.06,0.185 -0.134,0.185 -0.388,0 -0.49,0.362 -0.49,1.716 0,0.827 0.05,1.364 0.125,1.364 0.07,0 0.125,0.083 0.125,0.185 0,0.145 0.174,0.185 0.813,0.185 h 0.813 v 1.602 h -3.75 v -0.792 c 0,-0.54 -0.06,-0.85 -0.188,-0.977 -0.213,-0.2 -0.248,-0.45 -0.065,-0.45 0.067,0 0.158,-0.14 0.2,-0.308 0.042,-0.168 0.13,-0.308 0.2,-0.308 0.07,0 0.11,-1.333 0.11,-3.02 l -0.125,-3.02 c -0.07,0 -0.125,-0.083 -0.125,-0.185 0,-0.15 -0.207,-0.185 -1.115,-0.185 -0.613,0 -1.204,0.034 -1.313,0.075 -0.174,0.066 -0.198,0.48 -0.198,3.388 0,2.863 0.025,3.313 0.188,3.313 0.103,0 0.188,0.055 0.188,0.123 0,0.068 -0.2,0.123 -0.447,0.123 -0.328,0 -0.545,0.096 -0.813,0.36 -0.324,0.32 -0.365,0.446 -0.365,1.11 v 0.75 h -1.375 v -0.8 c 0,-0.452 -0.055,-0.8 -0.125,-0.8 -0.07,0 -0.125,-0.083 -0.125,-0.185 0,-0.102 -0.056,-0.185 -0.125,-0.185 -0.069,0 -0.125,-0.055 -0.125,-0.123 0,-0.068 0.333,-0.123 0.75,-0.123 0.417,0 0.75,-0.055 0.75,-0.123 0,-0.068 0.08,-0.123 0.18,-0.123 0.1,0 0.267,-0.087 0.375,-0.194 0.168,-0.165 0.196,-0.632 0.196,-3.203 0,-2.928 -0.007,-3 -0.25,-3 -0.14,0 -0.25,-0.082 -0.25,-0.185 0,-0.152 -0.222,-0.185 -1.25,-0.185 -1.028,0 -1.25,0.033 -1.25,0.185 0,0.102 -0.056,0.185 -0.125,0.185 -0.069,0 -0.136,0.48 -0.15,1.14 l -0.025,1.14 -0.042,-1.016 c -0.023,-0.56 -0.096,-1.016 -0.162,-1.016 -0.073,0 -0.12,1.13 -0.12,2.895 l 0.125,2.895 c 0.07,0 0.136,-0.417 0.15,-0.955 l 0.025,-0.955 0.043,0.955 c 0.023,0.525 0.096,0.955 0.162,0.955 0.066,0 0.12,0.083 0.12,0.185 0,0.102 0.084,0.185 0.188,0.185 0.104,0 0.188,0.055 0.188,0.123 0,0.068 -0.42,0.123 -1.01,0.123 -0.988,0 -1.007,-0.005 -0.92,-0.277 0.048,-0.152 0.136,-0.296 0.196,-0.318 0.156,-0.06 0.14,-6.058 -0.017,-6.058 -0.07,0 -0.125,-0.083 -0.125,-0.185 0,-0.276 -2.273,-0.268 -2.554,0.01 -0.168,0.166 -0.196,0.644 -0.196,3.338 0,3.04 0.008,3.147 0.25,3.21 0.138,0.035 0.25,0.113 0.25,0.173 0,0.06 0.338,0.11 0.75,0.11 0.412,0 0.75,0.055 0.75,0.123 0,0.068 -0.056,0.123 -0.125,0.123 -0.069,0 -0.125,0.083 -0.125,0.185 0,0.102 -0.084,0.185 -0.188,0.185 -0.147,0 -0.188,0.17 -0.188,0.8 v 0.8 h -1.375 v -0.8 c 0,-0.452 -0.055,-0.8 -0.125,-0.8 -0.07,0 -0.125,-0.06 -0.125,-0.132 0,-0.263 -0.367,-0.484 -0.804,-0.484 -0.513,0 -0.596,-0.183 -0.134,-0.297 l 0.313,-0.077 v -3.14 c 0,-2.708 -0.026,-3.14 -0.188,-3.14 -0.103,0 -0.188,-0.083 -0.188,-0.185 0,-0.152 -0.222,-0.185 -1.25,-0.185 -1.028,0 -1.25,0.033 -1.25,0.185 0,0.102 -0.056,0.185 -0.125,0.185 -0.069,0 -0.136,0.48 -0.15,1.14 l -0.025,1.14 -0.042,-1.016 c -0.023,-0.56 -0.096,-1.016 -0.162,-1.016 -0.073,0 -0.12,1.13 -0.12,2.895 l 0.125,2.895 c 0.07,0 0.136,-0.438 0.15,-1.016 l 0.025,-1.016 0.042,1.016 c 0.023,0.56 0.096,1.016 0.162,1.016 0.066,0 0.12,0.083 0.12,0.185 0,0.102 0.084,0.185 0.188,0.185 0.24,0 0.24,0.177 0,0.414 -0.103,0.102 -0.188,0.244 -0.188,0.317 0,0.073 -0.056,0.132 -0.125,0.132 -0.069,0 -0.125,0.35 -0.125,0.8 v 0.8 H 78.58 v -0.8 c 0,-0.452 -0.054,-0.8 -0.125,-0.8 -0.071,0 -0.125,-0.06 -0.125,-0.132 0,-0.383 -0.367,-0.484 -1.75,-0.484 -1.383,0 -1.75,0.1 -1.75,0.484 0,0.073 -0.084,0.132 -0.188,0.132 -0.147,0 -0.188,0.17 -0.188,0.8 v 0.8 h -1.25 v -0.75 c 0,-0.663 -0.042,-0.8 -0.365,-1.11 -0.36,-0.355 -0.385,-0.36 -1.76,-0.36 -1.384,0 -1.75,0.1 -1.75,0.484 0,0.073 -0.056,0.132 -0.125,0.132 -0.069,0 -0.125,0.35 -0.125,0.8 v 0.8 h -1.375 v -0.75 c 0,-0.663 -0.042,-0.8 -0.365,-1.11 -0.36,-0.355 -0.386,-0.36 -1.75,-0.36 -0.9,0 -1.385,0.046 -1.385,0.132 0,0.17 -0.318,0.484 -0.49,0.484 -0.082,0 -0.134,0.313 -0.134,0.8 v 0.8 h -1.25 v -0.796 c 0,-0.564 -0.056,-0.842 -0.192,-0.955 l -0.366,-0.313 c -0.225,-0.2 -3.068,-0.22 -3.068,-0.022 0,0.17 -0.318,0.484 -0.49,0.484 -0.082,0 -0.134,0.313 -0.134,0.8 v 0.8 h -1.25 v -0.924 c 0,-0.74 -0.038,-0.924 -0.188,-0.924 -0.103,0 -0.188,-0.083 -0.188,-0.185 0,-0.154 -0.25,-0.185 -1.5,-0.185 -1.334,0 -1.528,0.027 -1.75,0.246 -0.138,0.136 -0.25,0.357 -0.25,0.493 0,0.136 -0.056,0.246 -0.125,0.246 -0.069,0 -0.125,0.277 -0.125,0.616 v 0.616 H 51.329 V 50.5 c 0,-0.698 -0.048,-0.91 -0.25,-1.11 -0.202,-0.2 -0.417,-0.246 -1.125,-0.246 -0.897,0 -1.045,-0.097 -0.688,-0.45 0.16,-0.157 0.188,-0.785 0.188,-4.11 l -0.076,-4.12 c -0.068,-0.174 -0.713,-0.195 -6,-0.195 H 37.45 v 4.12 l 0.188,4.303 c 0.3,0.296 0.22,0.45 -0.237,0.45 -0.433,0 -0.576,0.155 -0.576,0.626 0,0.13 -0.056,0.236 -0.125,0.236 -0.069,0 -0.125,0.305 -0.125,0.678 V 51.36 H 34.95 v -0.8 c 0,-0.44 -0.05,-0.8 -0.11,-0.8 -0.06,0 -0.147,-0.14 -0.2,-0.308 -0.078,-0.308 -0.08,-0.308 -1.625,-0.308 -1.79,0 -1.7,-0.07 -1.7,1.304 v 0.914 H 29.45 v -0.8 c 0,-0.44 -0.05,-0.8 -0.11,-0.8 -0.06,0 -0.147,-0.14 -0.2,-0.308 -0.078,-0.308 -0.08,-0.308 -1.64,-0.308 h -1.56 v 2.218 H 5.07 V 49.75 h 4.635 c 4.954,0 4.992,-0.005 4.992,-0.607 0,-0.14 0.056,-0.255 0.125,-0.255 0.08,0 0.125,-1.006 0.125,-2.772 l -0.125,-2.772 c -0.07,0 -0.125,-0.33 -0.125,-0.74 v -0.74 h -0.5 c -0.36,0 -0.5,-0.05 -0.5,-0.185 0,-0.16 -0.528,-0.185 -4,-0.185 -2.584,0 -4,-0.044 -4,-0.123 0,-0.068 -0.084,-0.123 -0.188,-0.123 -0.104,0 -0.188,-0.083 -0.188,-0.185 0,-0.102 -0.056,-0.185 -0.125,-0.185 -0.069,0 -0.125,-0.14 -0.125,-0.308 0,-0.192 0.07,-0.308 0.188,-0.308 0.103,0 0.188,0.055 0.188,0.123 0,0.08 1.354,0.123 3.813,0.123 l 3.813,-0.123 c 0,-0.07 0.354,-0.123 0.813,-0.123 0.64,0 0.813,-0.04 0.813,-0.185 0,-0.102 0.056,-0.185 0.125,-0.185 0.069,0 0.125,-0.222 0.125,-0.493 0,-0.356 0.052,-0.493 0.188,-0.493 0.16,0 0.188,-0.376 0.188,-2.65 0,-2.274 -0.027,-2.65 -0.188,-2.65 -0.117,0 -0.188,-0.116 -0.188,-0.308 0,-0.17 -0.056,-0.308 -0.125,-0.308 -0.069,0 -0.125,-0.166 -0.125,-0.37 v -0.37 h -0.813 c -0.458,0 -0.813,-0.054 -0.813,-0.123 0,-0.08 -1.417,-0.123 -4,-0.123 -2.362,0 -4,-0.047 -4,-0.114 0,-0.067 1.894,-0.13 4.584,-0.154 l 4.636,-0.194 c 0.03,-0.085 0.132,-0.154 0.23,-0.154 0.106,0 0.177,-0.124 0.177,-0.308 0,-0.17 0.056,-0.308 0.125,-0.308 0.069,0 0.125,-0.083 0.125,-0.185 0,-0.102 0.084,-0.185 0.188,-0.185 0.16,0 0.188,-0.397 0.188,-2.834 0,-2.437 -0.026,-2.834 -0.188,-2.834 -0.135,0 -0.188,-0.137 -0.188,-0.493 0,-0.27 -0.056,-0.493 -0.125,-0.493 -0.069,0 -0.125,-0.14 -0.125,-0.308 0,-0.246 -0.063,-0.308 -0.313,-0.308 -0.172,0 -0.313,-0.055 -0.313,-0.123 0,-0.08 -1.49,-0.124 -4.22,-0.125 l -4.5,-0.076 c -0.156,-0.04 -0.28,-0.17 -0.28,-0.3 0,-0.33 0.524,-0.37 5.095,-0.37 l 4.157,-0.125 c 0,-0.068 0.084,-0.123 0.188,-0.123 0.104,0 0.188,-0.083 0.188,-0.185 0,-0.102 0.056,-0.185 0.125,-0.185 0.069,0 0.125,-0.083 0.125,-0.185 0,-0.102 0.084,-0.185 0.188,-0.185 0.162,0 0.188,-0.425 0.188,-3.1 v -3.1 l -0.73,-0.72 H 10.01 c -5.07,0 -4.94,0.02 -4.94,-0.792 v -0.44 h 6.438 l 6.438,-0.185 c 0,-0.102 0.056,-0.185 0.125,-0.185 0.076,0 0.125,-0.537 0.125,-1.364 0,-1.113 -0.04,-1.402 -0.2,-1.57 C 17.804,9.504 17.133,9.487 10.161,9.487 L 2.484,9.641 c -0.03,0.085 -0.132,0.154 -0.23,0.154 -0.15,0 -0.177,0.58 -0.177,3.635 v 3.67 h 9.376 v 1.206 l -8.855,0.087 -0.26,0.296 c -0.25,0.286 -0.26,0.424 -0.26,3.973 l 0.177,3.677 c 0.097,0 0.2,0.07 0.23,0.154 0.04,0.118 1.08,0.162 4.51,0.19 l 4.46,0.035 v 1.223 H 7 l -4.657,0.207 c -0.185,0.182 -0.214,0.62 -0.247,3.635 l -0.037,3.428 h 2.13 c 1.337,0 2.13,0.046 2.13,0.123 0,0.068 0.084,0.123 0.188,0.123 0.104,0 0.188,-0.055 0.188,-0.123 0,-0.078 0.875,-0.123 2.375,-0.123 h 2.375 v 1.848 h -4.5 l -4.5,0.185 c 0,0.102 -0.084,0.185 -0.188,0.185 -0.162,0 -0.188,0.486 -0.188,3.635 0,3.149 0.025,3.635 0.188,3.635 0.117,0 0.188,0.116 0.188,0.308 v 0.308 h 9 V 46.67 H 6.99 c -4.405,0 -4.457,0.003 -4.688,0.265 -0.208,0.236 -0.233,0.49 -0.233,2.34 v 2.076 H 1.194 V 28.681 Z M 63.83,48.334 c 0,-0.102 0.06,-0.185 0.134,-0.185 0.074,0 0.218,-0.083 0.32,-0.185 0.143,-0.14 0.498,-0.185 1.482,-0.185 0.984,0 1.34,0.044 1.482,0.185 0.103,0.102 0.248,0.185 0.32,0.185 0.072,0 0.134,0.083 0.134,0.185 0,0.158 0.347,0.185 2.375,0.185 2.028,0 2.375,-0.027 2.375,-0.185 0,-0.102 0.084,-0.185 0.188,-0.185 0.104,0 0.188,-0.055 0.188,-0.123 0,-0.068 0.084,-0.123 0.188,-0.123 0.16,0 0.188,-0.36 0.188,-2.513 0,-2.177 -0.026,-2.523 -0.198,-2.587 -0.11,-0.04 -1.427,-0.075 -2.93,-0.075 -2.26,0 -2.764,0.032 -2.92,0.185 -0.14,0.138 -0.486,0.185 -1.37,0.185 -0.936,0 -1.198,-0.04 -1.255,-0.185 -0.1,-0.283 -5.72,-0.275 -6.01,0.01 -0.29,0.285 -0.296,4.98 -0.01,4.98 0.103,0 0.188,0.055 0.188,0.123 0,0.068 0.084,0.123 0.188,0.123 0.104,0 0.188,0.083 0.188,0.185 0,0.158 0.347,0.185 2.375,0.185 2.028,0 2.375,-0.027 2.375,-0.185 z m -8.824,-0.506 c 0.11,-0.04 0.198,-0.207 0.198,-0.37 0,-0.163 0.056,-0.295 0.125,-0.295 0.069,0 0.125,-0.43 0.125,-1.047 0,-0.617 -0.05,-1.047 -0.125,-1.047 -0.075,0 -0.125,-0.37 -0.125,-0.862 0,-0.492 0.054,-0.862 0.125,-0.862 0.071,0 0.125,-0.4 0.125,-0.924 0,-0.524 -0.053,-0.924 -0.125,-0.924 -0.072,0 -0.125,-0.14 -0.125,-0.308 0,-0.192 -0.07,-0.308 -0.188,-0.308 -0.103,0 -0.188,-0.055 -0.188,-0.123 0,-0.068 -0.435,-0.123 -1.054,-0.123 -0.944,0 -1.063,0.026 -1.134,0.246 -0.044,0.136 -0.132,0.246 -0.196,0.246 -0.064,0 -0.117,1.257 -0.117,3.08 l 0.125,3.08 c 0.07,0 0.125,0.102 0.125,0.226 0,0.124 0.038,0.263 0.083,0.308 0.104,0.103 2.076,0.11 2.344,0.007 z M 34.649,47.225 c 0.043,-0.17 0.13,-0.308 0.2,-0.308 0.07,0 0.11,-1.333 0.11,-3.02 v -3.02 h -0.313 c -0.172,0 -0.313,-0.055 -0.313,-0.123 0,-0.073 -0.458,-0.123 -1.125,-0.123 -0.667,0 -1.125,0.05 -1.125,0.123 0,0.068 -0.137,0.123 -0.304,0.123 -0.184,0 -0.327,0.085 -0.362,0.216 -0.032,0.12 -0.058,1.477 -0.057,3.02 0.001,2.312 0.03,2.803 0.175,2.803 0.096,0 0.174,0.083 0.174,0.185 0,0.102 0.084,0.185 0.188,0.185 0.104,0 0.188,0.055 0.188,0.123 0,0.074 0.5,0.123 1.248,0.123 1.227,0 1.25,-0.005 1.326,-0.308 z m -4.824,-2.218 c 0,-0.246 0.063,-0.308 0.313,-0.308 h 0.313 v -3.82 h -0.302 c -0.166,0 -0.324,-0.066 -0.35,-0.146 -0.072,-0.213 -8.87,-0.217 -8.943,-0.004 -0.028,0.082 -0.13,0.15 -0.228,0.15 -0.146,0 -0.177,0.36 -0.177,2.033 0,1.725 0.028,2.033 0.188,2.033 0.103,0 0.188,0.083 0.188,0.185 0,0.16 0.583,0.185 4.5,0.185 h 4.5 v -0.308 z m 42.184,-4.45 c 0.173,-0.065 0.198,-0.46 0.198,-3.14 0,-3.778 0.1,-3.56 -1.653,-3.56 -1.22,0 -1.222,0 -1.222,0.308 0,0.17 -0.056,0.308 -0.125,0.308 -0.069,0 -0.136,0.374 -0.15,0.832 l -0.024,0.832 -0.044,-0.77 c -0.024,-0.424 -0.098,-0.77 -0.163,-0.77 -0.072,0 -0.12,1.12 -0.12,2.834 l 0.12,2.834 c 0.066,0 0.14,-0.374 0.163,-0.832 l 0.044,-0.832 0.024,0.832 c 0.013,0.457 0.08,0.832 0.15,0.832 0.07,0 0.125,0.083 0.125,0.185 0,0.152 0.22,0.185 1.24,0.185 0.682,0 1.33,-0.034 1.438,-0.075 z m 23.45,-1.527 c 0.247,-0.244 0.25,-0.41 0.25,-14.415 l -0.123,-14.17 c -0.067,0 -0.158,-0.14 -0.2,-0.308 L 95.308,9.829 H 84.568 L 73.83,9.961 c 0,0.073 -0.084,0.215 -0.188,0.317 -0.165,0.162 -0.188,1.915 -0.188,14.274 l 0.188,14.274 c 0.103,0.102 0.188,0.244 0.188,0.317 0,0.093 3.17,0.132 10.69,0.132 10.522,0 10.693,-0.004 10.94,-0.246 z M 67.507,38.955 c 0.11,-0.04 0.198,-0.207 0.198,-0.37 0,-0.163 0.056,-0.295 0.125,-0.295 0.083,0 0.125,-4.66 0.125,-13.738 L 67.83,10.814 c -0.07,0 -0.125,-0.222 -0.125,-0.493 V 9.828 H 53.465 L 39.15,10.023 c -0.104,0.267 -0.097,28.82 0.008,28.923 0.105,0.103 28.077,0.1 28.348,0.007 z M 32.95,37.923 c 0,-0.07 0.375,-0.123 0.875,-0.123 0.5,0 0.875,0.053 0.875,0.123 0,0.07 0.378,0.123 0.885,0.123 0.81,0 0.915,-0.03 1.25,-0.36 0.347,-0.342 0.365,-0.413 0.365,-1.417 0,-0.622 -0.05,-1.057 -0.125,-1.057 -0.075,0 -0.125,-0.083 -0.125,-0.185 0,-0.102 -0.084,-0.185 -0.188,-0.185 -0.104,0 -0.188,-0.055 -0.188,-0.123 0,-0.08 -1.042,-0.123 -2.875,-0.123 -1.833,0 -2.875,0.045 -2.875,0.123 0,0.068 -0.138,0.123 -0.307,0.123 -0.252,0 -0.322,0.077 -0.39,0.434 -0.045,0.24 -0.06,0.784 -0.032,1.21 0.043,0.66 0.107,0.836 0.42,1.156 0.352,0.36 0.422,0.38 1.402,0.4 0.612,0.007 1.03,-0.038 1.03,-0.11 z m -8.626,-3.635 c 0,-2.012 -0.045,-3.142 -0.125,-3.142 -0.07,0 -0.125,-0.083 -0.125,-0.185 0,-0.153 -0.23,-0.185 -1.313,-0.185 H 21.448 V 32 c 0,0.853 -0.046,1.237 -0.153,1.272 -0.097,0.032 -0.17,0.398 -0.2,0.996 -0.04,0.807 -0.02,0.946 0.153,0.946 0.173,0 0.2,0.172 0.2,1.11 v 1.11 h 2.875 v -3.142 z m 4.172,2.865 c 0.04,-0.152 0.076,-0.65 0.077,-1.11 0.001,-0.658 -0.037,-0.832 -0.186,-0.832 -0.204,0 -0.262,-0.323 -0.07,-0.4 0.065,-0.023 0.156,-0.792 0.204,-1.7 0.076,-1.455 0.06,-1.695 -0.117,-1.87 -0.112,-0.11 -0.204,-0.26 -0.204,-0.333 0,-0.085 -0.447,-0.132 -1.26,-0.132 -1.246,0 -1.616,0.11 -1.616,0.484 0,0.073 -0.084,0.132 -0.188,0.132 -0.16,0 -0.188,0.397 -0.188,2.834 0,2.437 0.026,2.834 0.188,2.834 0.103,0 0.188,0.083 0.188,0.185 0,0.154 0.255,0.185 1.548,0.185 1.5,0 1.55,-0.01 1.624,-0.277 z m 43.7,-11.058 c 0,-3.775 0.095,-3.573 -1.688,-3.573 -1.184,0 -1.188,0.001 -1.188,0.308 0,0.17 -0.056,0.308 -0.125,0.308 -0.069,0 -0.136,0.417 -0.15,0.955 l -0.025,0.955 -0.043,-0.955 c -0.023,-0.525 -0.097,-0.955 -0.162,-0.955 -0.073,0 -0.12,1.1 -0.12,2.834 0,1.717 0.047,2.834 0.12,2.834 0.066,0 0.14,-0.374 0.163,-0.832 l 0.044,-0.832 0.024,0.837 c 0.013,0.46 0.095,0.916 0.18,1.012 0.117,0.13 0.51,0.176 1.563,0.18 l 1.406,0.005 v -3.08 z M 36.2,27.08 c 0,-0.068 0.084,-0.123 0.188,-0.123 0.162,0 0.188,-0.472 0.188,-3.51 v -3.51 h -1.25 v -0.924 c 0,-0.74 -0.038,-0.924 -0.188,-0.924 -0.103,0 -0.188,-0.083 -0.188,-0.185 0,-0.145 -0.174,-0.185 -0.813,-0.185 -0.618,0 -0.813,0.042 -0.813,0.175 0,0.096 -0.07,0.197 -0.153,0.225 -0.1,0.033 -0.143,0.277 -0.124,0.71 0.045,1.02 -0.014,1.107 -0.73,1.107 -0.34,0 -0.617,-0.055 -0.617,-0.123 0,-0.068 -0.257,-0.123 -0.572,-0.123 -0.466,0 -0.64,0.067 -0.938,0.36 -0.324,0.32 -0.365,0.446 -0.365,1.11 v 0.75 h 0.625 c 0.344,0 0.625,0.055 0.625,0.123 0,0.068 -0.28,0.123 -0.625,0.123 h -0.625 v 0.8 c 0,0.63 0.04,0.8 0.188,0.8 0.103,0 0.188,0.083 0.188,0.185 0,0.102 -0.084,0.185 -0.188,0.185 -0.147,0 -0.188,0.17 -0.188,0.8 0,0.487 0.052,0.8 0.134,0.8 0.074,0 0.214,0.08 0.313,0.176 0.099,0.096 0.18,0.235 0.18,0.308 0,0.073 0.197,0.132 0.438,0.132 0.275,0 0.438,0.06 0.438,0.16 0,0.088 0.098,0.28 0.22,0.43 0.2,0.26 0.306,0.27 2.438,0.27 1.397,10e-4 2.22,-0.044 2.22,-0.122 z M 72.205,15.93 c 0,-3.863 0.103,-3.636 -1.653,-3.636 H 69.33 v 0.37 c 0,0.203 -0.054,0.37 -0.12,0.37 -0.066,0 -0.14,0.374 -0.163,0.832 l -0.044,0.832 -0.024,-0.832 c -0.013,-0.457 -0.08,-0.832 -0.15,-0.832 -0.08,0 -0.125,1.027 -0.125,2.834 0,1.717 0.047,2.834 0.12,2.834 0.066,0 0.14,-0.374 0.163,-0.832 l 0.044,-0.832 0.024,0.832 c 0.013,0.457 0.08,0.832 0.15,0.832 0.07,0 0.125,0.083 0.125,0.185 0,0.154 0.243,0.185 1.438,0.185 h 1.438 v -3.14 z m -47.882,0.245 c 0,-0.192 0.07,-0.308 0.188,-0.308 0.162,0 0.188,-0.418 0.188,-3.02 v -3.02 h -0.313 c -0.172,0 -0.313,-0.055 -0.313,-0.123 0,-0.068 -0.084,-0.123 -0.188,-0.123 -0.104,0 -0.188,-0.083 -0.188,-0.185 0,-0.144 -0.17,-0.185 -0.767,-0.185 -0.658,0 -0.808,0.044 -1.057,0.308 -0.16,0.17 -0.405,0.308 -0.546,0.308 -0.25,0 -0.256,0.06 -0.256,3.02 0,2.6 0.026,3.02 0.188,3.02 0.103,0 0.188,0.058 0.188,0.128 0,0.38 0.328,0.478 1.594,0.483 l 1.28,0.005 v -0.308 z m 3.876,0 c 0,-0.192 0.07,-0.308 0.188,-0.308 0.16,0 0.188,-0.402 0.188,-2.877 0,-2.632 -0.02,-2.9 -0.233,-3.142 -0.128,-0.146 -0.297,-0.265 -0.375,-0.265 -0.078,0 -0.142,-0.083 -0.142,-0.185 0,-0.148 -0.188,-0.185 -0.938,-0.185 -0.75,0 -0.938,0.037 -0.938,0.185 0,0.102 -0.06,0.185 -0.134,0.185 -0.074,0 -0.214,0.08 -0.313,0.176 -0.145,0.143 -0.18,0.736 -0.18,3.142 0,1.895 0.045,2.966 0.125,2.966 0.07,0 0.125,0.14 0.125,0.308 v 0.308 h 2.625 v -0.308 z m 7.198,0.132 c 0.098,-0.097 0.18,-0.235 0.18,-0.308 0,-0.073 0.084,-0.132 0.188,-0.132 0.16,0 0.188,-0.396 0.188,-2.824 0,-1.553 -0.034,-2.91 -0.076,-3.02 -0.042,-0.11 -0.182,-0.195 -0.313,-0.195 -0.131,0 -0.237,-0.055 -0.237,-0.123 0,-0.068 -0.084,-0.123 -0.188,-0.123 -0.104,0 -0.188,-0.083 -0.188,-0.185 0,-0.148 -0.188,-0.185 -0.938,-0.185 -0.75,0 -0.938,0.037 -0.938,0.185 0,0.102 -0.084,0.185 -0.188,0.185 -0.104,0 -0.188,0.055 -0.188,0.123 0,0.068 -0.084,0.123 -0.188,0.123 -0.162,0 -0.188,0.417 -0.188,3 0,2.51 0.03,3.04 0.188,3.195 0.103,0.102 0.188,0.244 0.188,0.317 0,0.214 2.476,0.174 2.697,-0.044 z"
       class="B"
       id="path40" />
    <path
       d="m 1.194,5.9 c 0,-0.08 4.2,-0.123 12.377,-0.123 L 25.948,5.9 c 0,0.08 -4.2,0.123 -12.377,0.123 C 5.394,6.023 1.194,5.97 1.194,5.9 Z M 5.07,30.777 c 0,-12.236 2.167,-18.727 6.25,-18.727 4.083,0 6.25,6.492 6.25,18.727 0,12.235 -2.167,18.727 -6.25,18.727 -4.083,0 -6.25,-6.492 -6.25,-18.727 z"
       class="B"
       id="path42" />
    <path
       d="M 1.348,5.567 H 99.113 V 51.893 H 1.348 Z"
       class="H"
       id="path44"
       style="fill:#ffffff" />
    <path
       d="m 39.353,10.372 h 28.38 v 28.09 h -28.38 z"
       fill="url(#A)"
       id="path46"
       style="fill:url(#A)" />
    <path
       d="M 40.103,11.11 H 66.857 V 37.846 H 40.103 Z"
       fill="#333"
       id="path48-5"
       style="fill:#000000" />
    <path
       d="m 47.004,22.773 c -0.364,-0.145 -1.178,-1.717 -1.178,-2.274 0,-0.543 0.766,-2.1 1.127,-2.3 0.388,-0.204 1.81,-0.107 1.81,0.124 0,0.142 -0.19,0.193 -0.82,0.22 l -0.82,0.036 -0.4,0.798 c -0.492,0.984 -0.496,1.228 -0.03,2.136 0.396,0.772 0.56,0.87 1.468,0.873 0.548,0.002 0.818,0.2 0.523,0.383 -0.217,0.135 -1.336,0.13 -1.682,-0.008 z"
       class="B"
       id="path56" />
    <path
       d="M 74.046,10.495 H 95.55 v 28.09 H 74.046 Z"
       fill="url(#B)"
       id="path58"
       style="fill:url(#B)" />
    <path
       d="M 4.098,8.647 H 23.35 V 47.58 H 4.098 Z"
       fill="#d4aa00"
       id="path60"
       style="fill:#000000" />
    <g
       class="H"
       id="g66"
       style="fill:#ffffff">
      <path
         d="m 19.975,10.74 h 3.876 v 38.44 h -3.876 z"
         id="path62"
         style="fill:#ffffff" />
      <path
         d="M 6.473,10.74 H 20.1 v 2.464 H 6.473 Z M 3.785,15.3 h 13.627 v 2.464 H 3.785 Z M 6.4,19.736 H 20.027 V 22.2 H 6.4 Z M 3.973,24.17 H 17.6 v 2.464 H 3.973 Z m 2.625,4.436 H 20.225 V 31.07 H 6.598 Z m -2.75,4.806 h 13.627 v 2.464 H 3.848 Z m 2.625,4.68 H 20.1 v 2.464 H 6.473 Z"
         id="path64"
         style="fill:#ffffff" />
    </g>
    <g
       fill="#9393ac"
       id="g86"
       style="fill:#ffffff">
      <path
         d="m 26.1,1.624 h 3.5 v 5.8 h -3.5 z m 5.377,-0.062 h 3.5 v 5.8 h -3.5 z M 37.165,1.47 h 3.5 v 5.8 h -3.5 z M 42.54,1.408 h 3.5 V 7.2 h -3.5 z m 5.47,0.016 h 3.5 v 5.8 H 48 Z m 5.377,-0.062 h 3.5 v 5.8 h -3.5 z M 59.075,1.27 h 3.5 v 5.8 h -3.5 z M 64.45,1.208 h 3.5 V 7 h -3.5 z m 5.064,0.216 h 3.5 v 5.8 h -3.5 z M 74.9,1.362 h 3.5 v 5.8 H 74.9 Z M 80.578,1.27 h 3.5 v 5.8 h -3.5 z m 5.376,-0.062 h 3.5 V 7 h -3.5 z m 5.406,0.108 h 3.5 v 5.8 h -3.5 z M 26.1,50.56 h 3.5 v 5.8 h -3.5 z m 5.377,-0.06 h 3.5 v 5.8 h -3.5 z m 5.688,-0.094 h 3.5 v 5.8 h -3.5 z m 5.375,-0.06 h 3.5 v 5.8 h -3.5 z m 5.47,0.015 h 3.5 v 5.8 H 48 Z m 5.377,-0.06 h 3.5 v 5.8 h -3.5 z m 5.688,-0.094 h 3.5 v 5.8 h -3.5 z m 5.375,-0.06 h 3.5 v 5.8 h -3.5 z m 5.064,0.215 h 3.5 v 5.8 h -3.5 z m 5.386,-0.06 h 3.5 v 5.8 h -3.5 z m 5.678,-0.094 h 3.5 v 5.8 h -3.5 z m 5.376,-0.06 h 3.5 v 5.8 h -3.5 z m 5.406,0.107 h 3.5 v 5.8 h -3.5 z"
         id="path68-3"
         style="fill:#ffffff" />
      <use
         xlink:href="#C"
         id="use70"
         style="fill:#ffffff"
         x="0"
         y="0"
         width="100%"
         height="100%" />
      <use
         xlink:href="#C"
         x="-0.109"
         y="-5.6059999"
         id="use72"
         style="fill:#ffffff"
         width="100%"
         height="100%" />
      <use
         xlink:href="#C"
         x="-0.186"
         y="-10.904"
         id="use74"
         style="fill:#ffffff"
         width="100%"
         height="100%" />
      <use
         xlink:href="#C"
         x="0.018999999"
         y="-15.894"
         id="use76"
         style="fill:#ffffff"
         width="100%"
         height="100%" />
      <use
         xlink:href="#C"
         x="-0.059"
         y="-21.191999"
         id="use78"
         style="fill:#ffffff"
         width="100%"
         height="100%" />
      <use
         xlink:href="#C"
         x="-0.168"
         y="-26.798"
         id="use80"
         style="fill:#ffffff"
         width="100%"
         height="100%" />
      <use
         xlink:href="#C"
         x="-0.24600001"
         y="-32.095001"
         id="use82"
         style="fill:#ffffff"
         width="100%"
         height="100%" />
      <use
         xlink:href="#C"
         x="-0.15099999"
         y="-37.424"
         id="use84"
         style="fill:#ffffff"
         width="100%"
         height="100%" />
    </g>
    <path
       d="M 74.86,11.11 H 94.863 V 37.723 H 74.86 Z"
       fill="#333"
       id="path88"
       style="fill:#000000" />
    <path
       d="m 4.036,42.923 h 13.627 v 2.464 H 4.036 Z"
       class="H"
       id="path90"
       style="fill:#ffffff" />
    <ellipse
       cx="122.04807"
       cy="5.6494241"
       class="E F"
       id="circle92"
       style="fill:#000000;stroke:#ffffff;stroke-width:2.6;stroke-miterlimit:4;stroke-dasharray:none"
       rx="3.6238401"
       ry="3.5358675" />
    <path
       d="m 122,3.493 h 22.575 v 4.33 H 122 Z"
       id="path94"
       style="fill:#000000" />
    <use
       xlink:href="#D"
       id="use96"
       style="fill:#000000"
       x="0"
       y="0"
       width="100%"
       height="100%" />
    <ellipse
       cx="122.15561"
       cy="15.140675"
       class="E F"
       id="circle98"
       style="fill:#000000;stroke:#ffffff;stroke-width:2.6;stroke-miterlimit:4;stroke-dasharray:none"
       rx="3.6238401"
       ry="3.5358675" />
    <path
       d="m 122.256,12.968 h 22.575 v 4.33 h -22.575 z"
       id="path100"
       style="fill:#000000" />
    <use
       xlink:href="#D"
       x="0.24600001"
       y="9.4750004"
       id="use102"
       style="fill:#000000"
       width="100%"
       height="100%" />
    <ellipse
       cx="122.02758"
       cy="33.854416"
       class="E F"
       id="circle104"
       style="fill:#000000;stroke:#ffffff;stroke-width:2.6;stroke-miterlimit:4;stroke-dasharray:none"
       rx="3.6238401"
       ry="3.5358675" />
    <path
       d="m 122.256,31.656 h 22.575 v 4.33 h -22.575 z"
       id="path106"
       style="fill:#000000" />
    <path
       d="m 144.983,35.985 -0.194,-0.05 -7.382,-0.783 0.083,-0.077 -0.04,-2.576 h 0.245 l 7.357,-0.81 0.07,0.078 4.588,2.076 -0.202,0.046 z"
       id="path108"
       style="fill:#000000" />
    <ellipse
       cx="122.10249"
       cy="43.025173"
       class="E F"
       id="circle110"
       style="fill:#000000;stroke:#ffffff;stroke-width:2.6;stroke-miterlimit:4;stroke-dasharray:none"
       rx="3.6238401"
       ry="3.5358675" />
    <path
       d="m 122.256,40.843 h 22.575 v 4.33 h -22.575 z"
       id="path112"
       style="fill:#000000" />
    <use
       xlink:href="#D"
       x="0.24600001"
       y="37.349998"
       id="use114"
       style="fill:#000000"
       width="100%"
       height="100%" />
    <ellipse
       cx="122.21323"
       cy="52.486141"
       class="E F"
       id="circle116"
       style="fill:#000000;stroke:#ffffff;stroke-width:2.6;stroke-miterlimit:4;stroke-dasharray:none;stroke-opacity:1"
       rx="3.6238401"
       ry="3.5358675" />
    <path
       d="m 122.256,50.28 h 22.575 v 4.33 h -22.575 z"
       id="path118"
       style="fill:#000000" />
    <use
       xlink:href="#D"
       x="0.24600001"
       y="46.778"
       id="use120"
       style="fill:#000000"
       width="100%"
       height="100%" />
    <ellipse
       cx="122.02822"
       cy="24.505117"
       class="E F"
       id="circle122"
       style="fill:#000000;stroke:#ffffff;stroke-width:2.6;stroke-miterlimit:4;stroke-dasharray:none"
       rx="3.6238401"
       ry="3.5358675" />
    <path
       d="m 122.57,22.343 h 22.575 v 4.33 H 122.57 Z"
       id="path124"
       style="fill:#000000" />
    <use
       xlink:href="#D"
       x="0.55900002"
       y="18.85"
       id="use126"
       style="fill:#000000"
       width="100%"
       height="100%" />
  </g>
  <g
     id="cluster_movil"
     style="fill:#ffffff"
     transform="translate(54.950056,-5.5)">
    <polygon
       points="188,236 16,236 16,16 26,6 198,6 198,226 "
       style="fill:#ffffff;stroke:#181818;stroke-width:1"
       id="polygon4" />
    <line
       style="fill:#ffffff;stroke:#181818;stroke-width:1"
       x1="188"
       x2="198"
       y1="16"
       y2="6"
       id="line6" />
    <line
       style="fill:#ffffff;stroke:#181818;stroke-width:1"
       x1="16"
       x2="188"
       y1="16"
       y2="16"
       id="line8" />
    <line
       style="fill:#ffffff;stroke:#181818;stroke-width:1"
       x1="188"
       x2="188"
       y1="16"
       y2="236"
       id="line10" />
    <text
       fill="#000000"
       font-family="sans-serif"
       font-size="14px"
       font-weight="bold"
       lengthAdjust="spacing"
       textLength="38"
       x="84"
       y="33.533199"
       id="text12"
       style="fill:#ffffff">movil</text>
  </g>
  <g
     id="cluster_server"
     style="fill:#ffffff"
     transform="translate(54.950056,-5.5)">
    <polygon
       points="509,236 367,236 367,16 377,6 519,6 519,226 "
       style="fill:#ffffff;stroke:#181818;stroke-width:1"
       id="polygon15" />
    <line
       style="fill:#ffffff;stroke:#181818;stroke-width:1"
       x1="509"
       x2="519"
       y1="16"
       y2="6"
       id="line17" />
    <line
       style="fill:#ffffff;stroke:#181818;stroke-width:1"
       x1="367"
       x2="509"
       y1="16"
       y2="16"
       id="line19" />
    <line
       style="fill:#ffffff;stroke:#181818;stroke-width:1"
       x1="509"
       x2="509"
       y1="16"
       y2="236"
       id="line21" />
    <text
       fill="#000000"
       font-family="sans-serif"
       font-size="14px"
       font-weight="bold"
       lengthAdjust="spacing"
       textLength="47"
       x="415.5"
       y="33.533199"
       id="text23"
       style="fill:#ffffff">server</text>
  </g>
  <g
     id="cluster_micro"
     style="fill:#ffffff"
     transform="translate(54.950056,-5.5)">
    <polygon
       points="297,391 177,391 177,296 187,286 307,286 307,381 "
       style="fill:#ffffff;stroke:#181818;stroke-width:1"
       id="polygon26" />
    <line
       style="fill:#ffffff;stroke:#181818;stroke-width:1"
       x1="297"
       x2="307"
       y1="296"
       y2="286"
       id="line28" />
    <line
       style="fill:#ffffff;stroke:#181818;stroke-width:1"
       x1="177"
       x2="297"
       y1="296"
       y2="296"
       id="line30" />
    <line
       style="fill:#ffffff;stroke:#181818;stroke-width:1"
       x1="297"
       x2="297"
       y1="296"
       y2="391"
       id="line32" />
    <text
       fill="#000000"
       font-family="sans-serif"
       font-size="14px"
       font-weight="bold"
       lengthAdjust="spacing"
       textLength="39"
       x="218.5"
       y="313.5332"
       id="text34"
       style="fill:#ffffff">micro</text>
  </g>
  <g
     id="elem_AplicacionControl"
     transform="translate(54.950056,-5.5)">
    <rect
       fill="#f1f1f1"
       height="47.609402"
       rx="2.5"
       ry="2.5"
       style="stroke:#181818;stroke-width:0.5"
       width="150"
       x="32"
       y="47"
       id="rect37" />
    <rect
       fill="#f1f1f1"
       height="10"
       style="stroke:#181818;stroke-width:0.5"
       width="15"
       x="162"
       y="52"
       id="rect39" />
    <rect
       fill="#f1f1f1"
       height="2"
       style="stroke:#181818;stroke-width:0.5"
       width="4"
       x="160"
       y="54"
       id="rect41" />
    <rect
       fill="#f1f1f1"
       height="2"
       style="stroke:#181818;stroke-width:0.5"
       width="4"
       x="160"
       y="58"
       id="rect43" />
    <text
       fill="#000000"
       font-family="sans-serif"
       font-size="14px"
       lengthAdjust="spacing"
       textLength="110"
       x="47"
       y="81.533203"
       id="text45">AplicacionControl</text>
  </g>
  <g
     id="elem_HistorialLocal"
     transform="translate(54.950056,-5.5)">
    <path
       d="m 55,183 c 0,-10 52,-10 52,-10 0,0 52,0 52,10 v 26.6094 c 0,10 -52,10 -52,10 0,0 -52,0 -52,-10 V 183"
       fill="#f1f1f1"
       style="stroke:#181818;stroke-width:0.5"
       id="path48" />
    <path
       d="m 55,183 c 0,10 52,10 52,10 0,0 52,0 52,-10"
       fill="none"
       style="stroke:#181818;stroke-width:0.5"
       id="path50" />
    <text
       fill="#000000"
       font-family="sans-serif"
       font-size="14px"
       lengthAdjust="spacing"
       textLength="84"
       x="65"
       y="211.5332"
       id="text52">HistorialLocal</text>
  </g>
  <g
     id="elem_Servicio"
     transform="translate(54.950056,-5.5)">
    <rect
       fill="#f1f1f1"
       height="47.609402"
       rx="2.5"
       ry="2.5"
       style="stroke:#181818;stroke-width:0.5"
       width="90"
       x="398"
       y="47"
       id="rect55" />
    <rect
       fill="#f1f1f1"
       height="10"
       style="stroke:#181818;stroke-width:0.5"
       width="15"
       x="468"
       y="52"
       id="rect57" />
    <rect
       fill="#f1f1f1"
       height="2"
       style="stroke:#181818;stroke-width:0.5"
       width="4"
       x="466"
       y="54"
       id="rect59" />
    <rect
       fill="#f1f1f1"
       height="2"
       style="stroke:#181818;stroke-width:0.5"
       width="4"
       x="466"
       y="58"
       id="rect61" />
    <text
       fill="#000000"
       font-family="sans-serif"
       font-size="14px"
       lengthAdjust="spacing"
       textLength="50"
       x="413"
       y="81.533203"
       id="text63">Servicio</text>
  </g>
  <g
     id="elem_HistorialRemoto"
     transform="translate(54.950056,-5.5)">
    <path
       d="m 383.5,183 c 0,-10 59.5,-10 59.5,-10 0,0 59.5,0 59.5,10 v 26.6094 c 0,10 -59.5,10 -59.5,10 0,0 -59.5,0 -59.5,-10 V 183"
       fill="#f1f1f1"
       style="stroke:#181818;stroke-width:0.5"
       id="path66" />
    <path
       d="m 383.5,183 c 0,10 59.5,10 59.5,10 0,0 59.5,0 59.5,-10"
       fill="none"
       style="stroke:#181818;stroke-width:0.5"
       id="path68" />
    <text
       fill="#000000"
       font-family="sans-serif"
       font-size="14px"
       lengthAdjust="spacing"
       textLength="99"
       x="393.5"
       y="211.5332"
       id="text70">HistorialRemoto</text>
  </g>
  <g
     id="elem_Firmware"
     transform="translate(54.950056,-5.5)">
    <rect
       fill="#f1f1f1"
       height="47.609402"
       rx="2.5"
       ry="2.5"
       style="stroke:#181818;stroke-width:0.5"
       width="98"
       x="193"
       y="327"
       id="rect73" />
    <rect
       fill="#f1f1f1"
       height="10"
       style="stroke:#181818;stroke-width:0.5"
       width="15"
       x="271"
       y="332"
       id="rect75" />
    <rect
       fill="#f1f1f1"
       height="2"
       style="stroke:#181818;stroke-width:0.5"
       width="4"
       x="269"
       y="334"
       id="rect77" />
    <rect
       fill="#f1f1f1"
       height="2"
       style="stroke:#181818;stroke-width:0.5"
       width="4"
       x="269"
       y="338"
       id="rect79" />
    <text
       fill="#000000"
       font-family="sans-serif"
       font-size="14px"
       lengthAdjust="spacing"
       textLength="58"
       x="208"
       y="361.5332"
       id="text81">Firmware</text>
  </g>
  <g
     id="elem_Internet"
     transform="translate(54.950056,-5.5)">
    <path
       d="m 259.1042,56.2887 c 2.1897,-9.4989 10.1797,-11.3926 16.1994,-3.5851 4.3494,-9.1771 11.2556,-9.9026 16.8138,-1.1325 4.6087,-5.135 11.0746,-6.0763 13.7921,1.9777 7.0423,-7.6923 12.904,-5.4785 16.4127,3.4825 9.2335,-0.0905 13.6036,4.8538 9.4318,13.8755 3.6066,9.0677 1.7448,16.6068 -9.9114,16.514 -2.2587,7.7175 -9.4003,9.3447 -15.077,3.9216 -3.105,8.5067 -9.5998,8.8289 -15.661,3.2981 -5.7817,6.8299 -12.7726,3.4695 -14.9145,-3.8396 -6.1057,6.0931 -13.3059,4.383 -16.1497,-3.7127 -9.8625,0.1834 -13.1107,-6.0967 -8.2602,-14.3705 -4.5485,-8.1693 -3.99,-15.331 7.324,-16.429"
       fill="#f1f1f1"
       style="stroke:#181818;stroke-width:0.5"
       id="path84" />
    <text
       fill="#000000"
       font-family="sans-serif"
       font-size="14px"
       lengthAdjust="spacing"
       textLength="48"
       x="266"
       y="76.533203"
       id="text86">Internet</text>
  </g>
  <g
     id="elem_HC05"
     transform="translate(54.950056,-5.5)">
    <rect
       fill="#f1f1f1"
       height="37.609402"
       rx="2.5"
       ry="2.5"
       style="stroke:#181818;stroke-width:0.5"
       width="55"
       x="214.5"
       y="177.5"
       id="rect89" />
    <text
       fill="#000000"
       font-family="sans-serif"
       font-size="14px"
       lengthAdjust="spacing"
       textLength="35"
       x="224.5"
       y="202.0332"
       id="text91">HC05</text>
  </g>
  <g
     id="elem_GS110"
     transform="translate(54.950056,-5.5)">
    <rect
       fill="#f1f1f1"
       height="37.609402"
       rx="2.5"
       ry="2.5"
       style="stroke:#181818;stroke-width:0.5"
       width="64"
       x="366"
       y="332"
       id="rect94" />
    <text
       fill="#000000"
       font-family="sans-serif"
       font-size="14px"
       lengthAdjust="spacing"
       textLength="44"
       x="376"
       y="356.5332"
       id="text96">GS110</text>
  </g>
  <g
     id="link_AplicacionControl_HistorialLocal"
     transform="translate(54.950056,-5.5)">
    <path
       d="m 107,95.23 c 0,20.57 0,50.64 0,72.48"
       fill="none"
       id="AplicacionControl-to-HistorialLocal"
       style="stroke:#181818;stroke-width:1;stroke-dasharray:7, 7" />
    <polygon
       fill="#181818"
       points="107,172.79 111,163.79 107,167.79 103,163.79 "
       style="stroke:#181818;stroke-width:1"
       id="polygon100" />
  </g>
  <g
     id="link_Servicio_HistorialRemoto"
     transform="translate(54.950056,-5.5)">
    <path
       d="m 443,95.23 c 0,20.57 0,50.64 0,72.48"
       fill="none"
       id="Servicio-to-HistorialRemoto"
       style="stroke:#181818;stroke-width:1;stroke-dasharray:7, 7" />
    <polygon
       fill="#181818"
       points="443,172.79 447,163.79 443,167.79 439,163.79 "
       style="stroke:#181818;stroke-width:1"
       id="polygon104" />
  </g>
  <g
     id="link_AplicacionControl_Internet"
     transform="translate(54.950056,-5.5)">
    <path
       d="m 182.23,71 c 23.56,0 48.61,0 68.62,0"
       fill="none"
       id="AplicacionControl-Internet"
       style="stroke:#181818;stroke-width:1" />
    <text
       fill="#000000"
       font-family="sans-serif"
       font-size="13px"
       lengthAdjust="spacing"
       textLength="32"
       x="200.5"
       y="64.495102"
       id="text108">HTTP</text>
  </g>
  <g
     id="link_AplicacionControl_HC05"
     transform="translate(54.950056,-5.5)">
    <path
       d="m 132.39,95.23 c 25.97,23.76 65.78,60.18 89.6,81.97"
       fill="none"
       id="AplicacionControl-HC05"
       style="stroke:#181818;stroke-width:1" />
    <text
       fill="#000000"
       font-family="sans-serif"
       font-size="13px"
       lengthAdjust="spacing"
       textLength="55"
       x="183"
       y="139.4951"
       id="text112">Bluetooth</text>
  </g>
  <g
     id="link_HC05_Firmware"
     transform="translate(54.950056,-5.5)">
    <path
       d="m 242,215.59 c 0,27.77 0,80.89 0,111.37"
       fill="none"
       id="HC05-Firmware"
       style="stroke:#181818;stroke-width:1" />
    <text
       fill="#000000"
       font-family="sans-serif"
       font-size="13px"
       lengthAdjust="spacing"
       textLength="34"
       x="243"
       y="266.49509"
       id="text116">UART</text>
  </g>
  <g
     id="link_Internet_Servicio"
     transform="translate(54.950056,-5.5)">
    <path
       d="m 329,71 c 20.99,0 46.97,0 68.83,0"
       fill="none"
       id="Internet-Servicio"
       style="stroke:#181818;stroke-width:1" />
    <text
       fill="#000000"
       font-family="sans-serif"
       font-size="13px"
       lengthAdjust="spacing"
       textLength="32"
       x="347.5"
       y="64.495102"
       id="text120">HTTP</text>
  </g>
  <g
     id="link_Firmware_GS110"
     transform="translate(54.950056,-5.5)">
    <path
       d="m 291.36,351 c 24.28,0 52.86,0 74.32,0"
       fill="none"
       id="Firmware-GS110"
       style="stroke:#181818;stroke-width:1" />
    <text
       fill="#000000"
       font-family="sans-serif"
       font-size="13px"
       lengthAdjust="spacing"
       textLength="38"
       x="309.5"
       y="344.49509"
       id="text124">analog</text>
  </g>
  <style
     id="style2"><![CDATA[.B{fill-opacity:0}.C{fill:#fff}.D{font-family:OCRA}.E{stroke:#1f0000}.F{stroke-width:20}.G{font-size:5.105px}.H{fill:#0d9557}]]></style>
</svg>
